<svg width="18" height="18" viewBox="0 0 18 18" fill="none" xmlns="http://www.w3.org/2000/svg">
<path d="M0.563837 8.10938H14.2771L6.06931 0.984375C5.93806 0.869531 6.01774 0.65625 6.19118 0.65625H8.2654C8.3568 0.65625 8.44352 0.689062 8.51149 0.747656L17.3685 8.43281C17.4496 8.50313 17.5147 8.59006 17.5593 8.68772C17.6039 8.78537 17.627 8.89147 17.627 8.99883C17.627 9.10618 17.6039 9.21228 17.5593 9.30994C17.5147 9.4076 17.4496 9.49453 17.3685 9.56484L8.45993 17.2969C8.42477 17.3273 8.38259 17.3438 8.33806 17.3438H6.19352C6.02009 17.3438 5.9404 17.1281 6.07165 17.0156L14.2771 9.89062H0.563837C0.460712 9.89062 0.376337 9.80625 0.376337 9.70312V8.29688C0.376337 8.19375 0.460712 8.10938 0.563837 8.10938Z" fill="#00AAFF"/>
</svg>
