<svg width="16" height="16" viewBox="0 0 16 16" fill="none" xmlns="http://www.w3.org/2000/svg">
<path fill-rule="evenodd" clip-rule="evenodd" d="M11.9172 0.5C11.9172 0.2 11.6966 0 11.3655 0C11.0345 0 10.8138 0.2 10.8138 0.5V1.5H5.29655V0.5C5.18621 0.2 4.96552 0 4.63448 0C4.41379 0 4.08276 0.2 4.08276 0.5V1.5H2.2069C0.993103 1.5 0 2.4 0 3.5V6.5V14C0 15.1 0.993103 16 2.2069 16H13.7931C15.0069 16 16 15.1 16 14V6.5V3.5C16 2.4 15.0069 1.5 13.7931 1.5H11.8069V0.5H11.9172ZM14.8966 6V3.5C14.8966 2.9 14.4552 2.5 13.7931 2.5H11.8069V3.5C11.8069 3.8 11.5862 4 11.2552 4C10.9241 4 10.7034 3.8 10.7034 3.5V2.5H5.18621V3.5C5.18621 3.8 4.96552 4 4.63448 4C4.41379 4 4.08276 3.8 4.08276 3.5V2.5H2.2069C1.54483 2.5 1.10345 2.9 1.10345 3.5V6H14.8966ZM1.10345 7H14.8966V14C14.8966 14.6 14.4552 15 13.7931 15H2.2069C1.54483 15 1.10345 14.6 1.10345 14V7Z" fill="#00AAFF"/>
</svg>
