<svg width="14" height="13" viewBox="0 0 14 13" fill="none" xmlns="http://www.w3.org/2000/svg">
<path d="M1.77057 0.303608C1.56627 0.102148 1.32225 0 1.03567 0C0.749088 0 0.505067 0.102148 0.303608 0.303608C0.102148 0.507904 0 0.751925 0 1.03851C0 1.42724 0.173085 1.72517 0.519254 1.92947V12.1869C0.519254 12.2578 0.544791 12.3174 0.595865 12.3685C0.64694 12.4195 0.706526 12.4451 0.777462 12.4451H1.29672C1.36765 12.4451 1.42724 12.4195 1.47831 12.3685C1.52939 12.3174 1.55492 12.2578 1.55492 12.1869V1.92947C1.90109 1.72233 2.07418 1.42724 2.07418 1.03851C2.07418 0.751925 1.97203 0.507904 1.77057 0.303608ZM13.8439 1.19173C13.7418 1.08958 13.6198 1.03851 13.4779 1.03851C13.407 1.03851 13.2594 1.09526 13.0353 1.20876C12.8111 1.32225 12.5728 1.44994 12.3231 1.58897C12.0734 1.72801 11.7754 1.8557 11.4321 1.96919C11.0888 2.08269 10.771 2.13944 10.4816 2.13944C10.212 2.13944 9.97365 2.08837 9.76935 1.98622C9.08837 1.66842 8.49818 1.43008 7.99595 1.27402C7.49372 1.11796 6.9546 1.03851 6.37576 1.03851C5.37698 1.03851 4.23916 1.36198 2.96514 2.01175C2.65302 2.16781 2.43737 2.28415 2.32388 2.36076C2.15647 2.48561 2.07134 2.63316 2.07134 2.80624V8.81313C2.07134 8.95217 2.12242 9.07418 2.22456 9.17633C2.32671 9.27847 2.44872 9.32955 2.58776 9.32955C2.67288 9.32955 2.76368 9.30401 2.85448 9.25578C4.32428 8.46696 5.5756 8.07256 6.61411 8.07256C7.00851 8.07256 7.39441 8.13214 7.76895 8.25132C8.14349 8.37049 8.45561 8.50101 8.70531 8.64005C8.95501 8.77908 9.24726 8.90961 9.58492 9.02878C9.92258 9.14795 10.2574 9.20754 10.5865 9.20754C11.4179 9.20754 12.4139 8.89542 13.5772 8.26834C13.7219 8.19173 13.8298 8.11796 13.8979 8.04702C13.966 7.97325 14 7.8711 14 7.7349V1.55492C14 1.41589 13.9461 1.29388 13.8439 1.19173Z" fill="white"/>
</svg>
