<svg width="15" height="15" viewBox="0 0 15 15" fill="none" xmlns="http://www.w3.org/2000/svg">
<path d="M5.4 9.2C6.1 9.2 6.7 9 7.3 8.7C7.9 8.4 8.3 7.9 8.7 7.3C9.1 6.7 9.2 6.1 9.2 5.4C9.2 4.7 9 4.1 8.7 3.5C8.3 3 7.9 2.5 7.3 2.2C6.7 1.8 6.1 1.7 5.4 1.7C4.7 1.7 4.1 1.9 3.5 2.2C3 2.5 2.5 3 2.2 3.5C1.8 4.1 1.7 4.7 1.7 5.4C1.7 6.1 1.9 6.7 2.2 7.3C2.5 7.9 3 8.3 3.6 8.7C4.1 9 4.8 9.2 5.4 9.2ZM10.4 9.2L14.5 13.3L13.2 14.6L9.1 10.4V9.7L8.9 9.5C8.4 9.9 7.9 10.2 7.3 10.5C6.7 10.7 6.1 10.8 5.4 10.8C4.4 10.8 3.5 10.6 2.7 10.1C1.9 9.6 1.2 9 0.7 8.2C0.2 7.3 0 6.4 0 5.4C0 4.4 0.2 3.5 0.7 2.7C1.2 1.9 1.8 1.2 2.7 0.7C3.6 0.2 4.5 0 5.4 0C6.3 0 7.3 0.2 8.1 0.7C8.9 1.2 9.6 1.8 10 2.7C10.4 3.6 10.7 4.4 10.7 5.4C10.7 6.1 10.6 6.7 10.4 7.3C10.2 7.9 10 8.5 9.5 8.9L9.7 9.1H10.4V9.2Z" fill="black" fill-opacity="0.2"/>
</svg>
