<svg width="28" height="20" viewBox="0 0 28 20" fill="none" xmlns="http://www.w3.org/2000/svg">
<path fill-rule="evenodd" clip-rule="evenodd" d="M25.6011 17.1111H15.2048V19.5556H25.6011C26.9205 19.5556 28 18.4556 28 17.1111V2.44444C28 1.1 26.9205 0 25.6011 0H6.4095C5.09008 0 4.01056 1.1 4.01056 2.44444V7.33333H6.4095V4.88889L16.0053 11L25.6011 4.88889V17.1111ZM16.0053 8.55556L6.4095 2.44444H25.6011L16.0053 8.55556ZM10.1111 9.5H0V11.75H10.1111V9.5ZM11.5556 13.5H2.88889V15.75H11.5556V13.5ZM13 19.5V17.25H7.22222V19.5H13Z" fill="#00AAFF"/>
</svg>
