<svg width="16" height="16" viewBox="0 0 16 16" fill="none" xmlns="http://www.w3.org/2000/svg">
<path d="M14.2762 0H1.72406C1.26696 0.000496306 0.828731 0.182297 0.505514 0.505514C0.182297 0.828731 0.000496306 1.26696 0 1.72406L0 10.9191C0.000579 11.3761 0.182417 11.8143 0.505625 12.1374C0.828833 12.4606 1.26702 12.6423 1.72406 12.6428H5.70188L7.01937 15.2778C7.25 15.7366 7.60625 16 8 16C8.39375 16 8.75 15.7366 8.98063 15.2778L10.2981 12.6428H14.2762C14.7332 12.6422 15.1713 12.4604 15.4945 12.1373C15.8176 11.8142 15.9994 11.3761 16 10.9191V1.72406C15.9995 1.26702 15.8177 0.828833 15.4946 0.505625C15.1714 0.182417 14.7333 0.000579 14.2762 0V0ZM15.0625 10.9191C15.0623 11.1275 14.9793 11.3274 14.8319 11.4748C14.6845 11.6221 14.4847 11.7051 14.2762 11.7053H10.0084C9.92137 11.7053 9.83602 11.7295 9.76195 11.7753C9.68787 11.821 9.62801 11.8865 9.58906 11.9644L8.14219 14.8584C8.08375 14.975 8.02906 15.0325 8 15.0544C7.97094 15.0325 7.91625 14.975 7.85781 14.8584L6.41094 11.9644C6.37199 11.8865 6.31213 11.821 6.23805 11.7753C6.16398 11.7295 6.07863 11.7053 5.99156 11.7053H1.72406C1.51556 11.7051 1.31564 11.6223 1.16817 11.4749C1.02071 11.3275 0.937748 11.1276 0.9375 10.9191V1.72406C0.937748 1.51553 1.0207 1.31561 1.16815 1.16815C1.31561 1.0207 1.51553 0.937748 1.72406 0.9375H14.2762C14.4848 0.937748 14.6846 1.02071 14.832 1.16817C14.9795 1.31564 15.0623 1.51556 15.0625 1.72406V10.9191Z" fill="#00ACFF"/>
</svg>
