<svg width="14" height="14" viewBox="0 0 14 14" fill="none" xmlns="http://www.w3.org/2000/svg">
<path d="M5.21379 8.82192C5.88966 8.82192 6.46897 8.63014 7.04828 8.34247C7.62759 8.05479 8.01379 7.57534 8.4 7C8.78621 6.42466 8.88276 5.84932 8.88276 5.17808C8.88276 4.50685 8.68966 3.93151 8.4 3.35616C8.01379 2.87671 7.62759 2.39726 7.04828 2.10959C6.46897 1.72603 5.88966 1.63014 5.21379 1.63014C4.53793 1.63014 3.95862 1.82192 3.37931 2.10959C2.89655 2.39726 2.41379 2.87671 2.12414 3.35616C1.73793 3.93151 1.64138 4.50685 1.64138 5.17808C1.64138 5.84932 1.83448 6.42466 2.12414 7C2.41379 7.57534 2.89655 7.9589 3.47586 8.34247C3.95862 8.63014 4.63448 8.82192 5.21379 8.82192ZM10.0414 8.82192L14 12.7534L12.7448 14L8.78621 9.9726V9.30137L8.5931 9.10959C8.11034 9.49315 7.62759 9.78082 7.04828 10.0685C6.46897 10.2603 5.88966 10.3562 5.21379 10.3562C4.24828 10.3562 3.37931 10.1644 2.6069 9.68493C1.83448 9.20548 1.15862 8.63014 0.675862 7.86301C0.193103 7 0 6.13699 0 5.17808C0 4.21918 0.193103 3.35616 0.675862 2.58904C1.15862 1.82192 1.73793 1.15068 2.6069 0.671233C3.47586 0.191781 4.34483 0 5.21379 0C6.08276 0 7.04828 0.191781 7.82069 0.671233C8.5931 1.15068 9.26897 1.72603 9.65517 2.58904C10.0414 3.45205 10.331 4.21918 10.331 5.17808C10.331 5.84932 10.2345 6.42466 10.0414 7C9.84828 7.57534 9.65517 8.15068 9.17241 8.53425L9.36552 8.72603H10.0414V8.82192Z" fill="#00AAFF"/>
</svg>
