<svg width="16" height="16" viewBox="0 0 16 16" fill="none" xmlns="http://www.w3.org/2000/svg">
<path d="M14.2762 0H1.72406C1.26696 0.000496306 0.828731 0.182297 0.505514 0.505514C0.182297 0.828731 0.000496306 1.26696 0 1.72406L0 10.9191C0.000579 11.3761 0.182417 11.8143 0.505625 12.1374C0.828833 12.4606 1.26702 12.6423 1.72406 12.6428H5.70188L7.01937 15.2778C7.25 15.7366 7.60625 16 8 16C8.39375 16 8.75 15.7366 8.98063 15.2778L10.2981 12.6428H14.2762C14.7332 12.6422 15.1713 12.4604 15.4945 12.1373C15.8176 11.8142 15.9994 11.3761 16 10.9191V1.72406C15.9995 1.26702 15.8177 0.828833 15.4946 0.505625C15.1714 0.182417 14.7333 0.000579 14.2762 0Z" fill="#00ACFF"/>
</svg>
