<svg width="19" height="12" viewBox="0 0 19 12" fill="none" xmlns="http://www.w3.org/2000/svg">
<path d="M17.9148 5.71446C17.8747 5.6564 16.9139 4.2762 15.3529 2.8796C14.4286 2.05271 13.4843 1.39216 12.5467 0.916036C11.3493 0.307395 10.1575 0 9.00434 0C7.8512 0 6.65939 0.307395 5.46231 0.915694C4.52433 1.39181 3.58037 2.05237 2.65611 2.87926C1.0941 4.2762 0.13397 5.6564 0.0938916 5.71446C0.0355493 5.7989 0.00439453 5.8983 0.00439453 6C0.00439453 6.1017 0.0355493 6.2011 0.0938916 6.28554C0.13397 6.3436 1.0948 7.7238 2.65611 9.1204C3.58037 9.94729 4.52433 10.6078 5.46231 11.084C6.65939 11.6919 7.8512 12 9.00434 12C10.1575 12 11.3493 11.6926 12.5464 11.0843C13.4843 10.6082 14.4286 9.94763 15.3529 9.12074C16.9139 7.7238 17.8747 6.3436 17.9148 6.28588C17.9732 6.2014 18.0044 6.10194 18.0044 6.00017C18.0044 5.8984 17.9732 5.79894 17.9148 5.71446ZM14.6217 8.38163C13.2956 9.56339 11.2445 10.975 9.00434 10.975C6.76416 10.975 4.71312 9.56339 3.38701 8.38163C2.57828 7.65471 1.83961 6.85752 1.18023 6C1.83959 5.14235 2.57825 4.34504 3.38701 3.61803C4.71312 2.43491 6.76416 1.02465 9.00434 1.02465C11.2445 1.02465 13.2956 2.43491 14.6217 3.61803C15.4305 4.34495 16.1692 5.14226 16.8284 6C16.1692 6.85761 15.4305 7.65481 14.6217 8.38163ZM9.00434 3.29254C8.45315 3.29254 7.91433 3.45133 7.45604 3.74883C6.99774 4.04633 6.64054 4.46917 6.42961 4.9639C6.21868 5.45862 6.16349 6.003 6.27102 6.5282C6.37855 7.0534 6.64397 7.53582 7.03372 7.91447C7.42347 8.29311 7.92005 8.55097 8.46064 8.65544C9.00124 8.75991 9.56159 8.70629 10.0708 8.50137C10.5801 8.29645 11.0153 7.94943 11.3215 7.50419C11.6278 7.05895 11.7912 6.53549 11.7912 6C11.7904 5.28219 11.4965 4.59401 10.974 4.08643C10.4516 3.57886 9.7432 3.29335 9.00434 3.29254ZM9.00434 7.68247C8.66173 7.68247 8.32682 7.58377 8.04196 7.39884C7.7571 7.21392 7.53508 6.95108 7.40399 6.64356C7.2729 6.33605 7.23861 5.99768 7.30548 5.67123C7.37234 5.34479 7.53735 5.04494 7.77963 4.80961C8.02192 4.57428 8.33059 4.41403 8.66662 4.34914C9.00265 4.28424 9.35095 4.31762 9.66745 4.44504C9.98396 4.57246 10.2545 4.7882 10.4448 5.06499C10.635 5.34177 10.7366 5.66716 10.7365 6C10.7359 6.44608 10.5531 6.87371 10.2284 7.18911C9.90371 7.50451 9.4635 7.68193 9.00434 7.68247Z" fill="#00ACFF"/>
</svg>
