<svg width="16" height="14" viewBox="0 0 16 14" fill="none" xmlns="http://www.w3.org/2000/svg">
<path d="M8 14C7.77247 14.0001 7.55266 13.9188 7.38156 13.7713C6.735 13.2157 6.11188 12.6932 5.5625 12.2322L5.55969 12.23C3.9475 10.8799 2.55531 9.71198 1.58687 8.56283C0.504375 7.27814 0 6.05984 0 4.72906C0 3.43607 0.450937 2.24359 1.26937 1.37013C2.0975 0.486521 3.23406 0 4.46875 0C5.3925 0 6.23812 0.287057 6.98281 0.853486C7.37071 1.15213 7.71296 1.50404 7.99906 1.89845C8.28527 1.50403 8.62763 1.15212 9.01562 0.853486C9.76094 0.287057 10.6069 0 11.5312 0C12.7669 0 13.9034 0.486521 14.7319 1.37013C15.5494 2.24359 16 3.43607 16 4.72906C16 6.05984 15.4959 7.27814 14.4131 8.56283C13.4444 9.71229 12.0528 10.8786 10.4412 12.2297C9.89031 12.6907 9.26625 13.2132 8.61844 13.7716C8.44729 13.919 8.22749 14.0002 8 14ZM4.46875 0.922023C3.5 0.922023 2.60719 1.30282 1.95812 1.99495C1.29969 2.69723 0.9375 3.66842 0.9375 4.72906C0.9375 5.84839 1.36031 6.84971 2.30875 7.97489C3.22531 9.06257 4.59 10.2053 6.1675 11.5284L6.17031 11.5308C6.72219 11.9934 7.34781 12.5177 7.99906 13.0777C8.65531 12.5168 9.28031 11.9915 9.83344 11.5281C11.4122 10.2065 12.7753 9.06257 13.6919 7.97489C14.64 6.8494 15.0625 5.84839 15.0625 4.72906C15.0625 3.66842 14.7 2.69723 14.0416 1.99372C13.3931 1.30282 12.5 0.922023 11.5312 0.922023C10.82 0.922023 10.1672 1.14454 9.59062 1.58281C9.07594 1.97344 8.71875 2.46764 8.50813 2.8134C8.45567 2.89994 8.38127 2.9716 8.29219 3.02136C8.20312 3.07112 8.10244 3.09729 8 3.09729C7.89756 3.09729 7.79688 3.07112 7.70781 3.02136C7.61873 2.9716 7.54433 2.89994 7.49188 2.8134C7.28125 2.46764 6.92406 1.97344 6.41031 1.5825C5.83375 1.14423 5.18094 0.922023 4.46875 0.922023Z" fill="#00ACFF"/>
</svg>
