<svg width="16" height="14" viewBox="0 0 16 14" fill="none" xmlns="http://www.w3.org/2000/svg">
<path d="M8 14C7.77247 14.0001 7.55266 13.9188 7.38156 13.7713C6.735 13.2157 6.11188 12.6932 5.5625 12.2322L5.55969 12.23C3.9475 10.8799 2.55531 9.71198 1.58687 8.56283C0.504375 7.27814 0 6.05984 0 4.72906C0 3.43607 0.450937 2.24359 1.26937 1.37013C2.0975 0.486521 3.23406 0 4.46875 0C5.3925 0 6.23812 0.287057 6.98281 0.853486C7.37071 1.15213 7.71296 1.50404 7.99906 1.89845C8.28527 1.50403 8.62763 1.15212 9.01562 0.853486C9.76094 0.287057 10.6069 0 11.5312 0C12.7669 0 13.9034 0.486521 14.7319 1.37013C15.5494 2.24359 16 3.43607 16 4.72906C16 6.05984 15.4959 7.27814 14.4131 8.56283C13.4444 9.71229 12.0528 10.8786 10.4412 12.2297C9.89031 12.6907 9.26625 13.2132 8.61844 13.7716C8.44729 13.919 8.22749 14.0002 8 14Z" fill="#00ACFF"/>
</svg>
