<svg width="130" height="46" viewBox="0 0 130 46" fill="none" xmlns="http://www.w3.org/2000/svg">
<path d="M111.447 39.825H116.996C119.097 39.825 120.371 39.3146 121.27 38.1716C122.032 37.1682 122.415 35.9283 122.35 34.6707C122.407 33.8659 122.262 33.0595 121.928 32.3251C121.593 31.5906 121.081 30.9513 120.436 30.4654C119.673 29.8903 118.651 29.574 116.931 29.574H111.447V39.825ZM104.121 46.0072V9.20142H128.1L125.999 15.3764H111.461V23.5283H117.392C122.17 23.5283 124.66 24.6713 126.38 26.1378C127.719 27.2808 129.978 29.8256 129.978 34.8576C129.978 39.8897 127.618 42.5638 125.66 43.9656C123.365 45.5543 120.939 46 116.031 46L104.121 46.0072ZM82.898 46.0072V15.3764H72.247V9.20142H101.825L99.7238 15.3764H90.289V46.0072H82.898ZM53.3918 23.9165H57.5299C58.384 23.9763 59.2423 23.9109 60.0775 23.7224C61.7975 23.212 62.877 21.6881 62.877 19.5818C62.877 17.1017 61.7327 15.9875 60.0775 15.513C59.1589 15.2948 58.2139 15.2077 57.2708 15.2542H53.3846L53.3918 23.9165ZM53.4566 30.2785V39.9543H58.5518C60.0847 39.9543 61.4881 39.825 62.5028 38.8689C63.0002 38.3846 63.3865 37.7984 63.635 37.1505C63.8835 36.5027 63.9883 35.8087 63.9421 35.1164C63.9797 33.979 63.6435 32.8605 62.985 31.9318C61.9055 30.5948 60.5669 30.2713 58.2712 30.2713L53.4566 30.2785ZM65.2447 26.3966V26.526C66.4855 27.003 67.6456 27.6672 68.6847 28.4957C70.8437 30.2785 71.808 32.6363 71.808 35.6843C71.808 40.7163 69.1309 44.3107 64.7337 45.4896C62.9813 45.922 61.1751 46.0964 59.3722 46.0072H46.0585V9.20142H57.8466C59.708 9.131 61.5708 9.30257 63.388 9.71181C67.6628 10.8548 70.4623 13.7806 70.4623 18.4316C70.4993 19.5405 70.3097 20.6452 69.9051 21.6785C69.5005 22.7117 68.8893 23.6518 68.109 24.4413C67.2856 25.2773 66.3081 25.9461 65.2303 26.411" fill="#002882"/>
<path d="M37.6744 6.1319H6.72885L8.93822 0H39.8837L37.6744 6.1319ZM36.5589 9.20144H5.61338L3.34644 15.3333H34.292L36.5589 9.20144ZM33.2125 18.4029H2.26694L0 24.5348H30.9455L33.2125 18.4029Z" fill="#00AAFF"/>
</svg>
