<svg width="25" height="22" viewBox="0 0 25 22" fill="none" xmlns="http://www.w3.org/2000/svg">
<path d="M20.475 12.0756L13.1942 19.4822V22H15.6651L22.9339 14.5811L20.475 12.0756ZM24.8291 11.7089L23.2938 10.1444C23.2361 10.0795 23.1657 10.0275 23.0873 9.99174C23.0088 9.95597 22.9239 9.93722 22.838 9.93667C22.658 9.94889 22.4901 10.01 22.3702 10.1444L21.1707 11.3667L23.6296 13.8111L24.8291 12.5889C25.057 12.3444 25.057 11.9533 24.8291 11.7089ZM10.7952 17.1111H2.39894V4.88889L11.9947 11L21.5905 4.88889V7.33333H23.9894V2.44444C23.9894 1.1 22.9099 0 21.5905 0H2.39894C1.07952 0 0 1.1 0 2.44444V17.1111C0 18.4556 1.07952 19.5556 2.39894 19.5556H10.7952V17.1111ZM21.5905 2.44444L11.9947 8.55556L2.39894 2.44444H21.5905Z" fill="#00AAFF"/>
</svg>
