<svg width="14" height="14" viewBox="0 0 14 14" fill="none" xmlns="http://www.w3.org/2000/svg">
<path d="M10.6438 9.26151C10.1864 8.80994 9.61543 8.80994 9.16094 9.26151C8.81426 9.60528 8.46757 9.94905 8.12671 10.2987C8.03348 10.3948 7.95482 10.4152 7.8412 10.3511C7.61687 10.2287 7.37798 10.1297 7.16239 9.99567C6.15729 9.36347 5.31534 8.55065 4.56952 7.63586C4.19953 7.18138 3.87032 6.69485 3.64017 6.14715C3.59355 6.03644 3.60229 5.96361 3.69261 5.87329C4.03929 5.53826 4.37724 5.19448 4.7181 4.85071C5.19298 4.37292 5.19298 3.81356 4.71519 3.33286C4.44425 3.05901 4.17331 2.79098 3.90237 2.51712C3.62269 2.23744 3.34592 1.95485 3.06333 1.67808C2.60593 1.23234 2.03492 1.23234 1.58044 1.681C1.23083 2.02477 0.895801 2.37728 0.540374 2.71523C0.211166 3.02696 0.0451061 3.40861 0.0101461 3.85435C-0.0452074 4.57977 0.132506 5.2644 0.383053 5.93156C0.895801 7.31248 1.67658 8.539 2.62341 9.66355C3.90237 11.1843 5.42896 12.3875 7.21483 13.2557C8.01891 13.6461 8.85213 13.9462 9.75818 13.9957C10.3816 14.0306 10.9235 13.8733 11.3576 13.3868C11.6548 13.0547 11.9898 12.7517 12.3044 12.4341C12.7706 11.9622 12.7735 11.3912 12.3103 10.925C11.7567 10.3686 11.2003 9.81504 10.6438 9.26151ZM10.0874 6.93957L11.1624 6.75603C10.9934 5.76841 10.5273 4.87402 9.81936 4.16316C9.07063 3.41443 8.12379 2.94247 7.08082 2.79681L6.92933 3.87765C7.73632 3.99127 8.47048 4.35544 9.05024 4.9352C9.59795 5.4829 9.95628 6.17628 10.0874 6.93957ZM11.7684 2.26658C10.5273 1.0255 8.95701 0.241807 7.22357 0L7.07208 1.08085C8.56954 1.29061 9.92715 1.96942 10.9993 3.03861C12.016 4.05537 12.6832 5.34015 12.925 6.75312L14 6.56958C13.7174 4.93228 12.9454 3.44648 11.7684 2.26658Z" fill="white"/>
</svg>
