<svg width="16" height="16" viewBox="0 0 16 16" fill="none" xmlns="http://www.w3.org/2000/svg">
<path fill-rule="evenodd" clip-rule="evenodd" d="M8.31111 0H6.97778C6.85926 0 6.8 0.0592593 6.8 0.177778V7.15556H0.177778C0.0592593 7.15556 0 7.21482 0 7.33333V8.66667C0 8.78519 0.0592593 8.84444 0.177778 8.84444H6.8V15.8222C6.8 15.9407 6.85926 16 6.97778 16H8.31111C8.42963 16 8.48889 15.9407 8.48889 15.8222V8.84444H15.1111C15.2296 8.84444 15.2889 8.78519 15.2889 8.66667V7.33333C15.2889 7.21482 15.2296 7.15556 15.1111 7.15556H8.48889V0.177778C8.48889 0.0592593 8.42963 0 8.31111 0Z" fill="white"/>
</svg>
