<svg width="19" height="19" viewBox="0 0 19 19" fill="none" xmlns="http://www.w3.org/2000/svg">
<path d="M18.3117 4.24922L14.5008 0.438281C14.325 0.2625 14.1094 0.133594 13.875 0.0632812V0H0.75C0.335156 0 0 0.335156 0 0.75V18C0 18.4148 0.335156 18.75 0.75 18.75H18C18.4148 18.75 18.75 18.4148 18.75 18V5.30859C18.75 4.91016 18.593 4.53047 18.3117 4.24922ZM6.375 1.6875H12.375V4.125H6.375V1.6875ZM17.0625 17.0625H1.6875V1.6875H4.875V4.875C4.875 5.28984 5.21016 5.625 5.625 5.625H13.125C13.5398 5.625 13.875 5.28984 13.875 4.875V2.19844L17.0625 5.38594V17.0625ZM9.375 7.73438C7.51172 7.73438 6 9.24609 6 11.1094C6 12.9727 7.51172 14.4844 9.375 14.4844C11.2383 14.4844 12.75 12.9727 12.75 11.1094C12.75 9.24609 11.2383 7.73438 9.375 7.73438ZM9.375 12.9844C8.33906 12.9844 7.5 12.1453 7.5 11.1094C7.5 10.0734 8.33906 9.23438 9.375 9.23438C10.4109 9.23438 11.25 10.0734 11.25 11.1094C11.25 12.1453 10.4109 12.9844 9.375 12.9844Z" fill="#002882"/>
</svg>
