<svg width="4" height="12" viewBox="0 0 4 12" fill="none" xmlns="http://www.w3.org/2000/svg">
<path d="M1.50898 8.98204C1.91617 8.98204 2.26946 9.13174 2.56886 9.43114C2.86826 9.73054 3.01797 10.0838 3.01797 10.491C3.01797 10.8982 2.86826 11.2515 2.56886 11.5509C2.26946 11.8503 1.91617 12 1.50898 12C1.1018 12 0.748503 11.8503 0.449102 11.5509C0.149701 11.2515 0 10.8982 0 10.491C0 10.0838 0.149701 9.73054 0.449102 9.43114C0.748503 9.13174 1.1018 8.98204 1.50898 8.98204ZM1.50898 4.49102C1.91617 4.49102 2.26946 4.64072 2.56886 4.94012C2.86826 5.23952 3.01797 5.59281 3.01797 6C3.01797 6.40719 2.86826 6.76048 2.56886 7.05988C2.26946 7.35928 1.91617 7.50898 1.50898 7.50898C1.1018 7.50898 0.748503 7.35928 0.449102 7.05988C0.149701 6.76048 0 6.40719 0 6C0 5.59281 0.149701 5.23952 0.449102 4.94012C0.748503 4.64072 1.1018 4.49102 1.50898 4.49102ZM1.50898 3.01796C1.1018 3.01796 0.748503 2.86826 0.449102 2.56886C0.149701 2.26946 0 1.91617 0 1.50898C0 1.1018 0.149701 0.748503 0.449102 0.449101C0.748503 0.1497 1.1018 0 1.50898 0C1.91617 0 2.26946 0.1497 2.56886 0.449101C2.86826 0.748503 3.01797 1.1018 3.01797 1.50898C3.01797 1.91617 2.86826 2.26946 2.56886 2.56886C2.26946 2.86826 1.91617 3.01796 1.50898 3.01796Z" fill="#38529D"/>
</svg>
