<svg width="16" height="16" viewBox="0 0 16 16" fill="none" xmlns="http://www.w3.org/2000/svg">
<path fill-rule="evenodd" clip-rule="evenodd" d="M0 8C0 3.58214 3.58214 0 8 0C12.4179 0 16 3.58214 16 8C16 12.4179 12.4179 16 8 16C3.58214 16 0 12.4179 0 8ZM1.35714 8C1.35714 11.6679 4.33214 14.6429 8 14.6429C11.6679 14.6429 14.6429 11.6679 14.6429 8C14.6429 4.33214 11.6679 1.35714 8 1.35714C4.33214 1.35714 1.35714 4.33214 1.35714 8ZM8.57321 8.41963L11.1196 10.2607C11.1839 10.3053 11.1982 10.3946 11.1518 10.4607L10.6411 11.1571C10.5946 11.2196 10.5054 11.2339 10.4411 11.1875L7.4875 9.03391C7.45 9.00713 7.42857 8.96427 7.42857 8.91784V4C7.42857 3.92143 7.49286 3.85714 7.57143 3.85714H8.43036C8.50893 3.85714 8.57321 3.92143 8.57321 4V8.41963Z" fill="#00AAFF"/>
</svg>
