<svg width="29" height="30" viewBox="0 0 29 30" fill="none" xmlns="http://www.w3.org/2000/svg">
<path d="M15.3389 6.66279H13.6663C13.5133 6.66279 13.3882 6.78838 13.3882 6.94186V16.5453C13.3882 16.636 13.4299 16.7198 13.5029 16.7721L19.2508 20.9826C19.376 21.0733 19.5498 21.0488 19.6403 20.9233L20.6347 19.5628C20.7286 19.4337 20.7008 19.2593 20.5756 19.1721L15.6171 15.5756V6.94186C15.6171 6.78838 15.4919 6.66279 15.3389 6.66279ZM22.9819 9.28605L28.4342 10.6221C28.6081 10.664 28.7785 10.5314 28.7785 10.3535L28.8063 4.71977C28.8063 4.48605 28.5385 4.35349 28.3577 4.5L22.8776 8.79419C22.8362 8.82633 22.8046 8.86955 22.7866 8.91887C22.7686 8.96819 22.7648 9.02162 22.7757 9.073C22.7866 9.12438 22.8117 9.17163 22.8482 9.20932C22.8847 9.24701 22.931 9.27361 22.9819 9.28605ZM28.8132 19.7895L26.8416 19.1093C26.7729 19.0857 26.6977 19.0899 26.632 19.1212C26.5664 19.1525 26.5156 19.2083 26.4904 19.2767C26.4244 19.4547 26.3548 19.6291 26.2818 19.8035C25.6628 21.2721 24.7761 22.5942 23.6426 23.7279C22.5216 24.856 21.1931 25.7551 19.7307 26.3756C18.2157 27.0181 16.5873 27.348 14.9425 27.3454C13.2804 27.3454 11.6704 27.0209 10.1543 26.3756C8.69194 25.7551 7.36342 24.856 6.24243 23.7279C5.11232 22.5942 4.22563 21.2721 3.6032 19.8035C2.96623 18.2829 2.63988 16.6494 2.64348 15C2.64348 13.3326 2.96686 11.714 3.61015 10.193C4.2291 8.72442 5.1158 7.40233 6.24938 6.26861C7.37038 5.14054 8.69889 4.24136 10.1613 3.62093C11.6704 2.97558 13.2838 2.65117 14.946 2.65117C16.6081 2.65117 18.2181 2.97558 19.7341 3.62093C21.1965 4.24136 22.525 5.14054 23.646 6.26861C24.0007 6.62791 24.3345 7.00117 24.6405 7.39535L26.7199 5.76279C23.9833 2.25349 19.7237 -0.00348433 14.939 4.03793e-06C6.60754 0.00349241 -0.0826816 6.79186 0.000772339 15.1535C0.0842262 23.3686 6.74315 30 14.946 30C21.3963 30 26.8903 25.8977 28.9836 20.1523C29.0358 20.0058 28.9593 19.8419 28.8132 19.7895Z" fill="#00AAFF"/>
</svg>
