<svg width="25" height="22" viewBox="0 0 25 22" fill="none" xmlns="http://www.w3.org/2000/svg">
<path d="M0 16.8732V20.767H10.0718V18.3139H2.39204V16.8732C2.39204 16.0425 6.33262 14.1475 10.0718 14.1475C11.2804 14.1605 12.4764 14.3292 13.6346 14.6407L15.5483 12.6678C13.7857 12.0578 11.9602 11.7204 10.0718 11.6814C6.71031 11.6814 0 13.4077 0 16.8732ZM10.0718 0C7.28944 0 5.03588 2.3233 5.03588 5.19174C5.03588 8.06018 7.28944 10.3835 10.0718 10.3835C12.8541 10.3835 15.1076 8.06018 15.1076 5.19174C15.1076 2.3233 12.8541 0 10.0718 0ZM10.0718 7.78761C8.68689 7.78761 7.55382 6.63245 7.55382 5.19174C7.55382 3.75103 8.68689 2.59587 10.0718 2.59587C11.4566 2.59587 12.5897 3.76401 12.5897 5.19174C12.5897 6.61947 11.4692 7.78761 10.0718 7.78761ZM24.8017 12.1357L23.5427 13.4336L20.9619 10.8378L22.2208 9.53982C22.3503 9.40902 22.5243 9.33576 22.7055 9.33576C22.8868 9.33576 23.0608 9.40902 23.1902 9.53982L24.8017 11.2012C25.0661 11.4737 25.0661 11.928 24.8017 12.2006V12.1357ZM12.5897 19.3911L20.2191 11.5257L22.7999 14.1215L15.2461 22H12.5897V19.3911Z" fill="#00AAFF"/>
</svg>
