<svg width="25" height="24" viewBox="0 0 25 24" fill="none" xmlns="http://www.w3.org/2000/svg">
<path d="M12.931 9.33125H10V12.0663H8.62069V9.33125H5.68965V8.04418H8.62069V5.30916H10V8.04418H12.931V9.33125ZM9.31034 14.8013C10.5172 14.8013 11.5517 14.4795 12.5862 13.9969C13.6207 13.5142 14.3103 12.7098 15 11.7445C15.6897 10.7792 15.8621 9.8139 15.8621 8.68772C15.8621 7.56153 15.5172 6.59623 15 5.63093C14.3103 4.82651 13.6207 4.02209 12.5862 3.53944C11.5517 2.89591 10.5172 2.73502 9.31034 2.73502C8.10345 2.73502 7.06897 3.05679 6.03448 3.53944C5.17241 4.02209 4.31034 4.82651 3.7931 5.63093C3.10345 6.59623 2.93103 7.56153 2.93103 8.68772C2.93103 9.8139 3.27586 10.7792 3.7931 11.7445C4.31034 12.7098 5.17241 13.3533 6.2069 13.9969C7.06897 14.4795 8.27586 14.8013 9.31034 14.8013ZM17.931 14.8013L25 21.3975L22.7586 23.489L15.6897 16.7319V15.6057L15.3448 15.2839C14.4828 15.9275 13.6207 16.4101 12.5862 16.8928C11.5517 17.2146 10.5172 17.3754 9.31034 17.3754C7.58621 17.3754 6.03448 17.0537 4.65517 16.2493C3.27586 15.4448 2.06897 14.4795 1.2069 13.1925C0.344828 11.7445 0 10.2966 0 8.68772C0 7.07888 0.344828 5.63093 1.2069 4.34386C2.06897 3.05679 3.10345 1.9306 4.65517 1.12619C6.2069 0.321767 7.75862 0 9.31034 0C10.8621 0 12.5862 0.321767 13.9655 1.12619C15.3448 1.9306 16.5517 2.89591 17.2414 4.34386C17.931 5.79181 18.4483 7.07888 18.4483 8.68772C18.4483 9.8139 18.2759 10.7792 17.931 11.7445C17.5862 12.7098 17.2414 13.6751 16.3793 14.3186L16.7241 14.6404H17.931V14.8013Z" fill="white"/>
</svg>
