<svg width="24" height="24" viewBox="0 0 24 24" fill="none" xmlns="http://www.w3.org/2000/svg">
<path fill-rule="evenodd" clip-rule="evenodd" d="M16 12C16 14.2092 14.2091 16 12 16C9.79083 16 7.99997 14.2092 7.99997 12C7.99997 9.79087 9.79083 8.00001 12 8.00001C14.2091 8.00001 16 9.79087 16 12ZM14.7 12C14.7 13.4912 13.4911 14.7 12 14.7C10.5088 14.7 9.29997 13.4912 9.29997 12C9.29997 10.5088 10.5088 9.30001 12 9.30001C13.4911 9.30001 14.7 10.5088 14.7 12Z" fill="#002882"/>
<path fill-rule="evenodd" clip-rule="evenodd" d="M10.983 3.00494C10.0973 3.00494 9.34724 3.65809 9.22547 4.5354C9.07446 5.6234 7.93974 6.27853 6.922 5.86531C6.10134 5.53211 5.16066 5.85512 4.7178 6.62217L3.76107 8.27928C3.32358 9.03703 3.50376 10.0006 4.1855 10.549C5.0671 11.2583 5.05259 12.6261 4.1475 13.3307C3.44861 13.8748 3.258 14.851 3.70086 15.618L4.65759 17.2751C5.09508 18.0329 6.01962 18.3586 6.83546 18.0424C7.89049 17.6336 9.06777 18.33 9.22547 19.4662C9.34724 20.3435 10.0973 20.9966 10.983 20.9966H12.8965C13.7715 20.9966 14.5158 20.3588 14.6499 19.4942C14.8323 18.3184 16.055 17.6125 17.1645 18.0424C17.9803 18.3586 18.9049 18.0329 19.3423 17.2751L20.2991 15.618C20.7419 14.851 20.5513 13.8748 19.8524 13.3307C18.9473 12.6261 18.9328 11.2583 19.8144 10.549C20.4962 10.0006 20.6764 9.03703 20.2389 8.27929L19.2821 6.62217C18.8393 5.85512 17.8986 5.53211 17.0779 5.86531C16.0151 6.29682 14.8234 5.62549 14.6499 4.50738C14.5158 3.64275 13.7715 3.00494 12.8965 3.00494H10.983ZM10.5131 4.71413C10.5457 4.47957 10.7462 4.30494 10.983 4.30494L12.8965 4.30494C13.1304 4.30494 13.3294 4.47547 13.3653 4.70663C13.6696 6.66888 15.7416 7.81096 17.567 7.06981C17.7864 6.98073 18.0379 7.06709 18.1563 7.27217L19.113 8.92928C19.23 9.13187 19.1818 9.38948 18.9996 9.53612C17.4524 10.7808 17.4993 13.1462 19.0538 14.3565C19.2407 14.502 19.2916 14.7629 19.1732 14.968L18.2165 16.6251C18.0995 16.8277 17.8524 16.9148 17.6342 16.8303C15.7507 16.1003 13.6749 17.2988 13.3653 19.295C13.3294 19.5261 13.1304 19.6966 12.8965 19.6966H10.983C10.7462 19.6966 10.5457 19.522 10.5131 19.2875C10.2423 17.336 8.21723 16.1127 6.3657 16.8303C6.14758 16.9148 5.90039 16.8277 5.78343 16.6251L4.82669 14.968C4.70829 14.7629 4.75925 14.502 4.9461 14.3565C6.50066 13.1462 6.54755 10.7808 5.00038 9.53612C4.81811 9.38948 4.76994 9.13187 4.8869 8.92928L5.84364 7.27217C5.96204 7.06709 6.21354 6.98073 6.43295 7.06981C8.23569 7.80175 10.2456 6.64132 10.5131 4.71413Z" fill="#002882"/>
</svg>
