<?xml version="1.0" encoding="UTF-8" standalone="no"?>
<!DOCTYPE svg PUBLIC "-//W3C//DTD SVG 1.1//EN" "http://www.w3.org/Graphics/SVG/1.1/DTD/svg11.dtd" >
<svg xmlns="http://www.w3.org/2000/svg">
<metadata>
Generated by SVGconv.
Copyright   : Copyright  1992 ParaType Inc., ParaType Ltd. All rights reserved.
Designer    : ParaType, Ltd
Foundry     : ParaType, Ltd
Foundry URL : http://www.paratype.com
</metadata>
<defs>
<font id="VTBGroupWebCond-Book" horiz-adv-x="479" >
<font-face units-per-em="1000" ascent="1000" descent="274" >
<font-face-src>
<font-face-name/>
</font-face-src>
</font-face>
<missing-glyph horiz-adv-x="500" />
<glyph unicode="&#13;" horiz-adv-x="233" />
<glyph unicode="&#32;" horiz-adv-x="200" />
<glyph unicode="&#33;" horiz-adv-x="310" d="M103 700h104l-13 -510h-79zM100 110h110v-110l-110 0z" />
<glyph unicode="&#34;" horiz-adv-x="420" d="M85 750h90v-250h-90zM245 750h90v-250l-90 0z" />
<glyph unicode="&#35;" horiz-adv-x="500" d="M100 193h-75v84h87l20 146h-77v84h89l27 193h90l-27 -193h76l27 193h90l-27 -193h75v-84h-87l-20 -146h77v-84h-89l-27 -193h-90l27 193h-76l-27 -193h-90zM278 277l20 146h-76l-20 -146z" />
<glyph unicode="&#37;" horiz-adv-x="680" d="M170 372q-62 0 -101 42.5q-39 42.5 -39 125.5q0 83 35.5 125.5q35.5 42.5 104.5 42.5q62 0 101 -42.5q39 -42.5 39 -125.5q0 -83 -39 -125.5q-39 -42.5 -101 -42.5zt0 0zM170 436q29 0 47.5 23q18.5 23 18.5 81q0 58 -18.5 81q-18.5 23 -47.5 23q-29 0 -47.5 -23q-18.5 -23 -18.5 -81q0 -58 18 -81q18 -23 48 -23zt0 0zM510 -8q-62 0 -101 42.5q-39 42.5 -39 125.5q0 83 35.5 125.5q35.5 42.5 104.5 42.5q62 0 101 -42.5q39 -42.5 39 -125.5q0 -83 -39 -125.5q-39 -42.5 -101 -42.5zt0 0zM510 56q29 0 47.5 23q18.5 23 18.5 81q0 58 -18.5 81q-18.5 23 -47.5 23q-29 0 -47.5 -23q-18.5 -23 -18.5 -81q0 -58 18 -81q18 -23 48 -23zt0 0zM490 700h75l-376 -700l-74 0z" />
<glyph unicode="&#38;" horiz-adv-x="600" d="M250 -8q-50 0 -90.5 14q-40.5 14 -69.5 38.5q-29 24.5 -44.5 59q-15.5 34.5 -15.5 76.5q0 39 11 69.5q11 30.5 29 55.5q18 25 41.5 44.5q23.5 19.5 49.5 36.5q-35 47 -57 86.5q-22 39.5 -22 77.5q0 74 43.5 116q43.5 42 126.5 42q83 0 126.5 -42q43.5 -42 43.5 -116q0 -33 -11.5 -60q-11.5 -27 -30.5 -49q-19 -22 -43.5 -40.5q-24.5 -18.5 -50.5 -36.5l140 -179q17 38 26.5 88.5q9.5 50.5 9.5 116.5l90 0q0 -91 -18 -160.5q-18 -69.5 -51 -118.5l87 -111h-114l-35 45q-35 -27 -78 -40q-43 -13 -93 -13zt0 0zM250 70q71 0 121 41l-157 205q-38 -27 -63 -59q-25 -32 -25 -77q0 -53 34 -81.5q34 -28.5 90 -28.5zt0 0zM252 630q-33 0 -53.5 -21q-20.5 -21 -20.5 -59q0 -27 13 -54q13 -27 42 -65q39 25 66 52q27 27 27 67q0 38 -20.5 59t-53.5 21z" />
<glyph unicode="&#39;" horiz-adv-x="260" d="M85 750h90v-250l-90 0z" />
<glyph unicode="&#40;" horiz-adv-x="300" d="M50 305q0 66 9.5 124q9.5 58 26.5 112q17 54 41 105q24 51 53 104l100 0q-32 -62 -55 -116.5q-23 -54.5 -38.5 -108q-15.5 -53.5 -23 -107q-7.5 -53.5 -7.5 -113.5q0 -60 7.5 -113.5q7.5 -53.5 23 -107q15.5 -53.5 38.5 -108.5q23 -55 55 -116l-100 0q-29 52 -53 103.5q-24 51.5 -41 105q-17 53.5 -26.5 112t-9.5 124.5z" />
<glyph unicode="&#41;" horiz-adv-x="300" d="M250 305q0 -66 -9.5 -124q-9.5 -58 -26.5 -112q-17 -54 -41 -105.5q-24 -51.5 -53 -103.5l-100 0q31 61 54.5 116q23.5 55 39 108.5q15.5 53.5 23 107q7.5 53.5 7.5 113.5q0 60 -7.5 113.5q-7.5 53.5 -23 107q-15.5 53.5 -39 108q-23.5 54.5 -54.5 116.5l100 0q29 -53 53 -104q24 -51 41 -104.5q17 -53.5 26.5 -112t9.5 -124.5z" />
<glyph unicode="&#42;" horiz-adv-x="400" d="M75 407l81 109l-121 35l27 74l110 -54l-13 129h82l-12 -129l110 54l26 -74l-118 -35l80 -109l-64 -43l-62 117l-59 -117z" />
<glyph unicode="&#43;" horiz-adv-x="500" d="M203 306h-153v88h153v161h94v-161h153v-88h-153v-161l-94 0z" />
<glyph unicode="&#44;" horiz-adv-x="260" d="M64 120h110l-70 -240l-80 0z" />
<glyph unicode="&#45;" horiz-adv-x="330" d="M40 338h250v-76l-250 0z" />
<glyph unicode="&#46;" horiz-adv-x="260" d="M70 120h120v-120l-120 0z" />
<glyph unicode="&#47;" horiz-adv-x="350" d="M252 700h98l-252 -700l-98 0z" />
<glyph unicode="&#48;" horiz-adv-x="500" d="M250 80q22 0 42 11q20 11 35 41q15 30 24 82.5q9 52.5 9 135.5q0 82 -9 134.5q-9 52.5 -24 82.5q-15 30 -35 41.5q-20 11.5 -42 11.5q-23 0 -43 -11.5q-20 -11.5 -35 -41.5q-15 -30 -23.5 -82.5q-8.5 -52.5 -8.5 -134.5q0 -83 8.5 -135.5q8.5 -52.5 23.5 -82.5q15 -30 35 -41q20 -11 43 -11zt0 0zM250 -8q-45 0 -83.5 18q-38.5 18 -66.5 60q-28 42 -44 110.5q-16 68.5 -16 169.5q0 100 16 168.5q16 68.5 44 110.5q28 42 66.5 60.5q38.5 18.5 83.5 18.5q45 0 83.5 -18.5q38.5 -18.5 66.5 -60.5q28 -42 44 -110.5q16 -68.5 16 -168.5q0 -101 -16 -169.5q-16 -68.5 -44 -110.5q-28 -42 -66.5 -60t-83.5 -18z" />
<glyph unicode="&#49;" horiz-adv-x="500" d="M260 577l-126 -109l-54 70l200 162h80v-700l-100 0z" />
<glyph unicode="&#50;" horiz-adv-x="500" d="M60 77q84 100 137 167.5q53 67.5 82.5 115.5q29.5 48 40 84q10.5 36 10.5 74q0 48 -26.5 75q-26.5 27 -73.5 27q-42 0 -83.5 -14.5q-41.5 -14.5 -76.5 -36.5l0 98q32 16 76.5 28.5q44.5 12.5 93.5 12.5q190 0 190 -190q0 -48 -18 -95.5q-18 -47.5 -51 -99.5q-33 -52 -79 -110q-46 -58 -102 -127l260 0v-86l-380 0z" />
<glyph unicode="&#51;" horiz-adv-x="500" d="M220 -8q-60 0 -99 9.5q-39 9.5 -71 21.5l0 98q29 -19 69 -30q40 -11 91 -11q60 0 95 34q35 34 35 87q0 54 -38 87.5q-38 33.5 -119 33.5h-53v86h53q77 0 112 30.5q35 30.5 35 75.5q0 50 -28.5 78q-28.5 28 -81.5 28q-33 0 -74.5 -9.5q-41.5 -9.5 -75.5 -26.5l0 98q23 7 63 16.5q40 9.5 97 9.5q98 0 149 -48.5q51 -48.5 51 -129.5q0 -35 -12.5 -63q-12.5 -28 -31.5 -48.5q-19 -20.5 -42 -33q-23 -12.5 -45 -16.5l0 -2q22 -3 47 -14q25 -11 46 -32q21 -21 34.5 -53q13.5 -32 13.5 -77q0 -42 -16.5 -78q-16.5 -36 -46 -63q-29.5 -27 -69.5 -42.5t-88 -15.5z" />
<glyph unicode="&#52;" horiz-adv-x="500" d="M320 243v377h-4l-209 -377zM320 157h-300v110l240 433h160v-457h60v-86h-60v-157l-100 0z" />
<glyph unicode="&#53;" horiz-adv-x="500" d="M210 -8q-47 0 -83 6.5q-36 6.5 -67 20.5l0 98q30 -16 63.5 -26.5q33.5 -10.5 76.5 -10.5q68 0 104 36q36 36 36 105q0 69 -37.5 105q-37.5 36 -112.5 36q-36 0 -64.5 -6.5q-28.5 -6.5 -54.5 -15.5l19 360h340v-81h-256l-9 -174q13 2 25.5 3.5q12.5 1.5 29.5 1.5q106 0 163 -58.5q57 -58.5 57 -170.5q0 -52 -16.5 -94.5q-16.5 -42.5 -46.5 -72.5q-30 -30 -72.5 -46t-94.5 -16z" />
<glyph unicode="&#54;" horiz-adv-x="500" d="M250 80q49 0 77 32.5q28 32.5 28 107.5q0 74 -26 107q-26 33 -77 33q-45 0 -76 -37q-31 -37 -31 -103q0 -72 30 -106q30 -34 75 -34zt0 0zM250 -8q-43 0 -80.5 17.5q-37.5 17.5 -65 55q-27.5 37.5 -43.5 96.5q-16 59 -16 142q0 99 18 175q18 76 51 127q33 51 80 77q47 26 105 26q41 0 69.5 -6.5q28.5 -6.5 51.5 -13.5l0 -98q-29 14 -56 22q-27 8 -65 8q-31 0 -60.5 -15.5q-29.5 -15.5 -52.5 -47.5q-23 -32 -37 -81q-14 -49 -14 -116l2 0q17 38 56 63q39 25 91 25q76 0 123.5 -55q47.5 -55 47.5 -173q0 -112 -55.5 -170t-149.5 -58z" />
<glyph unicode="&#55;" horiz-adv-x="500" d="M347 614h-297v86h390v-96l-237 -604l-98 0z" />
<glyph unicode="&#56;" horiz-adv-x="500" d="M250 80q49 0 77 27.5q28 27.5 28 74.5q0 44 -27.5 78.5q-27.5 34.5 -90.5 65.5q-49 -31 -70.5 -65.5q-21.5 -34.5 -21.5 -79.5q0 -46 28 -73.5q28 -27.5 77 -27.5zt0 0zM250 -8q-98 0 -151.5 51q-53.5 51 -53.5 133q0 24 5.5 47.5q5.5 23.5 19 46.5q13.5 23 36.5 47q23 24 59 48q-53 34 -79 75q-26 41 -26 95q0 78 49.5 125.5q49.5 47.5 140.5 47.5q91 0 140.5 -47.5q49.5 -47.5 49.5 -125.5q0 -49 -28 -90.5q-28 -41.5 -77 -78.5q66 -45 93 -90q27 -45 27 -100q0 -82 -53.5 -133q-53.5 -51 -151.5 -51zt0 0zM250 620q-42 0 -66 -23q-24 -23 -24 -58q0 -37 24.5 -70.5q24.5 -33.5 78.5 -63.5q42 36 59.5 66q17.5 30 17.5 68q0 35 -24 58t-66 23z" />
<glyph unicode="&#57;" horiz-adv-x="500" d="M248 340q45 0 76 37q31 37 31 103q0 72 -30 106q-30 34 -75 34q-49 0 -77 -32.5q-28 -32.5 -28 -107.5q0 -74 26 -107q26 -33 77 -33zt0 0zM201 -8q-41 0 -69.5 6.5q-28.5 6.5 -51.5 13.5l0 98q29 -14 56 -22q27 -8 65 -8q31 0 60.5 15.5q29.5 15.5 52.5 47.5q23 32 37 81q14 49 14 116l-2 0q-17 -38 -56 -63q-39 -25 -91 -25q-38 0 -69.5 13.5q-31.5 13.5 -54 41.5q-22.5 28 -35 71q-12.5 43 -12.5 102q0 112 55.5 170q55.5 58 149.5 58q43 0 80.5 -17.5q37.5 -17.5 65 -55q27.5 -37.5 43.5 -96.5q16 -59 16 -142q0 -206 -65.5 -305.5t-188.5 -99.5z" />
<glyph unicode="&#58;" horiz-adv-x="260" d="M70 120h120v-120h-120zM70 510h120v-120l-120 0z" />
<glyph unicode="&#59;" horiz-adv-x="260" d="M75 120h110l-70 -240h-80zM70 510h120v-120l-120 0z" />
<glyph unicode="&#60;" horiz-adv-x="500" d="M50 303v94l400 212v-92l-320 -165l320 -165l0 -96z" />
<glyph unicode="&#61;" horiz-adv-x="500" d="M50 294h400v-88h-400zM50 494h400v-88l-400 0z" />
<glyph unicode="&#62;" horiz-adv-x="500" d="M50 183l320 165l-320 165v96l400 -212v-94l-400 -212z" />
<glyph unicode="&#63;" horiz-adv-x="420" d="M142 230q0 49 19.5 85q19.5 36 43.5 70q24 34 43.5 70q19.5 36 19.5 85q0 41 -22 62.5q-22 21.5 -66 21.5q-38 0 -70.5 -10q-32.5 -10 -59.5 -25l0 94q8 3 22.5 7.5q14.5 4.5 33 8.5q18.5 4 40 6.5q21.5 2.5 44.5 2.5q87 0 133.5 -46.5q46.5 -46.5 46.5 -131.5q0 -49 -20.5 -86.5q-20.5 -37.5 -45.5 -73.5q-25 -36 -45.5 -73.5q-20.5 -37.5 -20.5 -86.5v-20h-96zM135 110h110v-110l-110 0z" />
<glyph unicode="&#64;" horiz-adv-x="800" d="M420 -140q-86 0 -154.5 26q-68.5 26 -116.5 77q-48 51 -73.5 127q-25.5 76 -25.5 175q0 92 28.5 166.5q28.5 74.5 78 127.5q49.5 53 117 82q67.5 29 146.5 29q73 0 134 -24.5q61 -24.5 104.5 -69q43.5 -44.5 67.5 -107q24 -62.5 24 -139.5q0 -65 -16 -114.5q-16 -49.5 -43 -82.5q-27 -33 -63.5 -50q-36.5 -17 -77.5 -17q-45 0 -69.5 16.5q-24.5 16.5 -35.5 45.5q-20 -34 -48.5 -48q-28.5 -14 -51.5 -14q-27 0 -49.5 9.5q-22.5 9.5 -39 30.5q-16.5 21 -25.5 54q-9 33 -9 80q0 55 13.5 97q13.5 42 37.5 70.5q24 28.5 55.5 42.5q31.5 14 67.5 14q29 0 52 -11.5q23 -11.5 34 -34.5l7 42h90l-41 -226q-5 -25 -6.5 -37.5q-1.5 -12.5 -1.5 -20.5q0 -15 6.5 -23.5q6.5 -8.5 23.5 -8.5q18 0 37 11.5q19 11.5 35 34.5q16 23 26 58q10 35 10 82q0 61 -18 109.5q-18 48.5 -50.5 82.5q-32.5 34 -78.5 52q-46 18 -101 18q-58 0 -109.5 -23.5q-51.5 -23.5 -90.5 -66q-39 -42.5 -61.5 -103q-22.5 -60.5 -22.5 -134.5q0 -81 20 -142.5q20 -61.5 57 -102.5q37 -41 89.5 -61.5q52.5 -20.5 117.5 -20.5q60 0 96 11.5q36 11.5 60 23.5l0 -88q-21 -9 -64.5 -17q-43.5 -8 -91.5 -8zt0 0zM375 144q32 0 56 44q24 44 24 118q0 33 -13.5 56.5q-13.5 23.5 -36.5 23.5q-42 0 -64.5 -40q-22.5 -40 -22.5 -106q0 -46 15.5 -71t41.5 -25z" />
<glyph unicode="&#65;" horiz-adv-x="580" d="M380 261l-91 309h-2l-91 -309zM235 700h110l225 -700h-106l-57 177h-238l-57 -177l-102 0z" />
<glyph unicode="&#66;" horiz-adv-x="540" d="M364 511q0 48 -28 75.5q-28 27.5 -76 27.5h-80v-206h80q48 0 76 27.5q28 27.5 28 75.5zt0 0zM384 206q0 116 -124 116h-80v-236h80q124 0 124 120zt0 0zM80 700h180q109 0 159.5 -46.5q50.5 -46.5 50.5 -132.5q0 -57 -30 -94.5q-30 -37.5 -70 -52.5l0 -2q20 -6 41 -17.5q21 -11.5 38.5 -32q17.5 -20.5 29 -51q11.5 -30.5 11.5 -75.5q0 -95 -55 -145.5q-55 -50.5 -175 -50.5l-180 0z" />
<glyph unicode="&#67;" horiz-adv-x="520" d="M355 -8q-71 0 -128.5 22.5q-57.5 22.5 -98 67.5q-40.5 45 -62 112q-21.5 67 -21.5 156q0 89 21.5 156q21.5 67 61.5 112q40 45 96.5 67.5q56.5 22.5 125.5 22.5q50 0 85.5 -8.5q35.5 -8.5 59.5 -16.5l0 -98q-38 19 -72.5 27q-34.5 8 -72.5 8q-45 0 -81.5 -15.5q-36.5 -15.5 -62.5 -48.5q-26 -33 -40.5 -84q-14.5 -51 -14.5 -122q0 -71 14.5 -122q14.5 -51 41 -84q26.5 -33 64 -48.5q37.5 -15.5 84.5 -15.5q42 0 74 8q32 8 66 27l0 -98q-23 -9 -60.5 -17t-79.5 -8z" />
<glyph unicode="&#68;" horiz-adv-x="605" d="M80 700h160q155 0 237.5 -84.5q82.5 -84.5 82.5 -249.5q0 -188 -83 -277q-83 -89 -237 -89h-160zM454 366q0 130 -55 189q-55 59 -159 59h-60v-528h60q52 0 92 15q40 15 67 48q27 33 41 86.5t14 130.5z" />
<glyph unicode="&#69;" horiz-adv-x="485" d="M80 700h340v-86h-240v-206h225v-86h-225v-236h250v-86l-350 0z" />
<glyph unicode="&#70;" horiz-adv-x="450" d="M80 700h330v-86h-230v-211h210v-86h-210v-317l-100 0z" />
<glyph unicode="&#71;" horiz-adv-x="622" d="M375 -8q-75 0 -136 24q-61 24 -104 69.5q-43 45.5 -66.5 112q-23.5 66.5 -23.5 152.5q0 85 23.5 152q23.5 67 65.5 112.5q42 45.5 101 69.5q59 24 130 24q51 0 92.5 -9q41.5 -9 75.5 -23l0 -98q-23 11 -42.5 19.5q-19.5 8.5 -39.5 14.5q-20 6 -41 9q-21 3 -45 3q-47 0 -86 -17q-39 -17 -67.5 -51q-28.5 -34 -44.5 -85.5q-16 -51.5 -16 -120.5q0 -69 16 -120.5q16 -51.5 45.5 -85.5q29.5 -34 71 -51q41.5 -17 91.5 -17q27 0 48.5 4q21.5 4 38.5 9l0 214h-120v82h210v-360q-43 -16 -86 -24.5t-91 -8.5z" />
<glyph unicode="&#72;" horiz-adv-x="600" d="M80 700h100v-292h240v292h100v-700h-100v322h-240v-322l-100 0z" />
<glyph unicode="&#73;" horiz-adv-x="280" d="M90 700h100v-700l-100 0z" />
<glyph unicode="&#74;" horiz-adv-x="345" d="M110 -8q-20 0 -43.5 2.5q-23.5 2.5 -46.5 10.5l0 94q15 -8 34 -13.5q19 -5.5 36 -5.5q30 0 50 25q20 25 20 85v510h100v-510q0 -104 -41.5 -151t-108.5 -47z" />
<glyph unicode="&#75;" horiz-adv-x="550" d="M80 700h100v-292h5l213 292h122l-250 -335l270 -365h-124l-231 322h-5v-322l-100 0z" />
<glyph unicode="&#76;" horiz-adv-x="430" d="M80 700h100v-614h230v-86l-330 0z" />
<glyph unicode="&#77;" horiz-adv-x="760" d="M80 700h140l162 -410l160 410h138v-700h-100v566h-2l-143 -368h-110l-143 368h-2v-566l-100 0z" />
<glyph unicode="&#78;" horiz-adv-x="630" d="M80 700h145l223 -560h2v560h100v-700h-145l-223 560h-2v-560l-100 0z" />
<glyph unicode="&#79;" horiz-adv-x="620" d="M310 80q32 0 61 14.5q29 14.5 50.5 47q21.5 32.5 34.5 83.5q13 51 13 125q0 73 -13 124.5q-13 51.5 -34.5 84q-21.5 32.5 -50.5 47q-29 14.5 -61 14.5q-32 0 -61 -14.5q-29 -14.5 -50.5 -47q-21.5 -32.5 -34.5 -84q-13 -51.5 -13 -124.5q0 -74 13 -125q13 -51 34.5 -83.5q21.5 -32.5 50.5 -47q29 -14.5 61 -14.5zt0 0zM310 -8q-56 0 -104.5 22q-48.5 22 -84 66q-35.5 44 -56 111.5q-20.5 67.5 -20.5 158.5q0 91 20.5 158.5q20.5 67.5 56 111.5q35.5 44 84 66q48.5 22 104.5 22q56 0 104.5 -22q48.5 -22 84 -66q35.5 -44 56 -111.5q20.5 -67.5 20.5 -158.5q0 -91 -20.5 -158.5q-20.5 -67.5 -56 -111.5q-35.5 -44 -84 -66t-104.5 -22z" />
<glyph unicode="&#80;" horiz-adv-x="490" d="M365 482q0 69 -30.5 100.5q-30.5 31.5 -94.5 31.5h-60v-268h60q64 0 94.5 32q30.5 32 30.5 104zt0 0zM80 700h160q113 0 171.5 -57q58.5 -57 58.5 -163q0 -106 -58.5 -163q-58.5 -57 -171.5 -57h-60v-260l-100 0z" />
<glyph unicode="&#81;" horiz-adv-x="620" d="M343 -6q-8 -1 -16.5 -1.5q-8.5 -0.5 -16.5 -0.5q-56 0 -104.5 22q-48.5 22 -84 66q-35.5 44 -56 111.5q-20.5 67.5 -20.5 158.5q0 91 20.5 158.5q20.5 67.5 56 111.5q35.5 44 84 66q48.5 22 104.5 22q56 0 104.5 -22q48.5 -22 84 -66q35.5 -44 56 -111.5q20.5 -67.5 20.5 -158.5q0 -128 -38.5 -208q-38.5 -80 -101.5 -118l130 -164h-116zM310 80q32 0 61 14.5q29 14.5 50.5 47q21.5 32.5 34.5 83.5q13 51 13 125q0 73 -13 124.5q-13 51.5 -34.5 84q-21.5 32.5 -50.5 47q-29 14.5 -61 14.5q-32 0 -61 -14.5q-29 -14.5 -50.5 -47q-21.5 -32.5 -34.5 -84q-13 -51.5 -13 -124.5q0 -74 13 -125q13 -51 34.5 -83.5q21.5 -32.5 50.5 -47t61 -14.5z" />
<glyph unicode="&#82;" horiz-adv-x="530" d="M80 700h160q113 0 171.5 -57q58.5 -57 58.5 -163q0 -142 -103 -194l133 -286h-108l-114 262q-9 -2 -18.5 -2q-9.5 0 -19.5 0h-60v-260h-100zM365 482q0 69 -30.5 100.5q-30.5 31.5 -94.5 31.5h-60v-268h60q64 0 94.5 32t30.5 104z" />
<glyph unicode="&#83;" horiz-adv-x="470" d="M220 -8q-46 0 -93 12q-47 12 -82 29l0 98q33 -17 74.5 -34q41.5 -17 100.5 -17q45 0 72 29q27 29 27 81q0 29 -16 57q-16 28 -61 54l-64 37q-73 42 -103 90.5q-30 48.5 -30 106.5q0 85 52.5 129q52.5 44 152.5 44q36 0 65 -6.5q29 -6.5 70 -22.5l0 -98q-45 23 -77 31q-32 8 -58 8q-50 0 -74.5 -22q-24.5 -22 -24.5 -63q0 -30 12.5 -54q12.5 -24 50.5 -47l89 -53q69 -42 95.5 -87.5q26.5 -45.5 26.5 -103.5q0 -98 -51 -148t-154 -50z" />
<glyph unicode="&#84;" horiz-adv-x="460" d="M180 614h-165v86h430v-86h-165v-614l-100 0z" />
<glyph unicode="&#85;" horiz-adv-x="590" d="M296 -8q-106 0 -163.5 60.5q-57.5 60.5 -57.5 187.5v460h100v-460q0 -90 30 -125q30 -35 91 -35q59 0 89 35q30 35 30 125v460h100v-460q0 -127 -57 -187.5t-162 -60.5z" />
<glyph unicode="&#86;" horiz-adv-x="560" d="M15 700h104l161 -570h2l161 570h102l-210 -700l-110 0z" />
<glyph unicode="&#87;" horiz-adv-x="810" d="M15 700h100l112 -570h2l116 570h120l119 -570h2l113 570h96l-150 -700h-120l-121 580h-2l-117 -580l-120 0z" />
<glyph unicode="&#88;" horiz-adv-x="546" d="M219 366l-189 334h108l135 -249l137 249h106l-190 -332l210 -368h-108l-156 283l-156 -283l-106 0z" />
<glyph unicode="&#89;" horiz-adv-x="520" d="M210 290l-200 410h104l148 -315l148 315h100l-200 -410v-290l-100 0z" />
<glyph unicode="&#90;" horiz-adv-x="480" d="M40 96l302 518h-292v86h390v-96l-302 -518h302v-86l-400 0z" />
<glyph unicode="&#91;" horiz-adv-x="290" d="M80 750h180v-86h-80v-718h80v-86l-180 0z" />
<glyph unicode="&#92;" horiz-adv-x="350" d="M0 700h102l248 -700l-102 0z" />
<glyph unicode="&#93;" horiz-adv-x="290" d="M30 -54h80v718h-80v86h180v-890l-180 0z" />
<glyph unicode="&#94;" horiz-adv-x="500" d="M195 700h110l175 -350h-104l-126 260l-126 -260l-104 0z" />
<glyph unicode="&#95;" horiz-adv-x="500" d="M0 -75h500v-50l-500 0z" />
<glyph unicode="&#96;" horiz-adv-x="210" d="M20 725h108l62 -150l-74 0z" />
<glyph unicode="&#97;" horiz-adv-x="470" d="M180 -8q-72 0 -111 39q-39 39 -39 109q0 42 14 75q14 33 45 55q31 22 80.5 33.5q49.5 11.5 120.5 11.5h26v22q0 59 -19.5 81q-19.5 22 -61.5 22q-23 0 -41.5 -3q-18.5 -3 -36 -9q-17.5 -6 -36.5 -16q-19 -10 -41 -24l0 88q26 14 65 28q39 14 90 14q94 0 134.5 -41q40.5 -41 40.5 -137v-340h-90v71h-2q-21 -35 -53 -57q-32 -22 -85 -22zt0 0zM200 70q50 0 83 35q33 35 33 95v45h-26q-90 0 -125 -28q-35 -28 -35 -77q0 -70 70 -70z" />
<glyph unicode="&#98;" horiz-adv-x="510" d="M285 -8q-45 0 -77.5 20q-32.5 20 -55.5 58l-2 0v-70h-90v750h94v-305h2q20 31 53.5 52q33.5 21 75.5 21q41 0 75 -14.5q34 -14.5 58.5 -46.5q24.5 -32 38 -82q13.5 -50 13.5 -120q0 -71 -13.5 -120.5q-13.5 -49.5 -38 -81.5q-24.5 -32 -58.5 -46.5q-34 -14.5 -75 -14.5zt0 0zM267 70q22 0 40.5 9q18.5 9 32.5 31q14 22 22 57q8 35 8 88q0 52 -8 87.5q-8 35.5 -22 57.5q-14 22 -32.5 31q-18.5 9 -40.5 9q-22 0 -42.5 -10.5q-20.5 -10.5 -36 -33q-15.5 -22.5 -25 -57.5q-9.5 -35 -9.5 -84q0 -49 9.5 -84q9.5 -35 25 -57.5q15.5 -22.5 36 -33t42.5 -10.5z" />
<glyph unicode="&#99;" horiz-adv-x="405" d="M285 -8q-117 0 -181 66q-64 66 -64 197q0 131 64 197q64 66 180 66q35 0 59.5 -6.5q24.5 -6.5 41.5 -13.5l0 -88q-20 12 -43 21q-23 9 -56 9q-69 0 -107.5 -43.5q-38.5 -43.5 -38.5 -141.5q0 -98 38.5 -141.5q38.5 -43.5 106.5 -43.5q34 0 60 10q26 10 40 20l0 -88q-14 -8 -40 -14t-60 -6z" />
<glyph unicode="&#100;" horiz-adv-x="510" d="M225 -8q-41 0 -75 14.5q-34 14.5 -58.5 46.5q-24.5 32 -38 81.5q-13.5 49.5 -13.5 120.5q0 69 14 118.5q14 49.5 39.5 81.5q25.5 32 60.5 47.5q35 15.5 76 15.5q39 0 72 -20.5q33 -20.5 52 -52.5l2 0v305h94v-750h-90v70h-2q-23 -38 -55 -58q-32 -20 -78 -20zt0 0zM243 70q22 0 42 10.5q20 10.5 36 33q16 22.5 25.5 57.5q9.5 35 9.5 84q0 49 -9.5 84q-9.5 35 -24.5 57.5q-15 22.5 -34.5 33q-19.5 10.5 -39.5 10.5q-22 0 -41.5 -10q-19.5 -10 -34.5 -32q-15 -22 -23.5 -57q-8.5 -35 -8.5 -86q0 -53 8 -88q8 -35 22 -57q14 -22 32.5 -31t40.5 -9z" />
<glyph unicode="&#101;" horiz-adv-x="470" d="M260 -8q-104 0 -162 63q-58 63 -58 200q0 69 14.5 118.5q14.5 49.5 40.5 81.5q26 32 63 47.5q37 15.5 82 15.5q43 0 78 -15q35 -15 60 -47q25 -32 38.5 -81.5q13.5 -49.5 13.5 -119.5v-28h-293q4 -85 33.5 -121q29.5 -36 99.5 -36q48 0 81 13.5q33 13.5 49 24.5l0 -88q-23 -11 -56 -19.5q-33 -8.5 -84 -8.5zt0 0zM240 440q-20 0 -37.5 -6.5q-17.5 -6.5 -31 -22.5q-13.5 -16 -22.5 -42.5q-9 -26.5 -12 -65.5l196 0q-2 76 -27 106.5t-66 30.5z" />
<glyph unicode="&#102;" horiz-adv-x="310" d="M95 434h-85v76h85v110q0 74 31 106q31 32 99 32q25 0 45 -2.5q20 -2.5 40 -7.5l0 -80q-16 6 -33 9q-17 3 -31 3q-57 0 -57 -60v-110h100v-76h-100v-434l-94 0z" />
<glyph unicode="&#103;" horiz-adv-x="510" d="M220 -218q-38 0 -75 8q-37 8 -75 26l0 88q34 -18 67.5 -31q33.5 -13 82.5 -13q69 0 102.5 36.5q33.5 36.5 33.5 123.5v45h-2q-20 -31 -53.5 -52q-33.5 -21 -75.5 -21q-41 0 -75 14.5q-34 14.5 -58.5 46.5q-24.5 32 -38 81.5q-13.5 49.5 -13.5 120.5q0 69 14 118.5q14 49.5 39.5 81.5q25.5 32 60.5 47.5q35 15.5 76 15.5q45 0 75.5 -20q30.5 -20 53.5 -58l2 0v70h89v-490q0 -123 -56.5 -180.5q-56.5 -57.5 -173.5 -57.5zt0 0zM243 70q22 0 42 10.5q20 10.5 36 33q16 22.5 25.5 57.5q9.5 35 9.5 84q0 49 -8.5 84q-8.5 35 -23.5 57.5q-15 22.5 -34.5 33q-19.5 10.5 -41.5 10.5q-22 0 -41.5 -10q-19.5 -10 -34.5 -32q-15 -22 -23.5 -57q-8.5 -35 -8.5 -86q0 -53 8 -88q8 -35 22 -57q14 -22 32.5 -31t40.5 -9z" />
<glyph unicode="&#104;" horiz-adv-x="495" d="M60 750h94v-310h1q21 32 52.5 55q31.5 23 82.5 23q67 0 108.5 -46q41.5 -46 41.5 -142v-330h-94v310q0 69 -22 95.5q-22 26.5 -64 26.5q-21 0 -40 -9q-19 -9 -34 -25q-15 -16 -23.5 -38.5q-8.5 -22.5 -8.5 -49.5v-310l-94 0z" />
<glyph unicode="&#105;" horiz-adv-x="234" d="M70 510h94v-510h-94zM62 712h110v-104l-110 0z" />
<glyph unicode="&#106;" horiz-adv-x="234" d="M44 -218q-14 0 -30.5 2q-16.5 2 -31.5 5l0 78q9 -3 19 -5q10 -2 21 -2q25 0 36.5 15.5q11.5 15.5 11.5 64.5v570h94v-570q0 -44 -7.5 -74.5q-7.5 -30.5 -22.5 -49q-15 -18.5 -37.5 -26.5q-22.5 -8 -52.5 -8zt0 0zM62 712h110v-104l-110 0z" />
<glyph unicode="&#107;" horiz-adv-x="450" d="M60 750h94v-437h5l146 197h110l-176 -231l201 -279h-116l-165 237h-5v-237l-94 0z" />
<glyph unicode="&#108;" horiz-adv-x="254" d="M80 750h94v-750l-94 0z" />
<glyph unicode="&#109;" horiz-adv-x="735" d="M60 510h89v-70h1q21 32 52.5 55q31.5 23 74.5 23q42 0 73.5 -18.5q31.5 -18.5 48.5 -60.5q29 45 64 62q35 17 77 17q64 0 102 -44q38 -44 38 -144v-330h-94v310q0 36 -4.5 60q-4.5 24 -14 37.5q-9.5 13.5 -24 19q-14.5 5.5 -33.5 5.5q-38 0 -64.5 -30.5q-26.5 -30.5 -28.5 -86.5l0 -315h-94v310q0 36 -4.5 60q-4.5 24 -14 37.5q-9.5 13.5 -24 19q-14.5 5.5 -33.5 5.5q-38 0 -65.5 -32q-27.5 -32 -27.5 -90v-310l-94 0z" />
<glyph unicode="&#110;" horiz-adv-x="495" d="M60 510h90v-70h1q21 32 54.5 55q33.5 23 84.5 23q67 0 108.5 -46q41.5 -46 41.5 -142v-330h-94v310q0 69 -22 95.5q-22 26.5 -64 26.5q-21 0 -40 -9q-19 -9 -34 -25q-15 -16 -23.5 -38.5q-8.5 -22.5 -8.5 -49.5v-310l-94 0z" />
<glyph unicode="&#111;" horiz-adv-x="500" d="M251 70q24 0 44 9q20 9 34.5 31q14.5 22 22.5 57q8 35 8 88q0 52 -8 87.5q-8 35.5 -22.5 57.5q-14.5 22 -34.5 31q-20 9 -44 9q-25 0 -45.5 -9q-20.5 -9 -35 -31q-14.5 -22 -22.5 -57.5q-8 -35.5 -8 -87.5q0 -53 8 -88q8 -35 22.5 -57q14.5 -22 35 -31q20.5 -9 45.5 -9zt0 0zM251 -8q-47 0 -86 16q-39 16 -67 48.5q-28 32.5 -43 82q-15 49.5 -15 116.5q0 67 15 116.5q15 49.5 43 82q28 32.5 67 48.5q39 16 86 16q46 0 84.5 -16q38.5 -16 66.5 -48.5q28 -32.5 43 -82q15 -49.5 15 -116.5q0 -67 -15 -116.5q-15 -49.5 -43 -82q-28 -32.5 -66.5 -48.5t-84.5 -16z" />
<glyph unicode="&#112;" horiz-adv-x="510" d="M60 510h90v-70h2q23 38 57 58q34 20 76 20q41 0 75 -14.5q34 -14.5 58.5 -46.5q24.5 -32 38 -82q13.5 -50 13.5 -120q0 -69 -14 -118.5q-14 -49.5 -39.5 -81.5q-25.5 -32 -60.5 -47.5q-35 -15.5 -76 -15.5q-39 0 -72 19q-33 19 -52 54l-2 0v-275h-94zM262 70q22 0 41.5 10q19.5 10 34.5 32q15 22 23.5 57q8.5 35 8.5 86q0 52 -8 87.5q-8 35.5 -22 57.5q-14 22 -32.5 31q-18.5 9 -40.5 9q-22 0 -42.5 -10.5q-20.5 -10.5 -36 -33q-15.5 -22.5 -25 -57.5q-9.5 -35 -9.5 -84q0 -49 9.5 -84q9.5 -35 24.5 -57.5q15 -22.5 34.5 -33t39.5 -10.5z" />
<glyph unicode="&#113;" horiz-adv-x="510" d="M356 65h-2q-20 -31 -53.5 -52q-33.5 -21 -75.5 -21q-41 0 -75 14.5q-34 14.5 -58.5 46.5q-24.5 32 -38 81.5q-13.5 49.5 -13.5 120.5q0 69 14 118.5q14 49.5 39.5 81.5q25.5 32 60.5 47.5q35 15.5 76 15.5q45 0 75 -20q30 -20 53 -58l2 0v70h89l1 -720h-94zM243 70q22 0 42 10.5q20 10.5 36 33q16 22.5 25.5 57.5q9.5 35 9.5 84q0 49 -8.5 84q-8.5 35 -23.5 57.5q-15 22.5 -34.5 33q-19.5 10.5 -41.5 10.5q-22 0 -41.5 -10q-19.5 -10 -34.5 -32q-15 -22 -23.5 -57q-8.5 -35 -8.5 -86q0 -53 8 -88q8 -35 22 -57q14 -22 32.5 -31t40.5 -9z" />
<glyph unicode="&#114;" horiz-adv-x="310" d="M60 510h94v-70h1q14 32 40 55q26 23 75 23q12 0 20 -2l0 -88q-12 4 -30 4q-21 0 -40 -9q-19 -9 -34 -25q-15 -16 -23.5 -38.5q-8.5 -22.5 -8.5 -49.5v-310l-94 0z" />
<glyph unicode="&#115;" horiz-adv-x="390" d="M185 -8q-86 0 -145 28l0 88q35 -20 67.5 -29q32.5 -9 77.5 -9q65 0 65 55q0 9 -2 18q-2 9 -10 20q-8 11 -26 25q-18 14 -49 33q-30 18 -53 35.5q-23 17.5 -38.5 36q-15.5 18.5 -23.5 39.5q-8 21 -8 48q0 29 11 54.5q11 25.5 32 44q21 18.5 52 29q31 10.5 70 10.5q46 0 74.5 -6.5q28.5 -6.5 40.5 -11.5l0 -88q-32 17 -56.5 22.5q-24.5 5.5 -58.5 5.5q-30 0 -47.5 -17q-17.5 -17 -17.5 -43q0 -26 20 -48.5q20 -22.5 64 -45.5q40 -21 64.5 -39.5q24.5 -18.5 38 -37q13.5 -18.5 18.5 -39q5 -20.5 5 -45.5q0 -66 -42 -99.5t-123 -33.5z" />
<glyph unicode="&#116;" horiz-adv-x="320" d="M230 -8q-33 0 -56.5 8q-23.5 8 -38.5 26q-15 18 -22.5 48.5q-7.5 30.5 -7.5 75.5v284h-85v76h85v110l94 30v-140h100v-76h-100v-284q0 -46 13 -63q13 -17 38 -17q12 0 27 3.5q15 3.5 23 7.5l0 -80q-17 -5 -33.5 -7t-36.5 -2z" />
<glyph unicode="&#117;" horiz-adv-x="485" d="M200 -8q-64 0 -104.5 46q-40.5 46 -40.5 142v330h94v-310q0 -69 21.5 -95.5q21.5 -26.5 59.5 -26.5q19 0 37 9q18 9 32.5 25q14.5 16 23 38.5q8.5 22.5 8.5 49.5v310h94v-510h-90v70h-1q-21 -32 -54 -55t-80 -23z" />
<glyph unicode="&#118;" horiz-adv-x="440" d="M10 510h98l112 -410h2l112 410h96l-155 -510l-110 0z" />
<glyph unicode="&#119;" horiz-adv-x="690" d="M10 510h100l83 -390h2l95 390h110l99 -390h2l83 390h96l-125 -510h-110l-98 400h-2l-100 -400l-110 0z" />
<glyph unicode="&#120;" horiz-adv-x="430" d="M214 185l-106 -185h-98l150 263l-140 247h100l96 -167l96 167h98l-140 -245l150 -265l-100 0z" />
<glyph unicode="&#121;" horiz-adv-x="440" d="M100 -218q-20 0 -34 2q-14 2 -26 7l0 80q13 -7 24.5 -9q11.5 -2 25.5 -2q23 0 39.5 15.5q16.5 15.5 32.5 66.5l14 46l-166 522h98l115 -390h2l109 390h96l-179 -587q-11 -36 -23.5 -63q-12.5 -27 -29.5 -44q-17 -17 -40.5 -25.5t-57.5 -8.5z" />
<glyph unicode="&#122;" horiz-adv-x="390" d="M30 86l240 348h-230v76h320v-86l-240 -348h240v-76l-330 0z" />
<glyph unicode="&#123;" horiz-adv-x="300" d="M216 -140q-54 0 -85 31.5q-31 31.5 -31 88.5v185q0 45 -21 68.5q-21 23.5 -59 31.5l0 80q38 8 59 31q21 23 21 67v187q0 57 31 88.5q31 31.5 85 31.5h64v-86h-30q-50 0 -50 -50v-189q0 -34 -8 -55.5q-8 -21.5 -19 -34.5q-11 -13 -23 -19.5q-12 -6.5 -20 -9.5l0 -2q8 -3 20 -9.5q12 -6.5 23 -19.5q11 -13 19 -34.5q8 -21.5 8 -55.5v-189q0 -50 50 -50h30v-86l-64 0z" />
<glyph unicode="&#124;" horiz-adv-x="300" d="M105 750h90v-890l-90 0z" />
<glyph unicode="&#125;" horiz-adv-x="300" d="M20 -54h30q50 0 50 50v189q0 34 8 55.5q8 21.5 19 34.5q11 13 23 19.5q12 6.5 20 9.5l0 2q-8 3 -20 9.5q-12 6.5 -23 19.5q-11 13 -19 34.5q-8 21.5 -8 55.5v189q0 50 -50 50h-30v86h64q54 0 85 -31.5q31 -31.5 31 -88.5v-185q0 -45 21 -68.5q21 -23.5 59 -31.5l0 -80q-38 -8 -59 -31q-21 -23 -21 -67v-187q0 -57 -31 -88.5q-31 -31.5 -85 -31.5l-64 0z" />
<glyph unicode="&#126;" horiz-adv-x="500" d="M35 338q7 16 19.5 31.5q12.5 15.5 29 28q16.5 12.5 37 20.5q20.5 8 44.5 8q24 0 47.5 -10q23.5 -10 45 -22q21.5 -12 41 -22q19.5 -10 36.5 -10q26 0 48.5 14.5q22.5 14.5 41.5 49.5l40 -64q-8 -16 -20 -31.5q-12 -15.5 -28.5 -28q-16.5 -12.5 -37 -20.5q-20.5 -8 -44.5 -8q-24 0 -47.5 10q-23.5 10 -45 22q-21.5 12 -41 22q-19.5 10 -36.5 10q-26 0 -48.5 -14.5q-22.5 -14.5 -41.5 -49.5z" />
<glyph unicode="&#160;" horiz-adv-x="233" />
<glyph unicode="&#161;" horiz-adv-x="310" d="M116 323h79l12 -513h-104zM100 510h110v-110l-110 0z" />
<glyph unicode="&#162;" horiz-adv-x="500" d="M253 0q-84 18 -128.5 82q-44.5 64 -44.5 173q0 109 44.5 173q44.5 64 128.5 83l0 99h94v-93q26 -2 45 -8q19 -6 33 -11l0 -88q-20 12 -43 21q-23 9 -56 9q-69 0 -107.5 -43.5q-38.5 -43.5 -38.5 -141.5q0 -98 38.5 -141.5q38.5 -43.5 106.5 -43.5q34 0 60 10q26 10 40 20l0 -88q-11 -7 -31.5 -12q-20.5 -5 -46.5 -7l0 -93l-94 0z" />
<glyph unicode="&#163;" horiz-adv-x="500" d="M55 86h66v241h-66v66h66v87q0 122 50 175q50 53 154 53q32 0 60.5 -6q28.5 -6 59.5 -15l0 -98q-36 18 -63.5 24.5q-27.5 6.5 -56.5 6.5q-48 0 -76 -32.5q-28 -32.5 -28 -107.5v-87h150v-66h-150v-241h224v-86l-390 0z" />
<glyph unicode="&#164;" horiz-adv-x="500" d="M20 171l54 54q-19 26 -29 58q-10 32 -10 67q0 35 10 66.5q10 31.5 29 57.5l-54 55l51 51l54 -55q26 19 58 29.5q32 10.5 67 10.5q35 0 66.5 -10.5q31.5 -10.5 57.5 -29.5l55 55l51 -51l-55 -55q19 -26 29.5 -57.5q10.5 -31.5 10.5 -66.5q0 -35 -10.5 -67q-10.5 -32 -29.5 -58l55 -54l-51 -51l-55 54q-26 -19 -57.5 -29q-31.5 -10 -66.5 -10q-35 0 -67 10q-32 10 -58 29l-54 -54zM250 221q27 0 50.5 10q23.5 10 41 27.5q17.5 17.5 27.5 41q10 23.5 10 50.5q0 27 -10 50.5q-10 23.5 -27.5 41q-17.5 17.5 -41 27.5q-23.5 10 -50.5 10q-27 0 -50.5 -10q-23.5 -10 -41 -27.5q-17.5 -17.5 -27.5 -41q-10 -23.5 -10 -50.5q0 -27 10 -50.5q10 -23.5 27.5 -41q17.5 -17.5 41 -27.5t50.5 -10z" />
<glyph unicode="&#165;" horiz-adv-x="500" d="M200 157h-160v66h160v64h-160v66h131l-161 347h104l138 -325l138 325h100l-161 -347h131v-66h-160v-64h160v-66h-160v-157l-100 0z" />
<glyph unicode="&#166;" horiz-adv-x="300" d="M105 243h90v-383h-90zM105 750h90v-327l-90 0z" />
<glyph unicode="&#167;" horiz-adv-x="550" d="M270 -158q-57 0 -93.5 8q-36.5 8 -66.5 21l0 98q27 -14 62.5 -26.5q35.5 -12.5 87.5 -12.5q45 0 64.5 17q19.5 17 19.5 43q0 25 -19 46q-19 21 -47 41q-28 20 -61 40.5q-33 20.5 -61 44.5q-28 24 -47 52.5q-19 28.5 -19 65.5q0 42 20 80q20 38 53 73q-28 23 -45.5 54q-17.5 31 -17.5 73q0 66 44.5 107q44.5 41 135.5 41q50 0 85 -8q35 -8 65 -21l0 -98q-27 14 -61 26.5q-34 12.5 -79 12.5q-45 0 -64.5 -17q-19.5 -17 -19.5 -43q0 -25 19 -46q19 -21 47 -41q28 -20 61 -40.5q33 -20.5 61 -44.5q28 -24 47 -52.5q19 -28.5 19 -65.5q0 -42 -20 -80q-20 -38 -53 -73q27 -23 45 -54q18 -31 18 -73q0 -66 -44.5 -107q-44.5 -41 -135.5 -41zt0 0zM236 384q-22 -28 -34 -53.5q-12 -25.5 -12 -50.5q0 -19 10.5 -34q10.5 -15 28 -28.5q17.5 -13.5 39.5 -26q22 -12.5 46 -25.5q21 27 33.5 52.5q12.5 25.5 12.5 51.5q0 16 -10 31q-10 15 -26.5 29q-16.5 14 -39.5 27t-48 27z" />
<glyph unicode="&#168;" horiz-adv-x="300" d="M20 697h100v-94h-100zM180 697h100v-94l-100 0z" />
<glyph unicode="&#169;" horiz-adv-x="800" d="M400 -8q-75 0 -140.5 28q-65.5 28 -114 76.5q-48.5 48.5 -77 114q-28.5 65.5 -28.5 139.5q0 74 28.5 139.5q28.5 65.5 77 114q48.5 48.5 114 76.5q65.5 28 140.5 28q75 0 140.5 -28q65.5 -28 114 -76.5q48.5 -48.5 77 -114q28.5 -65.5 28.5 -139.5q0 -74 -28.5 -139.5q-28.5 -65.5 -77 -114q-48.5 -48.5 -114 -76.5q-65.5 -28 -140.5 -28zt0 0zM421 132q-91 0 -145.5 56.5q-54.5 56.5 -54.5 161.5q0 105 54 161.5q54 56.5 143 56.5q32 0 58 -6.5q26 -6.5 37 -11.5l0 -73q-11 6 -33.5 14.5q-22.5 8.5 -51.5 8.5q-60 0 -94.5 -37.5q-34.5 -37.5 -34.5 -112.5q0 -75 34.5 -112.5q34.5 -37.5 94.5 -37.5q28 0 50 6q22 6 35 16l0 -75q-11 -6 -37 -10.5q-26 -4.5 -55 -4.5zt0 0zM400 72q58 0 109 22q51 22 89 59.5q38 37.5 60 88.5q22 51 22 108q0 57 -22 108q-22 51 -60 88.5q-38 37.5 -89 59.5q-51 22 -109 22q-58 0 -109 -22q-51 -22 -89 -59.5q-38 -37.5 -60 -88.5q-22 -51 -22 -108q0 -57 22 -108q22 -51 60 -88.5q38 -37.5 89 -59.5t109 -22z" />
<glyph unicode="&#170;" horiz-adv-x="330" d="M130 391q-49 0 -74.5 24.5q-25.5 24.5 -25.5 64.5q0 47 37 77.5q37 30.5 123 30.5h40v17q0 20 -14.5 32q-14.5 12 -45.5 12q-33 0 -60 -9q-27 -9 -50 -26l0 64q18 10 45.5 18q27.5 8 74.5 8q60 0 90 -28q30 -28 30 -76v-205h-66v45h-3q-16 -23 -39.5 -36q-23.5 -13 -61.5 -13zt0 0zM150 445q38 0 59 21.5q21 21.5 21 63.5v8h-40q-43 0 -64.5 -15.5q-21.5 -15.5 -21.5 -37.5q0 -40 46 -40z" />
<glyph unicode="&#171;" horiz-adv-x="440" d="M40 300l105 210h85l-95 -210l95 -210h-85zM200 300l105 210h85l-95 -210l95 -210l-85 0z" />
<glyph unicode="&#172;" horiz-adv-x="500" d="M50 394h400v-274h-94v186l-306 0z" />
<glyph unicode="&#173;" horiz-adv-x="330" d="M40 338h250v-76l-250 0z" />
<glyph unicode="&#174;" horiz-adv-x="800" d="M400 -8q-75 0 -140.5 28q-65.5 28 -114 76.5q-48.5 48.5 -77 114q-28.5 65.5 -28.5 139.5q0 74 28.5 139.5q28.5 65.5 77 114q48.5 48.5 114 76.5q65.5 28 140.5 28q75 0 140.5 -28q65.5 -28 114 -76.5q48.5 -48.5 77 -114q28.5 -65.5 28.5 -139.5q0 -74 -28.5 -139.5q-28.5 -65.5 -77 -114q-48.5 -48.5 -114 -76.5q-65.5 -28 -140.5 -28zt0 0zM400 72q58 0 109 22q51 22 89 59.5q38 37.5 60 88.5q22 51 22 108q0 57 -22 108q-22 51 -60 88.5q-38 37.5 -89 59.5q-51 22 -109 22q-58 0 -109 -22q-51 -22 -89 -59.5q-38 -37.5 -60 -88.5q-22 -51 -22 -108q0 -57 22 -108q22 -51 60 -88.5q38 -37.5 89 -59.5q51 -22 109 -22zt0 0zM260 560h141q75 0 112 -34.5q37 -34.5 37 -96.5q0 -44 -18 -74q-18 -30 -55 -44l73 -171h-88l-59 158h-2h-65v-158h-76zM472 430q0 64 -71 64h-65v-130h65q71 0 71 66z" />
<glyph unicode="&#175;" horiz-adv-x="300" d="M20 687h260v-74l-260 0z" />
<glyph unicode="&#176;" horiz-adv-x="320" d="M160 448q-27 0 -50.5 10q-23.5 10 -41.5 28q-18 18 -28 41.5q-10 23.5 -10 50.5q0 27 10 50.5q10 23.5 28 41.5q18 18 41.5 28q23.5 10 50.5 10q27 0 50.5 -10q23.5 -10 41.5 -28q18 -18 28 -41.5q10 -23.5 10 -50.5q0 -27 -10 -50.5q-10 -23.5 -28 -41.5q-18 -18 -41.5 -28q-23.5 -10 -50.5 -10zt0 0zM160 512q27 0 46.5 19.5q19.5 19.5 19.5 46.5q0 27 -19.5 46.5q-19.5 19.5 -46.5 19.5q-27 0 -46.5 -19.5q-19.5 -19.5 -19.5 -46.5q0 -27 19.5 -46.5t46.5 -19.5z" />
<glyph unicode="&#177;" horiz-adv-x="500" d="M50 179h400v-88h-400zM203 401h-153v88h153v161h94v-161h153v-88h-153v-161l-94 0z" />
<glyph unicode="&#178;" horiz-adv-x="350" d="M50 340q46 51 78 89q32 38 51.5 66.5q19.5 28.5 28 49q8.5 20.5 8.5 35.5q0 23 -14.5 36.5q-14.5 13.5 -41.5 13.5q-27 0 -52.5 -6.5q-25.5 -6.5 -47.5 -21.5l0 84q23 11 49.5 14.5q26.5 3.5 50.5 3.5q75 0 107.5 -29q32.5 -29 32.5 -85q0 -51 -39.5 -108q-39.5 -57 -105.5 -132l145 0v-70l-250 0z" />
<glyph unicode="&#179;" horiz-adv-x="350" d="M40 368q9 -3 31.5 -12.5q22.5 -9.5 68.5 -9.5q50 0 68 14.5q18 14.5 18 42.5q0 28 -18.5 42.5q-18.5 14.5 -69.5 14.5h-48v70h48q44 0 61 14q17 14 17 38q0 24 -16 37.5q-16 13.5 -51 13.5q-47 0 -89 -17l0 73q22 8 43.5 11.5q21.5 3.5 59.5 3.5q73 0 105 -29q32 -29 32 -85q0 -35 -20 -56.5q-20 -21.5 -50 -29.5l0 -2q38 -9 59 -33.5q21 -24.5 21 -73.5q0 -51 -38 -85q-38 -34 -113 -34q-28 0 -46 1.5q-18 1.5 -31 4.5q-13 3 -22.5 6.5q-9.5 3.5 -19.5 7.5z" />
<glyph unicode="&#180;" horiz-adv-x="210" d="M82 725h108l-96 -150l-74 0z" />
<glyph unicode="&#181;" horiz-adv-x="490" d="M60 510h94v-310q0 -69 21.5 -95.5q21.5 -26.5 59.5 -26.5q19 0 37 9q18 9 32.5 25q14.5 16 23 38.5q8.5 22.5 8.5 49.5v310h94v-510h-90v70h-1q-21 -32 -54 -55q-33 -23 -80 -23q-27 0 -51 8l0 -210l-94 0z" />
<glyph unicode="&#182;" horiz-adv-x="570" d="M396 624h-97v-764h-94v470q-38 0 -72 14.5q-34 14.5 -59 39.5q-25 25 -39.5 59q-14.5 34 -14.5 72q0 38 14.5 72q14.5 34 39.5 59q25 25 59 39.5q34 14.5 72 14.5h285v-840l-94 0z" />
<glyph unicode="&#183;" horiz-adv-x="260" d="M70 360h120v-120l-120 0z" />
<glyph unicode="&#184;" horiz-adv-x="240" d="M115 -218q-34 0 -57 8.5q-23 8.5 -38 20.5l25 57q25 -20 55 -20q36 0 36 32q0 14 -9.5 22q-9.5 8 -31.5 8q-9 0 -16 -1.5q-7 -1.5 -14 -3.5l25 95h60l-11 -42q14 -1 28.5 -6q14.5 -5 26 -15q11.5 -10 19 -24q7.5 -14 7.5 -33q0 -47 -26.5 -72.5t-78.5 -25.5z" />
<glyph unicode="&#185;" horiz-adv-x="350" d="M170 617l-76 -70l-44 53l115 100h85v-420l-80 0z" />
<glyph unicode="&#186;" horiz-adv-x="350" d="M175 456q32 0 51.5 22q19.5 22 19.5 70q0 48 -19.5 70q-19.5 22 -51.5 22q-32 0 -51.5 -22q-19.5 -22 -19.5 -70q0 -48 19.5 -70q19.5 -22 51.5 -22zt0 0zM175 392q-68 0 -106.5 40q-38.5 40 -38.5 116q0 76 38.5 116q38.5 40 106.5 40q68 0 106.5 -40q38.5 -40 38.5 -116q0 -76 -38.5 -116t-106.5 -40z" />
<glyph unicode="&#187;" horiz-adv-x="440" d="M135 300l-95 210h85l105 -210l-105 -210h-85zM295 300l-95 210h85l105 -210l-105 -210l-85 0z" />
<glyph unicode="&#188;" horiz-adv-x="800" d="M150 617l-76 -70l-44 53l115 100h85v-420h-80zM550 700h75l-376 -700h-74zM635 150v200h-2l-109 -200zM635 80h-185v71l150 269h115v-270h45v-70h-45v-80l-80 0z" />
<glyph unicode="&#189;" horiz-adv-x="800" d="M150 617l-76 -70l-44 53l115 100h85v-420h-80zM540 700h75l-376 -700h-74zM510 60q46 51 78 89q32 38 51.5 66.5q19.5 28.5 28 49q8.5 20.5 8.5 35.5q0 23 -14.5 36.5q-14.5 13.5 -41.5 13.5q-27 0 -52.5 -6.5q-25.5 -6.5 -47.5 -21.5l0 84q23 11 49.5 14.5q26.5 3.5 50.5 3.5q75 0 107.5 -29q32.5 -29 32.5 -85q0 -51 -39.5 -108q-39.5 -57 -105.5 -132l145 0v-70l-250 0z" />
<glyph unicode="&#190;" horiz-adv-x="800" d="M30 368q9 -3 31.5 -12.5q22.5 -9.5 68.5 -9.5q50 0 68 14.5q18 14.5 18 42.5q0 28 -18.5 42.5q-18.5 14.5 -69.5 14.5h-48v70h48q44 0 61 14q17 14 17 38q0 24 -16 37.5q-16 13.5 -51 13.5q-47 0 -89 -17l0 73q22 8 43.5 11.5q21.5 3.5 59.5 3.5q73 0 105 -29q32 -29 32 -85q0 -35 -20 -56.5q-20 -21.5 -50 -29.5l0 -2q38 -9 59 -33.5q21 -24.5 21 -73.5q0 -51 -38 -85q-38 -34 -113 -34q-28 0 -46 1.5q-18 1.5 -31 4.5q-13 3 -22.5 6.5q-9.5 3.5 -19.5 7.5zM550 700h75l-376 -700h-74zM635 150v200h-2l-109 -200zM635 80h-185v71l150 269h115v-270h45v-70h-45v-80l-80 0z" />
<glyph unicode="&#191;" horiz-adv-x="420" d="M230 -198q-87 0 -133.5 46.5q-46.5 46.5 -46.5 131.5q0 49 20.5 86.5q20.5 37.5 45.5 73.5q25 36 45.5 73.5q20.5 37.5 20.5 86.5v20h96v-40q0 -49 -19.5 -85q-19.5 -36 -43.5 -70q-24 -34 -43.5 -70q-19.5 -36 -19.5 -85q0 -41 22 -62.5q22 -21.5 66 -21.5q38 0 70.5 10q32.5 10 59.5 25l0 -94q-8 -3 -22.5 -7.5q-14.5 -4.5 -33 -8.5q-18.5 -4 -40.5 -6.5q-22 -2.5 -44 -2.5zt0 0zM175 510h110v-110l-110 0z" />
<glyph unicode="&#192;" horiz-adv-x="580" d="M380 261l-91 309h-2l-91 -309zM235 700h110l225 -700h-106l-57 177h-238l-57 -177h-102zM147 895h108l72 -150l-74 0z" />
<glyph unicode="&#193;" horiz-adv-x="580" d="M380 261l-91 309h-2l-91 -309zM235 700h110l225 -700h-106l-57 177h-238l-57 -177h-102zM325 895h108l-106 -150l-74 0z" />
<glyph unicode="&#194;" horiz-adv-x="580" d="M380 261l-91 309h-2l-91 -309zM235 700h110l225 -700h-106l-57 177h-238l-57 -177h-102zM248 895h84l103 -150h-84l-63 93l-61 -93l-82 0z" />
<glyph unicode="&#195;" horiz-adv-x="580" d="M380 261l-91 309h-2l-91 -309zM235 700h110l225 -700h-106l-57 177h-238l-57 -177h-102zM140 765q0 53 26 81.5q26 28.5 64 28.5q21 0 37.5 -6q16.5 -6 31 -13q14.5 -7 28 -13q13.5 -6 28.5 -6q15 0 25 10.5q10 10.5 10 27.5l50 0q0 -53 -26 -81.5q-26 -28.5 -64 -28.5q-21 0 -37.5 6q-16.5 6 -31 13q-14.5 7 -28 13q-13.5 6 -28.5 6q-15 0 -25 -10.5q-10 -10.5 -10 -27.5l-50 0z" />
<glyph unicode="&#196;" horiz-adv-x="580" d="M380 261l-91 309h-2l-91 -309zM235 700h110l225 -700h-106l-57 177h-238l-57 -177h-102zM155 867h100v-94h-100zM325 867h100v-94l-100 0z" />
<glyph unicode="&#197;" horiz-adv-x="580" d="M380 261l-91 309h-2l-91 -309zM235 700h110l225 -700h-106l-57 177h-238l-57 -177h-102zM290 725q-24 0 -44.5 9q-20.5 9 -36.5 25q-16 16 -25 36.5q-9 20.5 -9 44.5q0 24 9 44.5q9 20.5 25 36.5q16 16 36.5 25q20.5 9 44.5 9q24 0 44.5 -9q20.5 -9 36.5 -25q16 -16 25 -36.5q9 -20.5 9 -44.5q0 -24 -9 -44.5q-9 -20.5 -25 -36.5q-16 -16 -36.5 -25q-20.5 -9 -44.5 -9zt0 0zM290 788q22 0 37 15q15 15 15 37q0 22 -15 37q-15 15 -37 15q-22 0 -37 -15q-15 -15 -15 -37q0 -22 15 -37t37 -15z" />
<glyph unicode="&#198;" horiz-adv-x="785" d="M314 700h406v-86h-240v-206h225v-86h-225v-236h250v-86h-350v177h-185l-73 -177h-112zM380 261v353h-4l-146 -353z" />
<glyph unicode="&#199;" horiz-adv-x="520" d="M355 -8q-71 0 -128.5 22.5q-57.5 22.5 -98 67.5q-40.5 45 -62 112q-21.5 67 -21.5 156q0 89 21.5 156q21.5 67 61.5 112q40 45 96.5 67.5q56.5 22.5 125.5 22.5q50 0 85.5 -8.5q35.5 -8.5 59.5 -16.5l0 -98q-38 19 -72.5 27q-34.5 8 -72.5 8q-45 0 -81.5 -15.5q-36.5 -15.5 -62.5 -48.5q-26 -33 -40.5 -84q-14.5 -51 -14.5 -122q0 -71 14.5 -122q14.5 -51 41 -84q26.5 -33 64 -48.5q37.5 -15.5 84.5 -15.5q42 0 74 8q32 8 66 27l0 -98q-23 -9 -60.5 -17q-37.5 -8 -79.5 -8zt0 0zM325 -218q-34 0 -57 8.5q-23 8.5 -38 20.5l25 57q25 -20 55 -20q36 0 36 32q0 14 -9.5 22q-9.5 8 -31.5 8q-9 0 -16 -1.5q-7 -1.5 -14 -3.5l25 95h60l-11 -42q14 -1 28.5 -6q14.5 -5 26 -15q11.5 -10 19 -24q7.5 -14 7.5 -33q0 -47 -26.5 -72.5t-78.5 -25.5z" />
<glyph unicode="&#200;" horiz-adv-x="485" d="M80 700h340v-86h-240v-206h225v-86h-225v-236h250v-86h-350zM107 895h108l72 -150l-74 0z" />
<glyph unicode="&#201;" horiz-adv-x="485" d="M80 700h340v-86h-240v-206h225v-86h-225v-236h250v-86h-350zM285 895h108l-106 -150l-74 0z" />
<glyph unicode="&#202;" horiz-adv-x="485" d="M80 700h340v-86h-240v-206h225v-86h-225v-236h250v-86h-350zM208 895h84l103 -150h-84l-63 93l-61 -93l-82 0z" />
<glyph unicode="&#203;" horiz-adv-x="485" d="M80 700h340v-86h-240v-206h225v-86h-225v-236h250v-86h-350zM115 867h100v-94h-100zM285 867h100v-94l-100 0z" />
<glyph unicode="&#204;" horiz-adv-x="280" d="M90 700h100v-700h-100zM-3 895h108l72 -150l-74 0z" />
<glyph unicode="&#205;" horiz-adv-x="280" d="M90 700h100v-700h-100zM175 895h108l-106 -150l-74 0z" />
<glyph unicode="&#206;" horiz-adv-x="280" d="M90 700h100v-700h-100zM98 895h84l103 -150h-84l-63 93l-61 -93l-82 0z" />
<glyph unicode="&#207;" horiz-adv-x="280" d="M90 700h100v-700h-100zM5 867h100v-94h-100zM175 867h100v-94l-100 0z" />
<glyph unicode="&#208;" horiz-adv-x="595" d="M70 313h-70v94h70v293h160q155 0 237.5 -84.5q82.5 -84.5 82.5 -249.5q0 -188 -83 -277q-83 -89 -237 -89h-160zM444 366q0 130 -55 189q-55 59 -159 59h-60v-207h150v-94h-150v-227h60q52 0 92 15q40 15 67 48q27 33 41 86.5t14 130.5z" />
<glyph unicode="&#209;" horiz-adv-x="630" d="M80 700h145l223 -560h2v560h100v-700h-145l-223 560h-2v-560h-100zM165 765q0 53 26 81.5q26 28.5 64 28.5q21 0 37.5 -6q16.5 -6 31 -13q14.5 -7 28 -13q13.5 -6 28.5 -6q15 0 25 10.5q10 10.5 10 27.5l50 0q0 -53 -26 -81.5q-26 -28.5 -64 -28.5q-21 0 -37.5 6q-16.5 6 -31 13q-14.5 7 -28 13q-13.5 6 -28.5 6q-15 0 -25 -10.5q-10 -10.5 -10 -27.5l-50 0z" />
<glyph unicode="&#210;" horiz-adv-x="620" d="M310 80q32 0 61 14.5q29 14.5 50.5 47q21.5 32.5 34.5 83.5q13 51 13 125q0 73 -13 124.5q-13 51.5 -34.5 84q-21.5 32.5 -50.5 47q-29 14.5 -61 14.5q-32 0 -61 -14.5q-29 -14.5 -50.5 -47q-21.5 -32.5 -34.5 -84q-13 -51.5 -13 -124.5q0 -74 13 -125q13 -51 34.5 -83.5q21.5 -32.5 50.5 -47q29 -14.5 61 -14.5zt0 0zM310 -8q-56 0 -104.5 22q-48.5 22 -84 66q-35.5 44 -56 111.5q-20.5 67.5 -20.5 158.5q0 91 20.5 158.5q20.5 67.5 56 111.5q35.5 44 84 66q48.5 22 104.5 22q56 0 104.5 -22q48.5 -22 84 -66q35.5 -44 56 -111.5q20.5 -67.5 20.5 -158.5q0 -91 -20.5 -158.5q-20.5 -67.5 -56 -111.5q-35.5 -44 -84 -66q-48.5 -22 -104.5 -22zt0 0zM167 895h108l72 -150l-74 0z" />
<glyph unicode="&#211;" horiz-adv-x="620" d="M310 80q32 0 61 14.5q29 14.5 50.5 47q21.5 32.5 34.5 83.5q13 51 13 125q0 73 -13 124.5q-13 51.5 -34.5 84q-21.5 32.5 -50.5 47q-29 14.5 -61 14.5q-32 0 -61 -14.5q-29 -14.5 -50.5 -47q-21.5 -32.5 -34.5 -84q-13 -51.5 -13 -124.5q0 -74 13 -125q13 -51 34.5 -83.5q21.5 -32.5 50.5 -47q29 -14.5 61 -14.5zt0 0zM310 -8q-56 0 -104.5 22q-48.5 22 -84 66q-35.5 44 -56 111.5q-20.5 67.5 -20.5 158.5q0 91 20.5 158.5q20.5 67.5 56 111.5q35.5 44 84 66q48.5 22 104.5 22q56 0 104.5 -22q48.5 -22 84 -66q35.5 -44 56 -111.5q20.5 -67.5 20.5 -158.5q0 -91 -20.5 -158.5q-20.5 -67.5 -56 -111.5q-35.5 -44 -84 -66q-48.5 -22 -104.5 -22zt0 0zM345 895h108l-106 -150l-74 0z" />
<glyph unicode="&#212;" horiz-adv-x="620" d="M310 80q32 0 61 14.5q29 14.5 50.5 47q21.5 32.5 34.5 83.5q13 51 13 125q0 73 -13 124.5q-13 51.5 -34.5 84q-21.5 32.5 -50.5 47q-29 14.5 -61 14.5q-32 0 -61 -14.5q-29 -14.5 -50.5 -47q-21.5 -32.5 -34.5 -84q-13 -51.5 -13 -124.5q0 -74 13 -125q13 -51 34.5 -83.5q21.5 -32.5 50.5 -47q29 -14.5 61 -14.5zt0 0zM310 -8q-56 0 -104.5 22q-48.5 22 -84 66q-35.5 44 -56 111.5q-20.5 67.5 -20.5 158.5q0 91 20.5 158.5q20.5 67.5 56 111.5q35.5 44 84 66q48.5 22 104.5 22q56 0 104.5 -22q48.5 -22 84 -66q35.5 -44 56 -111.5q20.5 -67.5 20.5 -158.5q0 -91 -20.5 -158.5q-20.5 -67.5 -56 -111.5q-35.5 -44 -84 -66q-48.5 -22 -104.5 -22zt0 0zM268 895h84l103 -150h-84l-63 93l-61 -93l-82 0z" />
<glyph unicode="&#213;" horiz-adv-x="620" d="M310 80q32 0 61 14.5q29 14.5 50.5 47q21.5 32.5 34.5 83.5q13 51 13 125q0 73 -13 124.5q-13 51.5 -34.5 84q-21.5 32.5 -50.5 47q-29 14.5 -61 14.5q-32 0 -61 -14.5q-29 -14.5 -50.5 -47q-21.5 -32.5 -34.5 -84q-13 -51.5 -13 -124.5q0 -74 13 -125q13 -51 34.5 -83.5q21.5 -32.5 50.5 -47q29 -14.5 61 -14.5zt0 0zM310 -8q-56 0 -104.5 22q-48.5 22 -84 66q-35.5 44 -56 111.5q-20.5 67.5 -20.5 158.5q0 91 20.5 158.5q20.5 67.5 56 111.5q35.5 44 84 66q48.5 22 104.5 22q56 0 104.5 -22q48.5 -22 84 -66q35.5 -44 56 -111.5q20.5 -67.5 20.5 -158.5q0 -91 -20.5 -158.5q-20.5 -67.5 -56 -111.5q-35.5 -44 -84 -66q-48.5 -22 -104.5 -22zt0 0zM160 765q0 53 26 81.5q26 28.5 64 28.5q21 0 37.5 -6q16.5 -6 31 -13q14.5 -7 28 -13q13.5 -6 28.5 -6q15 0 25 10.5q10 10.5 10 27.5l50 0q0 -53 -26 -81.5q-26 -28.5 -64 -28.5q-21 0 -37.5 6q-16.5 6 -31 13q-14.5 7 -28 13q-13.5 6 -28.5 6q-15 0 -25 -10.5q-10 -10.5 -10 -27.5l-50 0z" />
<glyph unicode="&#214;" horiz-adv-x="620" d="M310 80q32 0 61 14.5q29 14.5 50.5 47q21.5 32.5 34.5 83.5q13 51 13 125q0 73 -13 124.5q-13 51.5 -34.5 84q-21.5 32.5 -50.5 47q-29 14.5 -61 14.5q-32 0 -61 -14.5q-29 -14.5 -50.5 -47q-21.5 -32.5 -34.5 -84q-13 -51.5 -13 -124.5q0 -74 13 -125q13 -51 34.5 -83.5q21.5 -32.5 50.5 -47q29 -14.5 61 -14.5zt0 0zM310 -8q-56 0 -104.5 22q-48.5 22 -84 66q-35.5 44 -56 111.5q-20.5 67.5 -20.5 158.5q0 91 20.5 158.5q20.5 67.5 56 111.5q35.5 44 84 66q48.5 22 104.5 22q56 0 104.5 -22q48.5 -22 84 -66q35.5 -44 56 -111.5q20.5 -67.5 20.5 -158.5q0 -91 -20.5 -158.5q-20.5 -67.5 -56 -111.5q-35.5 -44 -84 -66q-48.5 -22 -104.5 -22zt0 0zM175 867h100v-94h-100zM345 867h100v-94l-100 0z" />
<glyph unicode="&#215;" horiz-adv-x="500" d="M70 233l115 115l-115 115l67 67l115 -115l115 115l63 -63l-115 -115l115 -115l-67 -67l-115 115l-115 -115z" />
<glyph unicode="&#216;" horiz-adv-x="620" d="M45 350q0 91 20.5 158.5q20.5 67.5 56 111.5q35.5 44 84 66q48.5 22 104.5 22q48 0 90 -16q42 -16 76 -48l50 72l49 -34l-59 -86q28 -44 43.5 -105q15.5 -61 15.5 -141q0 -91 -20.5 -158.5q-20.5 -67.5 -56 -111.5q-35.5 -44 -84 -66q-48.5 -22 -104.5 -22q-48 0 -90.5 16q-42.5 16 -76.5 48l-49 -72l-49 34l59 85q-29 45 -44 106q-15 61 -15 141zt0 0zM151 350q0 -47 5 -84q5 -37 15 -66l248 361q-22 31 -50 45q-28 14 -59 14q-32 0 -61 -14.5q-29 -14.5 -50.5 -47q-21.5 -32.5 -34.5 -84q-13 -51.5 -13 -124.5zt0 0zM469 350q0 46 -5.5 83q-5.5 37 -14.5 66l-249 -361q22 -31 50 -44.5q28 -13.5 60 -13.5q32 0 61 14.5q29 14.5 50.5 47q21.5 32.5 34.5 83.5t13 125z" />
<glyph unicode="&#217;" horiz-adv-x="590" d="M296 -8q-106 0 -163.5 60.5q-57.5 60.5 -57.5 187.5v460h100v-460q0 -90 30 -125q30 -35 91 -35q59 0 89 35q30 35 30 125v460h100v-460q0 -127 -57 -187.5q-57 -60.5 -162 -60.5zt0 0zM152 895h108l72 -150l-74 0z" />
<glyph unicode="&#218;" horiz-adv-x="590" d="M296 -8q-106 0 -163.5 60.5q-57.5 60.5 -57.5 187.5v460h100v-460q0 -90 30 -125q30 -35 91 -35q59 0 89 35q30 35 30 125v460h100v-460q0 -127 -57 -187.5q-57 -60.5 -162 -60.5zt0 0zM330 895h108l-106 -150l-74 0z" />
<glyph unicode="&#219;" horiz-adv-x="590" d="M296 -8q-106 0 -163.5 60.5q-57.5 60.5 -57.5 187.5v460h100v-460q0 -90 30 -125q30 -35 91 -35q59 0 89 35q30 35 30 125v460h100v-460q0 -127 -57 -187.5q-57 -60.5 -162 -60.5zt0 0zM253 895h84l103 -150h-84l-63 93l-61 -93l-82 0z" />
<glyph unicode="&#220;" horiz-adv-x="590" d="M296 -8q-106 0 -163.5 60.5q-57.5 60.5 -57.5 187.5v460h100v-460q0 -90 30 -125q30 -35 91 -35q59 0 89 35q30 35 30 125v460h100v-460q0 -127 -57 -187.5q-57 -60.5 -162 -60.5zt0 0zM160 867h100v-94h-100zM330 867h100v-94l-100 0z" />
<glyph unicode="&#221;" horiz-adv-x="520" d="M210 290l-200 410h104l148 -315l148 315h100l-200 -410v-290h-100zM297 895h108l-106 -150l-74 0z" />
<glyph unicode="&#222;" horiz-adv-x="501" d="M364 360q0 60 -29 89.5q-29 29.5 -85 29.5h-70v-238h70q56 0 85 29.5q29 29.5 29 89.5zt0 0zM80 700h100v-135h70q106 0 163 -55.5q57 -55.5 57 -149.5q0 -94 -57 -149.5q-57 -55.5 -163 -55.5h-70v-155l-100 0z" />
<glyph unicode="&#223;" horiz-adv-x="518" d="M277 -8q-15 0 -34 2q-19 2 -36 6l0 80q17 -6 36 -8q19 -2 34 -2q51 0 79 32.5q28 32.5 28 107.5q0 69 -41.5 110.5q-41.5 41.5 -112.5 41.5l0 76q57 0 89 33q32 33 32 99q0 57 -25.5 83.5q-25.5 26.5 -73.5 26.5q-39 0 -65.5 -31q-26.5 -31 -26.5 -99v-550h-90v550q0 104 48.5 156q48.5 52 133.5 52q94 0 144.5 -49.5q50.5 -49.5 50.5 -138.5q0 -41 -11.5 -71q-11.5 -30 -28.5 -50.5q-17 -20.5 -36 -32q-19 -11.5 -34 -15.5l0 -2q24 -4 49 -17q25 -13 46 -36.5q21 -23.5 34.5 -57q13.5 -33.5 13.5 -78.5q0 -108 -53 -163t-150 -55z" />
<glyph unicode="&#224;" horiz-adv-x="470" d="M180 -8q-72 0 -111 39q-39 39 -39 109q0 42 14 75q14 33 45 55q31 22 80.5 33.5q49.5 11.5 120.5 11.5h26v22q0 59 -19.5 81q-19.5 22 -61.5 22q-23 0 -41.5 -3q-18.5 -3 -36 -9q-17.5 -6 -36.5 -16q-19 -10 -41 -24l0 88q26 14 65 28q39 14 90 14q94 0 134.5 -41q40.5 -41 40.5 -137v-340h-90v71h-2q-21 -35 -53 -57q-32 -22 -85 -22zt0 0zM200 70q50 0 83 35q33 35 33 95v45h-26q-90 0 -125 -28q-35 -28 -35 -77q0 -70 70 -70zt0 0zM107 725h108l62 -150l-74 0z" />
<glyph unicode="&#225;" horiz-adv-x="470" d="M180 -8q-72 0 -111 39q-39 39 -39 109q0 42 14 75q14 33 45 55q31 22 80.5 33.5q49.5 11.5 120.5 11.5h26v22q0 59 -19.5 81q-19.5 22 -61.5 22q-23 0 -41.5 -3q-18.5 -3 -36 -9q-17.5 -6 -36.5 -16q-19 -10 -41 -24l0 88q26 14 65 28q39 14 90 14q94 0 134.5 -41q40.5 -41 40.5 -137v-340h-90v71h-2q-21 -35 -53 -57q-32 -22 -85 -22zt0 0zM200 70q50 0 83 35q33 35 33 95v45h-26q-90 0 -125 -28q-35 -28 -35 -77q0 -70 70 -70zt0 0zM265 725h108l-96 -150l-74 0z" />
<glyph unicode="&#226;" horiz-adv-x="470" d="M180 -8q-72 0 -111 39q-39 39 -39 109q0 42 14 75q14 33 45 55q31 22 80.5 33.5q49.5 11.5 120.5 11.5h26v22q0 59 -19.5 81q-19.5 22 -61.5 22q-23 0 -41.5 -3q-18.5 -3 -36 -9q-17.5 -6 -36.5 -16q-19 -10 -41 -24l0 88q26 14 65 28q39 14 90 14q94 0 134.5 -41q40.5 -41 40.5 -137v-340h-90v71h-2q-21 -35 -53 -57q-32 -22 -85 -22zt0 0zM200 70q50 0 83 35q33 35 33 95v45h-26q-90 0 -125 -28q-35 -28 -35 -77q0 -70 70 -70zt0 0zM200 725h80l100 -150h-82l-60 95l-58 -95l-80 0z" />
<glyph unicode="&#227;" horiz-adv-x="470" d="M180 -8q-72 0 -111 39q-39 39 -39 109q0 42 14 75q14 33 45 55q31 22 80.5 33.5q49.5 11.5 120.5 11.5h26v22q0 59 -19.5 81q-19.5 22 -61.5 22q-23 0 -41.5 -3q-18.5 -3 -36 -9q-17.5 -6 -36.5 -16q-19 -10 -41 -24l0 88q26 14 65 28q39 14 90 14q94 0 134.5 -41q40.5 -41 40.5 -137v-340h-90v71h-2q-21 -35 -53 -57q-32 -22 -85 -22zt0 0zM200 70q50 0 83 35q33 35 33 95v45h-26q-90 0 -125 -28q-35 -28 -35 -77q0 -70 70 -70zt0 0zM95 595q0 53 26 81.5q26 28.5 64 28.5q19 0 34.5 -6q15.5 -6 29 -13q13.5 -7 26 -13q12.5 -6 25.5 -6q15 0 25 10.5q10 10.5 10 27.5l50 0q0 -53 -26 -81.5q-26 -28.5 -64 -28.5q-19 0 -34.5 6q-15.5 6 -29 13q-13.5 7 -26 13q-12.5 6 -25.5 6q-15 0 -25 -10.5q-10 -10.5 -10 -27.5l-50 0z" />
<glyph unicode="&#228;" horiz-adv-x="470" d="M180 -8q-72 0 -111 39q-39 39 -39 109q0 42 14 75q14 33 45 55q31 22 80.5 33.5q49.5 11.5 120.5 11.5h26v22q0 59 -19.5 81q-19.5 22 -61.5 22q-23 0 -41.5 -3q-18.5 -3 -36 -9q-17.5 -6 -36.5 -16q-19 -10 -41 -24l0 88q26 14 65 28q39 14 90 14q94 0 134.5 -41q40.5 -41 40.5 -137v-340h-90v71h-2q-21 -35 -53 -57q-32 -22 -85 -22zt0 0zM200 70q50 0 83 35q33 35 33 95v45h-26q-90 0 -125 -28q-35 -28 -35 -77q0 -70 70 -70zt0 0zM110 697h100v-94h-100zM270 697h100v-94l-100 0z" />
<glyph unicode="&#229;" horiz-adv-x="470" d="M180 -8q-72 0 -111 39q-39 39 -39 109q0 42 14 75q14 33 45 55q31 22 80.5 33.5q49.5 11.5 120.5 11.5h26v22q0 59 -19.5 81q-19.5 22 -61.5 22q-23 0 -41.5 -3q-18.5 -3 -36 -9q-17.5 -6 -36.5 -16q-19 -10 -41 -24l0 88q26 14 65 28q39 14 90 14q94 0 134.5 -41q40.5 -41 40.5 -137v-340h-90v71h-2q-21 -35 -53 -57q-32 -22 -85 -22zt0 0zM200 70q50 0 83 35q33 35 33 95v45h-26q-90 0 -125 -28q-35 -28 -35 -77q0 -70 70 -70zt0 0zM240 560q-23 0 -43 8.5q-20 8.5 -35 23.5q-15 15 -23.5 35q-8.5 20 -8.5 43q0 23 8.5 43q8.5 20 23.5 35q15 15 35 23.5q20 8.5 43 8.5q23 0 43 -8.5q20 -8.5 35 -23.5q15 -15 23.5 -35q8.5 -20 8.5 -43q0 -23 -8.5 -43q-8.5 -20 -23.5 -35q-15 -15 -35 -23.5q-20 -8.5 -43 -8.5zt0 0zM240 616q23 0 38.5 15.5q15.5 15.5 15.5 38.5q0 23 -15.5 38.5q-15.5 15.5 -38.5 15.5q-23 0 -38.5 -15.5q-15.5 -15.5 -15.5 -38.5q0 -23 15.5 -38.5t38.5 -15.5z" />
<glyph unicode="&#230;" horiz-adv-x="740" d="M197 -8q-85 0 -126 39q-41 39 -41 109q0 42 14 75q14 33 44.5 55q30.5 22 79.5 33.5q49 11.5 119 11.5h26v22q0 59 -19.5 81q-19.5 22 -61.5 22q-23 0 -41 -3q-18 -3 -35 -9q-17 -6 -35.5 -16q-18.5 -10 -40.5 -24l0 88q26 14 63.5 28q37.5 14 88.5 14q53 0 88 -15q35 -15 56 -57q25 42 58.5 57q33.5 15 75.5 15q43 0 78 -15q35 -15 60 -47q25 -32 38.5 -81.5q13.5 -49.5 13.5 -119.5v-28h-293q4 -85 33.5 -121q29.5 -36 99.5 -36q48 0 81 13.5q33 13.5 49 24.5l0 -88q-23 -11 -56 -19.5q-33 -8.5 -84 -8.5q-62 0 -107 24q-45 24 -72 84q-29 -59 -69.5 -83.5q-40.5 -24.5 -84.5 -24.5zt0 0zM197 70q50 0 83 35q33 35 33 95v41v4h-26q-44 0 -74 -7.5q-30 -7.5 -48.5 -21q-18.5 -13.5 -26.5 -33q-8 -19.5 -8 -43.5q0 -34 17.5 -52q17.5 -18 49.5 -18zt0 0zM510 440q-20 0 -37.5 -6.5q-17.5 -6.5 -31 -22.5q-13.5 -16 -22.5 -42.5q-9 -26.5 -12 -65.5l196 0q-2 76 -27 106.5t-66 30.5z" />
<glyph unicode="&#231;" horiz-adv-x="405" d="M285 -8q-117 0 -181 66q-64 66 -64 197q0 131 64 197q64 66 180 66q35 0 59.5 -6.5q24.5 -6.5 41.5 -13.5l0 -88q-20 12 -43 21q-23 9 -56 9q-69 0 -107.5 -43.5q-38.5 -43.5 -38.5 -141.5q0 -98 38.5 -141.5q38.5 -43.5 106.5 -43.5q34 0 60 10q26 10 40 20l0 -88q-14 -8 -40 -14q-26 -6 -60 -6zt0 0zM245 -218q-34 0 -57 8.5q-23 8.5 -38 20.5l25 57q25 -20 55 -20q36 0 36 32q0 14 -9.5 22q-9.5 8 -31.5 8q-9 0 -16 -1.5q-7 -1.5 -14 -3.5l25 95h60l-11 -42q14 -1 28.5 -6q14.5 -5 26 -15q11.5 -10 19 -24q7.5 -14 7.5 -33q0 -47 -26.5 -72.5t-78.5 -25.5z" />
<glyph unicode="&#232;" horiz-adv-x="470" d="M260 -8q-104 0 -162 63q-58 63 -58 200q0 69 14.5 118.5q14.5 49.5 40.5 81.5q26 32 63 47.5q37 15.5 82 15.5q43 0 78 -15q35 -15 60 -47q25 -32 38.5 -81.5q13.5 -49.5 13.5 -119.5v-28h-293q4 -85 33.5 -121q29.5 -36 99.5 -36q48 0 81 13.5q33 13.5 49 24.5l0 -88q-23 -11 -56 -19.5q-33 -8.5 -84 -8.5zt0 0zM240 440q-20 0 -37.5 -6.5q-17.5 -6.5 -31 -22.5q-13.5 -16 -22.5 -42.5q-9 -26.5 -12 -65.5l196 0q-2 76 -27 106.5q-25 30.5 -66 30.5zt0 0zM102 725h108l62 -150l-74 0z" />
<glyph unicode="&#233;" horiz-adv-x="470" d="M260 -8q-104 0 -162 63q-58 63 -58 200q0 69 14.5 118.5q14.5 49.5 40.5 81.5q26 32 63 47.5q37 15.5 82 15.5q43 0 78 -15q35 -15 60 -47q25 -32 38.5 -81.5q13.5 -49.5 13.5 -119.5v-28h-293q4 -85 33.5 -121q29.5 -36 99.5 -36q48 0 81 13.5q33 13.5 49 24.5l0 -88q-23 -11 -56 -19.5q-33 -8.5 -84 -8.5zt0 0zM240 440q-20 0 -37.5 -6.5q-17.5 -6.5 -31 -22.5q-13.5 -16 -22.5 -42.5q-9 -26.5 -12 -65.5l196 0q-2 76 -27 106.5q-25 30.5 -66 30.5zt0 0zM260 725h108l-96 -150l-74 0z" />
<glyph unicode="&#234;" horiz-adv-x="470" d="M260 -8q-104 0 -162 63q-58 63 -58 200q0 69 14.5 118.5q14.5 49.5 40.5 81.5q26 32 63 47.5q37 15.5 82 15.5q43 0 78 -15q35 -15 60 -47q25 -32 38.5 -81.5q13.5 -49.5 13.5 -119.5v-28h-293q4 -85 33.5 -121q29.5 -36 99.5 -36q48 0 81 13.5q33 13.5 49 24.5l0 -88q-23 -11 -56 -19.5q-33 -8.5 -84 -8.5zt0 0zM240 440q-20 0 -37.5 -6.5q-17.5 -6.5 -31 -22.5q-13.5 -16 -22.5 -42.5q-9 -26.5 -12 -65.5l196 0q-2 76 -27 106.5q-25 30.5 -66 30.5zt0 0zM195 725h80l100 -150h-82l-60 95l-58 -95l-80 0z" />
<glyph unicode="&#235;" horiz-adv-x="470" d="M260 -8q-104 0 -162 63q-58 63 -58 200q0 69 14.5 118.5q14.5 49.5 40.5 81.5q26 32 63 47.5q37 15.5 82 15.5q43 0 78 -15q35 -15 60 -47q25 -32 38.5 -81.5q13.5 -49.5 13.5 -119.5v-28h-293q4 -85 33.5 -121q29.5 -36 99.5 -36q48 0 81 13.5q33 13.5 49 24.5l0 -88q-23 -11 -56 -19.5q-33 -8.5 -84 -8.5zt0 0zM240 440q-20 0 -37.5 -6.5q-17.5 -6.5 -31 -22.5q-13.5 -16 -22.5 -42.5q-9 -26.5 -12 -65.5l196 0q-2 76 -27 106.5q-25 30.5 -66 30.5zt0 0zM105 697h100v-94h-100zM265 697h100v-94l-100 0z" />
<glyph unicode="&#236;" horiz-adv-x="234" d="M70 510h94v-510h-94zM-16 725h108l62 -150l-74 0z" />
<glyph unicode="&#237;" horiz-adv-x="234" d="M70 510h94v-510h-94zM142 725h108l-96 -150l-74 0z" />
<glyph unicode="&#238;" horiz-adv-x="234" d="M70 510h94v-510h-94zM77 725h80l100 -150h-82l-60 95l-58 -95l-80 0z" />
<glyph unicode="&#239;" horiz-adv-x="234" d="M70 510h94v-510h-94zM-13 697h100v-94h-100zM147 697h100v-94l-100 0z" />
<glyph unicode="&#240;" horiz-adv-x="520" d="M255 -8q-98 0 -154 60q-56 60 -56 183q0 61 14 106.5q14 45.5 39.5 76q25.5 30.5 60.5 45.5q35 15 76 15q27 0 49.5 -7q22.5 -7 39 -18q16.5 -11 28 -25q11.5 -14 16.5 -28l2 0q-10 59 -43 104q-33 45 -108 74l-33 -80l-51 20l31 77q-23 6 -47.5 11q-24.5 5 -53.5 9l20 75q60 -8 111 -21l26 64l52 -21l-25 -60q109 -42 167.5 -128.5q58.5 -86.5 58.5 -233.5q0 -78 -16 -134.5q-16 -56.5 -45 -92.5q-29 -36 -69.5 -53.5q-40.5 -17.5 -89.5 -17.5zt0 0zM255 70q31 0 52 14.5q21 14.5 34 37.5q13 23 18.5 53q5.5 30 5.5 60q0 27 -5 56q-5 29 -17.5 53q-12.5 24 -33.5 40q-21 16 -54 16q-32 0 -53 -16q-21 -16 -34 -40q-13 -24 -18 -53q-5 -29 -5 -55q0 -30 6 -60q6 -30 19.5 -53.5q13.5 -23.5 34 -38t50.5 -14.5z" />
<glyph unicode="&#241;" horiz-adv-x="495" d="M60 510h90v-70h1q21 32 54.5 55q33.5 23 84.5 23q67 0 108.5 -46q41.5 -46 41.5 -142v-330h-94v310q0 69 -22 95.5q-22 26.5 -64 26.5q-21 0 -40 -9q-19 -9 -34 -25q-15 -16 -23.5 -38.5q-8.5 -22.5 -8.5 -49.5v-310h-94zM105 595q0 53 26 81.5q26 28.5 64 28.5q19 0 34.5 -6q15.5 -6 29 -13q13.5 -7 26 -13q12.5 -6 25.5 -6q15 0 25 10.5q10 10.5 10 27.5l50 0q0 -53 -26 -81.5q-26 -28.5 -64 -28.5q-19 0 -34.5 6q-15.5 6 -29 13q-13.5 7 -26 13q-12.5 6 -25.5 6q-15 0 -25 -10.5q-10 -10.5 -10 -27.5l-50 0z" />
<glyph unicode="&#242;" horiz-adv-x="500" d="M251 70q24 0 44 9q20 9 34.5 31q14.5 22 22.5 57q8 35 8 88q0 52 -8 87.5q-8 35.5 -22.5 57.5q-14.5 22 -34.5 31q-20 9 -44 9q-25 0 -45.5 -9q-20.5 -9 -35 -31q-14.5 -22 -22.5 -57.5q-8 -35.5 -8 -87.5q0 -53 8 -88q8 -35 22.5 -57q14.5 -22 35 -31q20.5 -9 45.5 -9zt0 0zM251 -8q-47 0 -86 16q-39 16 -67 48.5q-28 32.5 -43 82q-15 49.5 -15 116.5q0 67 15 116.5q15 49.5 43 82q28 32.5 67 48.5q39 16 86 16q46 0 84.5 -16q38.5 -16 66.5 -48.5q28 -32.5 43 -82q15 -49.5 15 -116.5q0 -67 -15 -116.5q-15 -49.5 -43 -82q-28 -32.5 -66.5 -48.5q-38.5 -16 -84.5 -16zt0 0zM117 725h108l62 -150l-74 0z" />
<glyph unicode="&#243;" horiz-adv-x="500" d="M251 70q24 0 44 9q20 9 34.5 31q14.5 22 22.5 57q8 35 8 88q0 52 -8 87.5q-8 35.5 -22.5 57.5q-14.5 22 -34.5 31q-20 9 -44 9q-25 0 -45.5 -9q-20.5 -9 -35 -31q-14.5 -22 -22.5 -57.5q-8 -35.5 -8 -87.5q0 -53 8 -88q8 -35 22.5 -57q14.5 -22 35 -31q20.5 -9 45.5 -9zt0 0zM251 -8q-47 0 -86 16q-39 16 -67 48.5q-28 32.5 -43 82q-15 49.5 -15 116.5q0 67 15 116.5q15 49.5 43 82q28 32.5 67 48.5q39 16 86 16q46 0 84.5 -16q38.5 -16 66.5 -48.5q28 -32.5 43 -82q15 -49.5 15 -116.5q0 -67 -15 -116.5q-15 -49.5 -43 -82q-28 -32.5 -66.5 -48.5q-38.5 -16 -84.5 -16zt0 0zM275 725h108l-96 -150l-74 0z" />
<glyph unicode="&#244;" horiz-adv-x="500" d="M251 70q24 0 44 9q20 9 34.5 31q14.5 22 22.5 57q8 35 8 88q0 52 -8 87.5q-8 35.5 -22.5 57.5q-14.5 22 -34.5 31q-20 9 -44 9q-25 0 -45.5 -9q-20.5 -9 -35 -31q-14.5 -22 -22.5 -57.5q-8 -35.5 -8 -87.5q0 -53 8 -88q8 -35 22.5 -57q14.5 -22 35 -31q20.5 -9 45.5 -9zt0 0zM251 -8q-47 0 -86 16q-39 16 -67 48.5q-28 32.5 -43 82q-15 49.5 -15 116.5q0 67 15 116.5q15 49.5 43 82q28 32.5 67 48.5q39 16 86 16q46 0 84.5 -16q38.5 -16 66.5 -48.5q28 -32.5 43 -82q15 -49.5 15 -116.5q0 -67 -15 -116.5q-15 -49.5 -43 -82q-28 -32.5 -66.5 -48.5q-38.5 -16 -84.5 -16zt0 0zM210 725h80l100 -150h-82l-60 95l-58 -95l-80 0z" />
<glyph unicode="&#245;" horiz-adv-x="500" d="M251 70q24 0 44 9q20 9 34.5 31q14.5 22 22.5 57q8 35 8 88q0 52 -8 87.5q-8 35.5 -22.5 57.5q-14.5 22 -34.5 31q-20 9 -44 9q-25 0 -45.5 -9q-20.5 -9 -35 -31q-14.5 -22 -22.5 -57.5q-8 -35.5 -8 -87.5q0 -53 8 -88q8 -35 22.5 -57q14.5 -22 35 -31q20.5 -9 45.5 -9zt0 0zM251 -8q-47 0 -86 16q-39 16 -67 48.5q-28 32.5 -43 82q-15 49.5 -15 116.5q0 67 15 116.5q15 49.5 43 82q28 32.5 67 48.5q39 16 86 16q46 0 84.5 -16q38.5 -16 66.5 -48.5q28 -32.5 43 -82q15 -49.5 15 -116.5q0 -67 -15 -116.5q-15 -49.5 -43 -82q-28 -32.5 -66.5 -48.5q-38.5 -16 -84.5 -16zt0 0zM105 595q0 53 26 81.5q26 28.5 64 28.5q19 0 34.5 -6q15.5 -6 29 -13q13.5 -7 26 -13q12.5 -6 25.5 -6q15 0 25 10.5q10 10.5 10 27.5l50 0q0 -53 -26 -81.5q-26 -28.5 -64 -28.5q-19 0 -34.5 6q-15.5 6 -29 13q-13.5 7 -26 13q-12.5 6 -25.5 6q-15 0 -25 -10.5q-10 -10.5 -10 -27.5l-50 0z" />
<glyph unicode="&#246;" horiz-adv-x="500" d="M251 70q24 0 44 9q20 9 34.5 31q14.5 22 22.5 57q8 35 8 88q0 52 -8 87.5q-8 35.5 -22.5 57.5q-14.5 22 -34.5 31q-20 9 -44 9q-25 0 -45.5 -9q-20.5 -9 -35 -31q-14.5 -22 -22.5 -57.5q-8 -35.5 -8 -87.5q0 -53 8 -88q8 -35 22.5 -57q14.5 -22 35 -31q20.5 -9 45.5 -9zt0 0zM251 -8q-47 0 -86 16q-39 16 -67 48.5q-28 32.5 -43 82q-15 49.5 -15 116.5q0 67 15 116.5q15 49.5 43 82q28 32.5 67 48.5q39 16 86 16q46 0 84.5 -16q38.5 -16 66.5 -48.5q28 -32.5 43 -82q15 -49.5 15 -116.5q0 -67 -15 -116.5q-15 -49.5 -43 -82q-28 -32.5 -66.5 -48.5q-38.5 -16 -84.5 -16zt0 0zM120 697h100v-94h-100zM280 697h100v-94l-100 0z" />
<glyph unicode="&#247;" horiz-adv-x="500" d="M50 394h400v-88h-400zM250 73q-31 0 -54 23q-23 23 -23 54q0 31 23 54q23 23 54 23q31 0 54 -23q23 -23 23 -54q0 -31 -23 -54q-23 -23 -54 -23zt0 0zM250 473q-31 0 -54 23q-23 23 -23 54q0 31 23 54q23 23 54 23q31 0 54 -23q23 -23 23 -54q0 -31 -23 -54t-54 -23z" />
<glyph unicode="&#248;" horiz-adv-x="500" d="M40 255q0 67 15 116.5q15 49.5 43 82q28 32.5 67 48.5q39 16 86 16q74 0 126 -41l38 51l45 -34l-44 -60q21 -32 32.5 -76.5q11.5 -44.5 11.5 -102.5q0 -67 -15 -116.5q-15 -49.5 -43 -82q-28 -32.5 -66.5 -48.5q-38.5 -16 -84.5 -16q-76 0 -129 41l-37 -51l-45 34l44 60q-21 32 -32.5 76.5q-11.5 44.5 -11.5 102.5zt0 0zM360 255q0 53 -9 91l-177 -242q14 -18 34 -26q20 -8 43 -8q24 0 44 9q20 9 34.5 31q14.5 22 22.5 57q8 35 8 88zt0 0zM140 255q0 -53 8 -91l177 241q-14 19 -32.5 27q-18.5 8 -41.5 8q-25 0 -45.5 -9q-20.5 -9 -35 -31q-14.5 -22 -22.5 -57.5t-8 -87.5z" />
<glyph unicode="&#249;" horiz-adv-x="485" d="M200 -8q-64 0 -104.5 46q-40.5 46 -40.5 142v330h94v-310q0 -69 21.5 -95.5q21.5 -26.5 59.5 -26.5q19 0 37 9q18 9 32.5 25q14.5 16 23 38.5q8.5 22.5 8.5 49.5v310h94v-510h-90v70h-1q-21 -32 -54 -55q-33 -23 -80 -23zt0 0zM107 725h108l62 -150l-74 0z" />
<glyph unicode="&#250;" horiz-adv-x="485" d="M200 -8q-64 0 -104.5 46q-40.5 46 -40.5 142v330h94v-310q0 -69 21.5 -95.5q21.5 -26.5 59.5 -26.5q19 0 37 9q18 9 32.5 25q14.5 16 23 38.5q8.5 22.5 8.5 49.5v310h94v-510h-90v70h-1q-21 -32 -54 -55q-33 -23 -80 -23zt0 0zM265 725h108l-96 -150l-74 0z" />
<glyph unicode="&#251;" horiz-adv-x="485" d="M200 -8q-64 0 -104.5 46q-40.5 46 -40.5 142v330h94v-310q0 -69 21.5 -95.5q21.5 -26.5 59.5 -26.5q19 0 37 9q18 9 32.5 25q14.5 16 23 38.5q8.5 22.5 8.5 49.5v310h94v-510h-90v70h-1q-21 -32 -54 -55q-33 -23 -80 -23zt0 0zM200 725h80l100 -150h-82l-60 95l-58 -95l-80 0z" />
<glyph unicode="&#252;" horiz-adv-x="485" d="M200 -8q-64 0 -104.5 46q-40.5 46 -40.5 142v330h94v-310q0 -69 21.5 -95.5q21.5 -26.5 59.5 -26.5q19 0 37 9q18 9 32.5 25q14.5 16 23 38.5q8.5 22.5 8.5 49.5v310h94v-510h-90v70h-1q-21 -32 -54 -55q-33 -23 -80 -23zt0 0zM110 697h100v-94h-100zM270 697h100v-94l-100 0z" />
<glyph unicode="&#253;" horiz-adv-x="440" d="M100 -218q-20 0 -34 2q-14 2 -26 7l0 80q13 -7 24.5 -9q11.5 -2 25.5 -2q23 0 39.5 15.5q16.5 15.5 32.5 66.5l14 46l-166 522h98l115 -390h2l109 390h96l-179 -587q-11 -36 -23.5 -63q-12.5 -27 -29.5 -44q-17 -17 -40.5 -25.5q-23.5 -8.5 -57.5 -8.5zt0 0zM246 725h108l-96 -150l-74 0z" />
<glyph unicode="&#254;" horiz-adv-x="510" d="M60 750h94v-305h2q22 34 54.5 53.5q32.5 19.5 74.5 19.5q41 0 75 -14.5q34 -14.5 58.5 -46.5q24.5 -32 38 -82q13.5 -50 13.5 -120q0 -69 -14 -118.5q-14 -49.5 -39.5 -81.5q-25.5 -32 -60.5 -47.5q-35 -15.5 -76 -15.5q-39 0 -72 19q-33 19 -52 54l-2 0v-275h-94zM262 70q22 0 41.5 10q19.5 10 34.5 32q15 22 23.5 57q8.5 35 8.5 86q0 52 -8 87.5q-8 35.5 -22 57.5q-14 22 -32.5 31q-18.5 9 -40.5 9q-22 0 -42.5 -10.5q-20.5 -10.5 -36 -33q-15.5 -22.5 -25 -57.5q-9.5 -35 -9.5 -84q0 -49 9.5 -84q9.5 -35 24.5 -57.5q15 -22.5 34.5 -33t39.5 -10.5z" />
<glyph unicode="&#255;" horiz-adv-x="440" d="M100 -218q-20 0 -34 2q-14 2 -26 7l0 80q13 -7 24.5 -9q11.5 -2 25.5 -2q23 0 39.5 15.5q16.5 15.5 32.5 66.5l14 46l-166 522h98l115 -390h2l109 390h96l-179 -587q-11 -36 -23.5 -63q-12.5 -27 -29.5 -44q-17 -17 -40.5 -25.5q-23.5 -8.5 -57.5 -8.5zt0 0zM91 697h100v-94h-100zM251 697h100v-94l-100 0z" />
<glyph unicode="&#256;" horiz-adv-x="580" d="M380 261l-91 309h-2l-91 -309zM235 700h110l225 -700h-106l-57 177h-238l-57 -177h-102zM155 856h270v-72l-270 0z" />
<glyph unicode="&#257;" horiz-adv-x="470" d="M180 -8q-72 0 -111 39q-39 39 -39 109q0 42 14 75q14 33 45 55q31 22 80.5 33.5q49.5 11.5 120.5 11.5h26v22q0 59 -19.5 81q-19.5 22 -61.5 22q-23 0 -41.5 -3q-18.5 -3 -36 -9q-17.5 -6 -36.5 -16q-19 -10 -41 -24l0 88q26 14 65 28q39 14 90 14q94 0 134.5 -41q40.5 -41 40.5 -137v-340h-90v71h-2q-21 -35 -53 -57q-32 -22 -85 -22zt0 0zM200 70q50 0 83 35q33 35 33 95v45h-26q-90 0 -125 -28q-35 -28 -35 -77q0 -70 70 -70zt0 0zM110 687h260v-74l-260 0z" />
<glyph unicode="&#258;" horiz-adv-x="580" d="M380 261l-91 309h-2l-91 -309zM235 700h110l225 -700h-106l-57 177h-238l-57 -177h-102zM290 753q-25 0 -47.5 6.5q-22.5 6.5 -40.5 21.5q-18 15 -29 41q-11 26 -13 65l62 0q4 -37 21.5 -52q17.5 -15 46.5 -15q29 0 46.5 15q17.5 15 21.5 52l62 0q-2 -39 -13 -65q-11 -26 -29 -41q-18 -15 -40.5 -21.5t-47.5 -6.5z" />
<glyph unicode="&#259;" horiz-adv-x="470" d="M180 -8q-72 0 -111 39q-39 39 -39 109q0 42 14 75q14 33 45 55q31 22 80.5 33.5q49.5 11.5 120.5 11.5h26v22q0 59 -19.5 81q-19.5 22 -61.5 22q-23 0 -41.5 -3q-18.5 -3 -36 -9q-17.5 -6 -36.5 -16q-19 -10 -41 -24l0 88q26 14 65 28q39 14 90 14q94 0 134.5 -41q40.5 -41 40.5 -137v-340h-90v71h-2q-21 -35 -53 -57q-32 -22 -85 -22zt0 0zM200 70q50 0 83 35q33 35 33 95v45h-26q-90 0 -125 -28q-35 -28 -35 -77q0 -70 70 -70zt0 0zM240 588q-23 0 -45 5.5q-22 5.5 -39 19.5q-17 14 -28 38q-11 24 -13 61l60 0q4 -33 21.5 -45q17.5 -12 43.5 -12q26 0 43.5 12q17.5 12 21.5 45l60 0q-2 -37 -12.5 -61q-10.5 -24 -28 -38q-17.5 -14 -39 -19.5t-45.5 -5.5z" />
<glyph unicode="&#260;" horiz-adv-x="580" d="M380 261l-91 309h-2l-91 -309zM235 700h110l225 -700h-106l-57 177h-238l-57 -177h-102zM475 -218q-45 0 -70 24q-25 24 -25 59q0 37 22 68.5q22 31.5 78 66.5l90 0q-31 -19 -51 -36q-20 -17 -31 -31.5q-11 -14.5 -15.5 -26.5q-4.5 -12 -4.5 -21q0 -29 32 -29q17 0 36 5.5q19 5.5 34 13.5l0 -78q-19 -7 -41.5 -11t-53.5 -4z" />
<glyph unicode="&#261;" horiz-adv-x="470" d="M180 -8q-72 0 -111 39q-39 39 -39 109q0 42 14 75q14 33 45 55q31 22 80.5 33.5q49.5 11.5 120.5 11.5h26v22q0 59 -19.5 81q-19.5 22 -61.5 22q-23 0 -41.5 -3q-18.5 -3 -36 -9q-17.5 -6 -36.5 -16q-19 -10 -41 -24l0 88q26 14 65 28q39 14 90 14q94 0 134.5 -41q40.5 -41 40.5 -137v-340h-90v71h-2q-21 -35 -53 -57q-32 -22 -85 -22zt0 0zM200 70q50 0 83 35q33 35 33 95v45h-26q-90 0 -125 -28q-35 -28 -35 -77q0 -70 70 -70zt0 0zM325 -218q-45 0 -70 24q-25 24 -25 59q0 37 21 68.5q21 31.5 69 66.5l90 0q-55 -38 -74.5 -67q-19.5 -29 -19.5 -48q0 -31 34 -31q17 0 31 5.5q14 5.5 29 13.5l0 -76q-19 -7 -36.5 -11t-48.5 -4z" />
<glyph unicode="&#262;" horiz-adv-x="520" d="M355 -8q-71 0 -128.5 22.5q-57.5 22.5 -98 67.5q-40.5 45 -62 112q-21.5 67 -21.5 156q0 89 21.5 156q21.5 67 61.5 112q40 45 96.5 67.5q56.5 22.5 125.5 22.5q50 0 85.5 -8.5q35.5 -8.5 59.5 -16.5l0 -98q-38 19 -72.5 27q-34.5 8 -72.5 8q-45 0 -81.5 -15.5q-36.5 -15.5 -62.5 -48.5q-26 -33 -40.5 -84q-14.5 -51 -14.5 -122q0 -71 14.5 -122q14.5 -51 41 -84q26.5 -33 64 -48.5q37.5 -15.5 84.5 -15.5q42 0 74 8q32 8 66 27l0 -98q-23 -9 -60.5 -17q-37.5 -8 -79.5 -8zt0 0zM375 895h108l-106 -150l-74 0z" />
<glyph unicode="&#263;" horiz-adv-x="405" d="M285 -8q-117 0 -181 66q-64 66 -64 197q0 131 64 197q64 66 180 66q35 0 59.5 -6.5q24.5 -6.5 41.5 -13.5l0 -88q-20 12 -43 21q-23 9 -56 9q-69 0 -107.5 -43.5q-38.5 -43.5 -38.5 -141.5q0 -98 38.5 -141.5q38.5 -43.5 106.5 -43.5q34 0 60 10q26 10 40 20l0 -88q-14 -8 -40 -14q-26 -6 -60 -6zt0 0zM275 725h108l-96 -150l-74 0z" />
<glyph unicode="&#264;" horiz-adv-x="520" d="M355 -8q-71 0 -128.5 22.5q-57.5 22.5 -98 67.5q-40.5 45 -62 112q-21.5 67 -21.5 156q0 89 21.5 156q21.5 67 61.5 112q40 45 96.5 67.5q56.5 22.5 125.5 22.5q50 0 85.5 -8.5q35.5 -8.5 59.5 -16.5l0 -98q-38 19 -72.5 27q-34.5 8 -72.5 8q-45 0 -81.5 -15.5q-36.5 -15.5 -62.5 -48.5q-26 -33 -40.5 -84q-14.5 -51 -14.5 -122q0 -71 14.5 -122q14.5 -51 41 -84q26.5 -33 64 -48.5q37.5 -15.5 84.5 -15.5q42 0 74 8q32 8 66 27l0 -98q-23 -9 -60.5 -17q-37.5 -8 -79.5 -8zt0 0zM298 895h84l103 -150h-84l-63 93l-61 -93l-82 0z" />
<glyph unicode="&#265;" horiz-adv-x="405" d="M285 -8q-117 0 -181 66q-64 66 -64 197q0 131 64 197q64 66 180 66q35 0 59.5 -6.5q24.5 -6.5 41.5 -13.5l0 -88q-20 12 -43 21q-23 9 -56 9q-69 0 -107.5 -43.5q-38.5 -43.5 -38.5 -141.5q0 -98 38.5 -141.5q38.5 -43.5 106.5 -43.5q34 0 60 10q26 10 40 20l0 -88q-14 -8 -40 -14q-26 -6 -60 -6zt0 0zM210 725h80l100 -150h-82l-60 95l-58 -95l-80 0z" />
<glyph unicode="&#266;" horiz-adv-x="520" d="M355 -8q-71 0 -128.5 22.5q-57.5 22.5 -98 67.5q-40.5 45 -62 112q-21.5 67 -21.5 156q0 89 21.5 156q21.5 67 61.5 112q40 45 96.5 67.5q56.5 22.5 125.5 22.5q50 0 85.5 -8.5q35.5 -8.5 59.5 -16.5l0 -98q-38 19 -72.5 27q-34.5 8 -72.5 8q-45 0 -81.5 -15.5q-36.5 -15.5 -62.5 -48.5q-26 -33 -40.5 -84q-14.5 -51 -14.5 -122q0 -71 14.5 -122q14.5 -51 41 -84q26.5 -33 64 -48.5q37.5 -15.5 84.5 -15.5q42 0 74 8q32 8 66 27l0 -98q-23 -9 -60.5 -17q-37.5 -8 -79.5 -8zt0 0zM290 867h100v-94l-100 0z" />
<glyph unicode="&#267;" horiz-adv-x="405" d="M285 -8q-117 0 -181 66q-64 66 -64 197q0 131 64 197q64 66 180 66q35 0 59.5 -6.5q24.5 -6.5 41.5 -13.5l0 -88q-20 12 -43 21q-23 9 -56 9q-69 0 -107.5 -43.5q-38.5 -43.5 -38.5 -141.5q0 -98 38.5 -141.5q38.5 -43.5 106.5 -43.5q34 0 60 10q26 10 40 20l0 -88q-14 -8 -40 -14q-26 -6 -60 -6zt0 0zM198 697h100v-94l-100 0z" />
<glyph unicode="&#268;" horiz-adv-x="520" d="M355 -8q-71 0 -128.5 22.5q-57.5 22.5 -98 67.5q-40.5 45 -62 112q-21.5 67 -21.5 156q0 89 21.5 156q21.5 67 61.5 112q40 45 96.5 67.5q56.5 22.5 125.5 22.5q50 0 85.5 -8.5q35.5 -8.5 59.5 -16.5l0 -98q-38 19 -72.5 27q-34.5 8 -72.5 8q-45 0 -81.5 -15.5q-36.5 -15.5 -62.5 -48.5q-26 -33 -40.5 -84q-14.5 -51 -14.5 -122q0 -71 14.5 -122q14.5 -51 41 -84q26.5 -33 64 -48.5q37.5 -15.5 84.5 -15.5q42 0 74 8q32 8 66 27l0 -98q-23 -9 -60.5 -17q-37.5 -8 -79.5 -8zt0 0zM195 895h84l63 -93l61 93h82l-103 -150l-84 0z" />
<glyph unicode="&#269;" horiz-adv-x="405" d="M285 -8q-117 0 -181 66q-64 66 -64 197q0 131 64 197q64 66 180 66q35 0 59.5 -6.5q24.5 -6.5 41.5 -13.5l0 -88q-20 12 -43 21q-23 9 -56 9q-69 0 -107.5 -43.5q-38.5 -43.5 -38.5 -141.5q0 -98 38.5 -141.5q38.5 -43.5 106.5 -43.5q34 0 60 10q26 10 40 20l0 -88q-14 -8 -40 -14q-26 -6 -60 -6zt0 0zM110 725h82l60 -95l58 95h80l-100 -150l-80 0z" />
<glyph unicode="&#270;" horiz-adv-x="605" d="M80 700h160q155 0 237.5 -84.5q82.5 -84.5 82.5 -249.5q0 -188 -83 -277q-83 -89 -237 -89h-160zM454 366q0 130 -55 189q-55 59 -159 59h-60v-528h60q52 0 92 15q40 15 67 48q27 33 41 86.5q14 53.5 14 130.5zt0 0zM125 895h84l63 -93l61 93h82l-103 -150l-84 0z" />
<glyph unicode="&#271;" horiz-adv-x="660" d="M225 -8q-41 0 -75 14.5q-34 14.5 -58.5 46.5q-24.5 32 -38 81.5q-13.5 49.5 -13.5 120.5q0 69 14 118.5q14 49.5 39.5 81.5q25.5 32 60.5 47.5q35 15.5 76 15.5q39 0 72 -20.5q33 -20.5 52 -52.5l2 0v305h94v-750h-90v70h-2q-23 -38 -55 -58q-32 -20 -78 -20zt0 0zM243 70q22 0 42 10.5q20 10.5 36 33q16 22.5 25.5 57.5q9.5 35 9.5 84q0 49 -9.5 84q-9.5 35 -24.5 57.5q-15 22.5 -34.5 33q-19.5 10.5 -39.5 10.5q-22 0 -41.5 -10q-19.5 -10 -34.5 -32q-15 -22 -23.5 -57q-8.5 -35 -8.5 -86q0 -53 8 -88q8 -35 22 -57q14 -22 32.5 -31q18.5 -9 40.5 -9zt0 0zM560 750h100l-74 -250l-76 0z" />
<glyph unicode="&#272;" horiz-adv-x="595" d="M70 313h-70v94h70v293h160q155 0 237.5 -84.5q82.5 -84.5 82.5 -249.5q0 -188 -83 -277q-83 -89 -237 -89h-160zM444 366q0 130 -55 189q-55 59 -159 59h-60v-207h150v-94h-150v-227h60q52 0 92 15q40 15 67 48q27 33 41 86.5t14 130.5z" />
<glyph unicode="&#273;" horiz-adv-x="510" d="M225 -8q-41 0 -75 14.5q-34 14.5 -58.5 46.5q-24.5 32 -38 81.5q-13.5 49.5 -13.5 120.5q0 69 14 118.5q14 49.5 39.5 81.5q25.5 32 60.5 47.5q35 15.5 76 15.5q39 0 72 -20.5q33 -20.5 52 -52.5l2 0v142h-186v66h186v97h94v-97h110v-66h-110v-587h-90v70h-2q-23 -38 -55 -58q-32 -20 -78 -20zt0 0zM243 70q22 0 42 10.5q20 10.5 36 33q16 22.5 25.5 57.5q9.5 35 9.5 84q0 49 -9.5 84q-9.5 35 -24.5 57.5q-15 22.5 -34.5 33q-19.5 10.5 -39.5 10.5q-22 0 -41.5 -10q-19.5 -10 -34.5 -32q-15 -22 -23.5 -57q-8.5 -35 -8.5 -86q0 -53 8 -88q8 -35 22 -57q14 -22 32.5 -31t40.5 -9z" />
<glyph unicode="&#274;" horiz-adv-x="485" d="M80 700h340v-86h-240v-206h225v-86h-225v-236h250v-86h-350zM115 856h270v-72l-270 0z" />
<glyph unicode="&#275;" horiz-adv-x="470" d="M260 -8q-104 0 -162 63q-58 63 -58 200q0 69 14.5 118.5q14.5 49.5 40.5 81.5q26 32 63 47.5q37 15.5 82 15.5q43 0 78 -15q35 -15 60 -47q25 -32 38.5 -81.5q13.5 -49.5 13.5 -119.5v-28h-293q4 -85 33.5 -121q29.5 -36 99.5 -36q48 0 81 13.5q33 13.5 49 24.5l0 -88q-23 -11 -56 -19.5q-33 -8.5 -84 -8.5zt0 0zM240 440q-20 0 -37.5 -6.5q-17.5 -6.5 -31 -22.5q-13.5 -16 -22.5 -42.5q-9 -26.5 -12 -65.5l196 0q-2 76 -27 106.5q-25 30.5 -66 30.5zt0 0zM105 687h260v-74l-260 0z" />
<glyph unicode="&#278;" horiz-adv-x="485" d="M80 700h340v-86h-240v-206h225v-86h-225v-236h250v-86h-350zM200 867h100v-94l-100 0z" />
<glyph unicode="&#279;" horiz-adv-x="470" d="M260 -8q-104 0 -162 63q-58 63 -58 200q0 69 14.5 118.5q14.5 49.5 40.5 81.5q26 32 63 47.5q37 15.5 82 15.5q43 0 78 -15q35 -15 60 -47q25 -32 38.5 -81.5q13.5 -49.5 13.5 -119.5v-28h-293q4 -85 33.5 -121q29.5 -36 99.5 -36q48 0 81 13.5q33 13.5 49 24.5l0 -88q-23 -11 -56 -19.5q-33 -8.5 -84 -8.5zt0 0zM240 440q-20 0 -37.5 -6.5q-17.5 -6.5 -31 -22.5q-13.5 -16 -22.5 -42.5q-9 -26.5 -12 -65.5l196 0q-2 76 -27 106.5q-25 30.5 -66 30.5zt0 0zM185 697h100v-94l-100 0z" />
<glyph unicode="&#280;" horiz-adv-x="485" d="M80 700h340v-86h-240v-206h225v-86h-225v-236h250v-86h-350zM335 -218q-45 0 -70 24q-25 24 -25 59q0 37 22 68.5q22 31.5 78 66.5l90 0q-31 -19 -51 -36q-20 -17 -31 -31.5q-11 -14.5 -15.5 -26.5q-4.5 -12 -4.5 -21q0 -29 32 -29q17 0 36 5.5q19 5.5 34 13.5l0 -78q-19 -7 -41.5 -11t-53.5 -4z" />
<glyph unicode="&#281;" horiz-adv-x="470" d="M284 -218q-45 0 -70 24q-25 24 -25 59q0 35 19 64q19 29 68 63l-16 0q-104 0 -162 63q-58 63 -58 200q0 69 14.5 118.5q14.5 49.5 40.5 81.5q26 32 63 47.5q37 15.5 82 15.5q43 0 78 -15q35 -15 60 -47q25 -32 38.5 -81.5q13.5 -49.5 13.5 -119.5v-28h-293q4 -85 33.5 -121q29.5 -36 99.5 -36q48 0 81 13.5q33 13.5 49 24.5l0 -88q-37 -23 -61 -42.5q-24 -19.5 -38.5 -37q-14.5 -17.5 -20 -31.5q-5.5 -14 -5.5 -24q0 -31 34 -31q17 0 31 5.5q14 5.5 29 13.5l0 -76q-19 -7 -36.5 -11q-17.5 -4 -48.5 -4zt0 0zM240 440q-20 0 -37.5 -6.5q-17.5 -6.5 -31 -22.5q-13.5 -16 -22.5 -42.5q-9 -26.5 -12 -65.5l196 0q-2 76 -27 106.5t-66 30.5z" />
<glyph unicode="&#282;" horiz-adv-x="485" d="M80 700h340v-86h-240v-206h225v-86h-225v-236h250v-86h-350zM105 895h84l63 -93l61 93h82l-103 -150l-84 0z" />
<glyph unicode="&#283;" horiz-adv-x="470" d="M260 -8q-104 0 -162 63q-58 63 -58 200q0 69 14.5 118.5q14.5 49.5 40.5 81.5q26 32 63 47.5q37 15.5 82 15.5q43 0 78 -15q35 -15 60 -47q25 -32 38.5 -81.5q13.5 -49.5 13.5 -119.5v-28h-293q4 -85 33.5 -121q29.5 -36 99.5 -36q48 0 81 13.5q33 13.5 49 24.5l0 -88q-23 -11 -56 -19.5q-33 -8.5 -84 -8.5zt0 0zM240 440q-20 0 -37.5 -6.5q-17.5 -6.5 -31 -22.5q-13.5 -16 -22.5 -42.5q-9 -26.5 -12 -65.5l196 0q-2 76 -27 106.5q-25 30.5 -66 30.5zt0 0zM95 725h82l60 -95l58 95h80l-100 -150l-80 0z" />
<glyph unicode="&#284;" horiz-adv-x="622" d="M375 -8q-75 0 -136 24q-61 24 -104 69.5q-43 45.5 -66.5 112q-23.5 66.5 -23.5 152.5q0 85 23.5 152q23.5 67 65.5 112.5q42 45.5 101 69.5q59 24 130 24q51 0 92.5 -9q41.5 -9 75.5 -23l0 -98q-23 11 -42.5 19.5q-19.5 8.5 -39.5 14.5q-20 6 -41 9q-21 3 -45 3q-47 0 -86 -17q-39 -17 -67.5 -51q-28.5 -34 -44.5 -85.5q-16 -51.5 -16 -120.5q0 -69 16 -120.5q16 -51.5 45.5 -85.5q29.5 -34 71 -51q41.5 -17 91.5 -17q27 0 48.5 4q21.5 4 38.5 9l0 214h-120v82h210v-360q-43 -16 -86 -24.5q-43 -8.5 -91 -8.5zt0 0zM307 895h84l103 -150h-84l-63 93l-61 -93l-82 0z" />
<glyph unicode="&#285;" horiz-adv-x="510" d="M220 -218q-38 0 -75 8q-37 8 -75 26l0 88q34 -18 67.5 -31q33.5 -13 82.5 -13q69 0 102.5 36.5q33.5 36.5 33.5 123.5v45h-2q-20 -31 -53.5 -52q-33.5 -21 -75.5 -21q-41 0 -75 14.5q-34 14.5 -58.5 46.5q-24.5 32 -38 81.5q-13.5 49.5 -13.5 120.5q0 69 14 118.5q14 49.5 39.5 81.5q25.5 32 60.5 47.5q35 15.5 76 15.5q45 0 75.5 -20q30.5 -20 53.5 -58l2 0v70h89v-490q0 -123 -56.5 -180.5q-56.5 -57.5 -173.5 -57.5zt0 0zM243 70q22 0 42 10.5q20 10.5 36 33q16 22.5 25.5 57.5q9.5 35 9.5 84q0 49 -8.5 84q-8.5 35 -23.5 57.5q-15 22.5 -34.5 33q-19.5 10.5 -41.5 10.5q-22 0 -41.5 -10q-19.5 -10 -34.5 -32q-15 -22 -23.5 -57q-8.5 -35 -8.5 -86q0 -53 8 -88q8 -35 22 -57q14 -22 32.5 -31q18.5 -9 40.5 -9zt0 0zM205 725h80l100 -150h-82l-60 95l-58 -95l-80 0z" />
<glyph unicode="&#286;" horiz-adv-x="622" d="M375 -8q-75 0 -136 24q-61 24 -104 69.5q-43 45.5 -66.5 112q-23.5 66.5 -23.5 152.5q0 85 23.5 152q23.5 67 65.5 112.5q42 45.5 101 69.5q59 24 130 24q51 0 92.5 -9q41.5 -9 75.5 -23l0 -98q-23 11 -42.5 19.5q-19.5 8.5 -39.5 14.5q-20 6 -41 9q-21 3 -45 3q-47 0 -86 -17q-39 -17 -67.5 -51q-28.5 -34 -44.5 -85.5q-16 -51.5 -16 -120.5q0 -69 16 -120.5q16 -51.5 45.5 -85.5q29.5 -34 71 -51q41.5 -17 91.5 -17q27 0 48.5 4q21.5 4 38.5 9l0 214h-120v82h210v-360q-43 -16 -86 -24.5q-43 -8.5 -91 -8.5zt0 0zM349 753q-25 0 -47.5 6.5q-22.5 6.5 -40.5 21.5q-18 15 -29 41q-11 26 -13 65l62 0q4 -37 21.5 -52q17.5 -15 46.5 -15q29 0 46.5 15q17.5 15 21.5 52l62 0q-2 -39 -13 -65q-11 -26 -29 -41q-18 -15 -40.5 -21.5t-47.5 -6.5z" />
<glyph unicode="&#287;" horiz-adv-x="510" d="M220 -218q-38 0 -75 8q-37 8 -75 26l0 88q34 -18 67.5 -31q33.5 -13 82.5 -13q69 0 102.5 36.5q33.5 36.5 33.5 123.5v45h-2q-20 -31 -53.5 -52q-33.5 -21 -75.5 -21q-41 0 -75 14.5q-34 14.5 -58.5 46.5q-24.5 32 -38 81.5q-13.5 49.5 -13.5 120.5q0 69 14 118.5q14 49.5 39.5 81.5q25.5 32 60.5 47.5q35 15.5 76 15.5q45 0 75.5 -20q30.5 -20 53.5 -58l2 0v70h89v-490q0 -123 -56.5 -180.5q-56.5 -57.5 -173.5 -57.5zt0 0zM243 70q22 0 42 10.5q20 10.5 36 33q16 22.5 25.5 57.5q9.5 35 9.5 84q0 49 -8.5 84q-8.5 35 -23.5 57.5q-15 22.5 -34.5 33q-19.5 10.5 -41.5 10.5q-22 0 -41.5 -10q-19.5 -10 -34.5 -32q-15 -22 -23.5 -57q-8.5 -35 -8.5 -86q0 -53 8 -88q8 -35 22 -57q14 -22 32.5 -31q18.5 -9 40.5 -9zt0 0zM245 588q-23 0 -45 5.5q-22 5.5 -39 19.5q-17 14 -28 38q-11 24 -13 61l60 0q4 -33 21.5 -45q17.5 -12 43.5 -12q26 0 43.5 12q17.5 12 21.5 45l60 0q-2 -37 -12.5 -61q-10.5 -24 -28 -38q-17.5 -14 -39 -19.5t-45.5 -5.5z" />
<glyph unicode="&#288;" horiz-adv-x="622" d="M375 -8q-75 0 -136 24q-61 24 -104 69.5q-43 45.5 -66.5 112q-23.5 66.5 -23.5 152.5q0 85 23.5 152q23.5 67 65.5 112.5q42 45.5 101 69.5q59 24 130 24q51 0 92.5 -9q41.5 -9 75.5 -23l0 -98q-23 11 -42.5 19.5q-19.5 8.5 -39.5 14.5q-20 6 -41 9q-21 3 -45 3q-47 0 -86 -17q-39 -17 -67.5 -51q-28.5 -34 -44.5 -85.5q-16 -51.5 -16 -120.5q0 -69 16 -120.5q16 -51.5 45.5 -85.5q29.5 -34 71 -51q41.5 -17 91.5 -17q27 0 48.5 4q21.5 4 38.5 9l0 214h-120v82h210v-360q-43 -16 -86 -24.5q-43 -8.5 -91 -8.5zt0 0zM299 867h100v-94l-100 0z" />
<glyph unicode="&#289;" horiz-adv-x="510" d="M220 -218q-38 0 -75 8q-37 8 -75 26l0 88q34 -18 67.5 -31q33.5 -13 82.5 -13q69 0 102.5 36.5q33.5 36.5 33.5 123.5v45h-2q-20 -31 -53.5 -52q-33.5 -21 -75.5 -21q-41 0 -75 14.5q-34 14.5 -58.5 46.5q-24.5 32 -38 81.5q-13.5 49.5 -13.5 120.5q0 69 14 118.5q14 49.5 39.5 81.5q25.5 32 60.5 47.5q35 15.5 76 15.5q45 0 75.5 -20q30.5 -20 53.5 -58l2 0v70h89v-490q0 -123 -56.5 -180.5q-56.5 -57.5 -173.5 -57.5zt0 0zM243 70q22 0 42 10.5q20 10.5 36 33q16 22.5 25.5 57.5q9.5 35 9.5 84q0 49 -8.5 84q-8.5 35 -23.5 57.5q-15 22.5 -34.5 33q-19.5 10.5 -41.5 10.5q-22 0 -41.5 -10q-19.5 -10 -34.5 -32q-15 -22 -23.5 -57q-8.5 -35 -8.5 -86q0 -53 8 -88q8 -35 22 -57q14 -22 32.5 -31q18.5 -9 40.5 -9zt0 0zM195 697h100v-94l-100 0z" />
<glyph unicode="&#290;" horiz-adv-x="622" d="M375 -8q-75 0 -136 24q-61 24 -104 69.5q-43 45.5 -66.5 112q-23.5 66.5 -23.5 152.5q0 85 23.5 152q23.5 67 65.5 112.5q42 45.5 101 69.5q59 24 130 24q51 0 92.5 -9q41.5 -9 75.5 -23l0 -98q-23 11 -42.5 19.5q-19.5 8.5 -39.5 14.5q-20 6 -41 9q-21 3 -45 3q-47 0 -86 -17q-39 -17 -67.5 -51q-28.5 -34 -44.5 -85.5q-16 -51.5 -16 -120.5q0 -69 16 -120.5q16 -51.5 45.5 -85.5q29.5 -34 71 -51q41.5 -17 91.5 -17q27 0 48.5 4q21.5 4 38.5 9l0 214h-120v82h210v-360q-43 -16 -86 -24.5q-43 -8.5 -91 -8.5zt0 0zM299 -50h100l-78 -160l-72 0z" />
<glyph unicode="&#291;" horiz-adv-x="510" d="M220 -218q-38 0 -75 8q-37 8 -75 26l0 88q34 -18 67.5 -31q33.5 -13 82.5 -13q69 0 102.5 36.5q33.5 36.5 33.5 123.5v45h-2q-20 -31 -53.5 -52q-33.5 -21 -75.5 -21q-41 0 -75 14.5q-34 14.5 -58.5 46.5q-24.5 32 -38 81.5q-13.5 49.5 -13.5 120.5q0 69 14 118.5q14 49.5 39.5 81.5q25.5 32 60.5 47.5q35 15.5 76 15.5q45 0 75.5 -20q30.5 -20 53.5 -58l2 0v70h89v-490q0 -123 -56.5 -180.5q-56.5 -57.5 -173.5 -57.5zt0 0zM243 70q22 0 42 10.5q20 10.5 36 33q16 22.5 25.5 57.5q9.5 35 9.5 84q0 49 -8.5 84q-8.5 35 -23.5 57.5q-15 22.5 -34.5 33q-19.5 10.5 -41.5 10.5q-22 0 -41.5 -10q-19.5 -10 -34.5 -32q-15 -22 -23.5 -57q-8.5 -35 -8.5 -86q0 -53 8 -88q8 -35 22 -57q14 -22 32.5 -31q18.5 -9 40.5 -9zt0 0zM292 570h-94l78 160l72 0z" />
<glyph unicode="&#292;" horiz-adv-x="600" d="M80 700h100v-292h240v292h100v-700h-100v322h-240v-322h-100zM258 895h84l103 -150h-84l-63 93l-61 -93l-82 0z" />
<glyph unicode="&#293;" horiz-adv-x="495" d="M60 750h94v-310h1q21 32 52.5 55q31.5 23 82.5 23q67 0 108.5 -46q41.5 -46 41.5 -142v-330h-94v310q0 69 -22 95.5q-22 26.5 -64 26.5q-21 0 -40 -9q-19 -9 -34 -25q-15 -16 -23.5 -38.5q-8.5 -22.5 -8.5 -49.5v-310h-94zM67 935h80l100 -150h-82l-60 95l-58 -95l-80 0z" />
<glyph unicode="&#294;" horiz-adv-x="600" d="M80 512h-60v76h60v112h100v-112h240v112h100v-112h60v-76h-60v-512h-100v322h-240v-322h-100zM420 408v104h-240l0 -104z" />
<glyph unicode="&#295;" horiz-adv-x="495" d="M60 587h-110v66h110v97h94v-97h186v-66h-186v-147h1q21 32 52.5 55q31.5 23 82.5 23q67 0 108.5 -46q41.5 -46 41.5 -142v-330h-94v310q0 69 -22 95.5q-22 26.5 -64 26.5q-21 0 -40 -9q-19 -9 -34 -25q-15 -16 -23.5 -38.5q-8.5 -22.5 -8.5 -49.5v-310l-94 0z" />
<glyph unicode="&#298;" horiz-adv-x="280" d="M90 700h100v-700h-100zM5 856h270v-72l-270 0z" />
<glyph unicode="&#299;" horiz-adv-x="234" d="M70 510h94v-510h-94zM-13 687h260v-74l-260 0z" />
<glyph unicode="&#302;" horiz-adv-x="280" d="M90 700h100v-700h-100zM95 -218q-45 0 -70 24q-25 24 -25 59q0 37 22 68.5q22 31.5 78 66.5l90 0q-31 -19 -51 -36q-20 -17 -31 -31.5q-11 -14.5 -15.5 -26.5q-4.5 -12 -4.5 -21q0 -29 32 -29q17 0 36 5.5q19 5.5 34 13.5l0 -78q-19 -7 -41.5 -11t-53.5 -4z" />
<glyph unicode="&#303;" horiz-adv-x="234" d="M70 510h94v-510h-94zM62 712h110v-104h-110zM79 -218q-45 0 -70 24q-25 24 -25 59q0 37 21 68.5q21 31.5 69 66.5l90 0q-55 -38 -74.5 -67q-19.5 -29 -19.5 -48q0 -31 34 -31q17 0 31 5.5q14 5.5 29 13.5l0 -76q-19 -7 -36.5 -11t-48.5 -4z" />
<glyph unicode="&#304;" horiz-adv-x="280" d="M90 700h100v-700h-100zM90 867h100v-94l-100 0z" />
<glyph unicode="&#305;" horiz-adv-x="234" d="M70 510h94v-510l-94 0z" />
<glyph unicode="&#306;" horiz-adv-x="625" d="M90 700h100v-700h-100zM390 -8q-20 0 -43.5 2.5q-23.5 2.5 -46.5 10.5l0 94q15 -8 34 -13.5q19 -5.5 36 -5.5q30 0 50 25q20 25 20 85v510h100v-510q0 -104 -41.5 -151t-108.5 -47z" />
<glyph unicode="&#307;" horiz-adv-x="480" d="M78 510h94v-510h-94zM70 712h110v-104h-110zM282 -218q-14 0 -30.5 2q-16.5 2 -31.5 5l0 78q9 -3 19 -5q10 -2 21 -2q25 0 36.5 15.5q11.5 15.5 11.5 64.5v570h94v-570q0 -44 -7.5 -74.5q-7.5 -30.5 -22.5 -49q-15 -18.5 -37.5 -26.5q-22.5 -8 -52.5 -8zt0 0zM300 712h110v-104l-110 0z" />
<glyph unicode="&#308;" horiz-adv-x="345" d="M110 -8q-20 0 -43.5 2.5q-23.5 2.5 -46.5 10.5l0 94q15 -8 34 -13.5q19 -5.5 36 -5.5q30 0 50 25q20 25 20 85v510h100v-510q0 -104 -41.5 -151q-41.5 -47 -108.5 -47zt0 0zM168 895h84l103 -150h-84l-63 93l-61 -93l-82 0z" />
<glyph unicode="&#309;" horiz-adv-x="246" d="M52 -218q-14 0 -30.5 2q-16.5 2 -31.5 5l0 78q9 -3 19 -5q10 -2 21 -2q25 0 36.5 15.5q11.5 15.5 11.5 64.5v570h94v-570q0 -44 -7.5 -74.5q-7.5 -30.5 -22.5 -49q-15 -18.5 -37.5 -26.5q-22.5 -8 -52.5 -8zt0 0zM85 725h80l100 -150h-82l-60 95l-58 -95l-80 0z" />
<glyph unicode="&#310;" horiz-adv-x="550" d="M80 700h100v-292h5l213 292h122l-250 -335l270 -365h-124l-231 322h-5v-322h-100zM248 -50h100l-78 -160l-72 0z" />
<glyph unicode="&#311;" horiz-adv-x="450" d="M60 750h94v-437h5l146 197h110l-176 -231l201 -279h-116l-165 237h-5v-237h-94zM192 -50h94l-78 -160l-72 0z" />
<glyph unicode="&#313;" horiz-adv-x="430" d="M80 700h100v-614h230v-86h-330zM165 895h108l-106 -150l-74 0z" />
<glyph unicode="&#314;" horiz-adv-x="254" d="M80 750h94v-750h-94zM152 935h108l-96 -150l-74 0z" />
<glyph unicode="&#315;" horiz-adv-x="430" d="M80 700h100v-614h230v-86h-330zM195 -50h100l-78 -160l-72 0z" />
<glyph unicode="&#316;" horiz-adv-x="254" d="M80 750h94v-750h-94zM80 -50h94l-78 -160l-72 0z" />
<glyph unicode="&#317;" horiz-adv-x="430" d="M80 700h100v-614h230v-86h-330zM320 700h100l-74 -250l-76 0z" />
<glyph unicode="&#318;" horiz-adv-x="384" d="M80 750h94v-750h-94zM284 750h100l-74 -250l-76 0z" />
<glyph unicode="&#319;" horiz-adv-x="420" d="M280 453h120v-120h-120zM80 700h100v-614h230v-86l-330 0z" />
<glyph unicode="&#320;" horiz-adv-x="374" d="M80 750h94v-750h-94zM254 435h120v-120l-120 0z" />
<glyph unicode="&#321;" horiz-adv-x="430" d="M80 298l-80 -66v90l80 66v312h100v-229l104 87v-90l-104 -87v-295h230v-86l-330 0z" />
<glyph unicode="&#322;" horiz-adv-x="254" d="M80 290l-70 -58v90l70 58v370h94v-291l70 59v-90l-70 -59v-369l-94 0z" />
<glyph unicode="&#323;" horiz-adv-x="630" d="M80 700h145l223 -560h2v560h100v-700h-145l-223 560h-2v-560h-100zM350 895h108l-106 -150l-74 0z" />
<glyph unicode="&#324;" horiz-adv-x="495" d="M60 510h90v-70h1q21 32 54.5 55q33.5 23 84.5 23q67 0 108.5 -46q41.5 -46 41.5 -142v-330h-94v310q0 69 -22 95.5q-22 26.5 -64 26.5q-21 0 -40 -9q-19 -9 -34 -25q-15 -16 -23.5 -38.5q-8.5 -22.5 -8.5 -49.5v-310h-94zM275 725h108l-96 -150l-74 0z" />
<glyph unicode="&#325;" horiz-adv-x="630" d="M80 700h145l223 -560h2v560h100v-700h-145l-223 560h-2v-560h-100zM265 -50h100l-78 -160l-72 0z" />
<glyph unicode="&#326;" horiz-adv-x="495" d="M60 510h90v-70h1q21 32 54.5 55q33.5 23 84.5 23q67 0 108.5 -46q41.5 -46 41.5 -142v-330h-94v310q0 69 -22 95.5q-22 26.5 -64 26.5q-21 0 -40 -9q-19 -9 -34 -25q-15 -16 -23.5 -38.5q-8.5 -22.5 -8.5 -49.5v-310h-94zM203 -50h94l-78 -160l-72 0z" />
<glyph unicode="&#327;" horiz-adv-x="630" d="M80 700h145l223 -560h2v560h100v-700h-145l-223 560h-2v-560h-100zM170 895h84l63 -93l61 93h82l-103 -150l-84 0z" />
<glyph unicode="&#328;" horiz-adv-x="495" d="M60 510h90v-70h1q21 32 54.5 55q33.5 23 84.5 23q67 0 108.5 -46q41.5 -46 41.5 -142v-330h-94v310q0 69 -22 95.5q-22 26.5 -64 26.5q-21 0 -40 -9q-19 -9 -34 -25q-15 -16 -23.5 -38.5q-8.5 -22.5 -8.5 -49.5v-310h-94zM110 725h82l60 -95l58 95h80l-100 -150l-80 0z" />
<glyph unicode="&#332;" horiz-adv-x="620" d="M310 80q32 0 61 14.5q29 14.5 50.5 47q21.5 32.5 34.5 83.5q13 51 13 125q0 73 -13 124.5q-13 51.5 -34.5 84q-21.5 32.5 -50.5 47q-29 14.5 -61 14.5q-32 0 -61 -14.5q-29 -14.5 -50.5 -47q-21.5 -32.5 -34.5 -84q-13 -51.5 -13 -124.5q0 -74 13 -125q13 -51 34.5 -83.5q21.5 -32.5 50.5 -47q29 -14.5 61 -14.5zt0 0zM310 -8q-56 0 -104.5 22q-48.5 22 -84 66q-35.5 44 -56 111.5q-20.5 67.5 -20.5 158.5q0 91 20.5 158.5q20.5 67.5 56 111.5q35.5 44 84 66q48.5 22 104.5 22q56 0 104.5 -22q48.5 -22 84 -66q35.5 -44 56 -111.5q20.5 -67.5 20.5 -158.5q0 -91 -20.5 -158.5q-20.5 -67.5 -56 -111.5q-35.5 -44 -84 -66q-48.5 -22 -104.5 -22zt0 0zM175 856h270v-72l-270 0z" />
<glyph unicode="&#333;" horiz-adv-x="500" d="M251 70q24 0 44 9q20 9 34.5 31q14.5 22 22.5 57q8 35 8 88q0 52 -8 87.5q-8 35.5 -22.5 57.5q-14.5 22 -34.5 31q-20 9 -44 9q-25 0 -45.5 -9q-20.5 -9 -35 -31q-14.5 -22 -22.5 -57.5q-8 -35.5 -8 -87.5q0 -53 8 -88q8 -35 22.5 -57q14.5 -22 35 -31q20.5 -9 45.5 -9zt0 0zM251 -8q-47 0 -86 16q-39 16 -67 48.5q-28 32.5 -43 82q-15 49.5 -15 116.5q0 67 15 116.5q15 49.5 43 82q28 32.5 67 48.5q39 16 86 16q46 0 84.5 -16q38.5 -16 66.5 -48.5q28 -32.5 43 -82q15 -49.5 15 -116.5q0 -67 -15 -116.5q-15 -49.5 -43 -82q-28 -32.5 -66.5 -48.5q-38.5 -16 -84.5 -16zt0 0zM120 687h260v-74l-260 0z" />
<glyph unicode="&#334;" horiz-adv-x="620" d="M310 80q32 0 61 14.5q29 14.5 50.5 47q21.5 32.5 34.5 83.5q13 51 13 125q0 73 -13 124.5q-13 51.5 -34.5 84q-21.5 32.5 -50.5 47q-29 14.5 -61 14.5q-32 0 -61 -14.5q-29 -14.5 -50.5 -47q-21.5 -32.5 -34.5 -84q-13 -51.5 -13 -124.5q0 -74 13 -125q13 -51 34.5 -83.5q21.5 -32.5 50.5 -47q29 -14.5 61 -14.5zt0 0zM310 -8q-56 0 -104.5 22q-48.5 22 -84 66q-35.5 44 -56 111.5q-20.5 67.5 -20.5 158.5q0 91 20.5 158.5q20.5 67.5 56 111.5q35.5 44 84 66q48.5 22 104.5 22q56 0 104.5 -22q48.5 -22 84 -66q35.5 -44 56 -111.5q20.5 -67.5 20.5 -158.5q0 -91 -20.5 -158.5q-20.5 -67.5 -56 -111.5q-35.5 -44 -84 -66q-48.5 -22 -104.5 -22zt0 0zM310 753q-25 0 -47.5 6.5q-22.5 6.5 -40.5 21.5q-18 15 -29 41q-11 26 -13 65l62 0q4 -37 21.5 -52q17.5 -15 46.5 -15q29 0 46.5 15q17.5 15 21.5 52l62 0q-2 -39 -13 -65q-11 -26 -29 -41q-18 -15 -40.5 -21.5t-47.5 -6.5z" />
<glyph unicode="&#335;" horiz-adv-x="500" d="M251 70q24 0 44 9q20 9 34.5 31q14.5 22 22.5 57q8 35 8 88q0 52 -8 87.5q-8 35.5 -22.5 57.5q-14.5 22 -34.5 31q-20 9 -44 9q-25 0 -45.5 -9q-20.5 -9 -35 -31q-14.5 -22 -22.5 -57.5q-8 -35.5 -8 -87.5q0 -53 8 -88q8 -35 22.5 -57q14.5 -22 35 -31q20.5 -9 45.5 -9zt0 0zM251 -8q-47 0 -86 16q-39 16 -67 48.5q-28 32.5 -43 82q-15 49.5 -15 116.5q0 67 15 116.5q15 49.5 43 82q28 32.5 67 48.5q39 16 86 16q46 0 84.5 -16q38.5 -16 66.5 -48.5q28 -32.5 43 -82q15 -49.5 15 -116.5q0 -67 -15 -116.5q-15 -49.5 -43 -82q-28 -32.5 -66.5 -48.5q-38.5 -16 -84.5 -16zt0 0zM250 588q-23 0 -45 5.5q-22 5.5 -39 19.5q-17 14 -28 38q-11 24 -13 61l60 0q4 -33 21.5 -45q17.5 -12 43.5 -12q26 0 43.5 12q17.5 12 21.5 45l60 0q-2 -37 -12.5 -61q-10.5 -24 -28 -38q-17.5 -14 -39 -19.5t-45.5 -5.5z" />
<glyph unicode="&#336;" horiz-adv-x="620" d="M310 80q32 0 61 14.5q29 14.5 50.5 47q21.5 32.5 34.5 83.5q13 51 13 125q0 73 -13 124.5q-13 51.5 -34.5 84q-21.5 32.5 -50.5 47q-29 14.5 -61 14.5q-32 0 -61 -14.5q-29 -14.5 -50.5 -47q-21.5 -32.5 -34.5 -84q-13 -51.5 -13 -124.5q0 -74 13 -125q13 -51 34.5 -83.5q21.5 -32.5 50.5 -47q29 -14.5 61 -14.5zt0 0zM310 -8q-56 0 -104.5 22q-48.5 22 -84 66q-35.5 44 -56 111.5q-20.5 67.5 -20.5 158.5q0 91 20.5 158.5q20.5 67.5 56 111.5q35.5 44 84 66q48.5 22 104.5 22q56 0 104.5 -22q48.5 -22 84 -66q35.5 -44 56 -111.5q20.5 -67.5 20.5 -158.5q0 -91 -20.5 -158.5q-20.5 -67.5 -56 -111.5q-35.5 -44 -84 -66q-48.5 -22 -104.5 -22zt0 0zM262 895h106l-86 -150h-72zM420 895h110l-120 -150l-76 0z" />
<glyph unicode="&#337;" horiz-adv-x="500" d="M251 70q24 0 44 9q20 9 34.5 31q14.5 22 22.5 57q8 35 8 88q0 52 -8 87.5q-8 35.5 -22.5 57.5q-14.5 22 -34.5 31q-20 9 -44 9q-25 0 -45.5 -9q-20.5 -9 -35 -31q-14.5 -22 -22.5 -57.5q-8 -35.5 -8 -87.5q0 -53 8 -88q8 -35 22.5 -57q14.5 -22 35 -31q20.5 -9 45.5 -9zt0 0zM251 -8q-47 0 -86 16q-39 16 -67 48.5q-28 32.5 -43 82q-15 49.5 -15 116.5q0 67 15 116.5q15 49.5 43 82q28 32.5 67 48.5q39 16 86 16q46 0 84.5 -16q38.5 -16 66.5 -48.5q28 -32.5 43 -82q15 -49.5 15 -116.5q0 -67 -15 -116.5q-15 -49.5 -43 -82q-28 -32.5 -66.5 -48.5q-38.5 -16 -84.5 -16zt0 0zM202 725h106l-86 -150h-72zM360 725h110l-120 -150l-76 0z" />
<glyph unicode="&#338;" horiz-adv-x="850" d="M345 -8q-66 0 -121 22q-55 22 -94.5 66q-39.5 44 -62 111.5q-22.5 67.5 -22.5 158.5q0 91 20.5 158.5q20.5 67.5 58.5 112q38 44.5 91.5 66q53.5 21.5 119.5 21.5q38 0 62 -2q24 -2 48 -6l340 0v-86h-240v-206h225v-86h-225v-236h250v-86h-350q-11 -2 -21 -3.5q-10 -1.5 -21.5 -2.5q-11.5 -1 -25 -1.5q-13.5 -0.5 -32.5 -0.5zt0 0zM151 350q0 -73 13.5 -124.5q13.5 -51.5 39 -83.5q25.5 -32 61 -47q35.5 -15 80.5 -15q30 0 50 1.5q20 1.5 50 4.5l0 528q-30 3 -50 4.5q-20 1.5 -50 1.5q-45 0 -80.5 -15q-35.5 -15 -61 -47q-25.5 -32 -39 -83.5t-13.5 -124.5z" />
<glyph unicode="&#339;" horiz-adv-x="790" d="M251 -8q-47 0 -86 16q-39 16 -67 48.5q-28 32.5 -43 82q-15 49.5 -15 116.5q0 67 15 116.5q15 49.5 43 82q28 32.5 67 48.5q39 16 86 16q49 0 89 -20.5q40 -20.5 68 -72.5q26 53 64.5 73q38.5 20 87.5 20q43 0 78 -15q35 -15 60 -47q25 -32 38.5 -81.5q13.5 -49.5 13.5 -119.5v-28h-290q4 -85 33 -121q29 -36 97 -36q48 0 81 13.5q33 13.5 49 24.5l0 -88q-23 -11 -56 -19.5q-33 -8.5 -84 -8.5q-57 0 -100 20q-43 20 -71 74q-28 -53 -68 -73.5q-40 -20.5 -90 -20.5zt0 0zM251 70q24 0 44 9q20 9 34.5 31q14.5 22 22.5 57q8 35 8 88q0 52 -8 87.5q-8 35.5 -22.5 57.5q-14.5 22 -34.5 31q-20 9 -44 9q-25 0 -45.5 -9q-20.5 -9 -35 -31q-14.5 -22 -22.5 -57.5q-8 -35.5 -8 -87.5q0 -53 8 -88q8 -35 22.5 -57q14.5 -22 35 -31q20.5 -9 45.5 -9zt0 0zM560 440q-20 0 -37 -6.5q-17 -6.5 -30.5 -22.5q-13.5 -16 -22.5 -42.5q-9 -26.5 -12 -65.5l195 0q-2 76 -27 106.5t-66 30.5z" />
<glyph unicode="&#340;" horiz-adv-x="530" d="M80 700h160q113 0 171.5 -57q58.5 -57 58.5 -163q0 -142 -103 -194l133 -286h-108l-114 262q-9 -2 -18.5 -2q-9.5 0 -19.5 0h-60v-260h-100zM365 482q0 69 -30.5 100.5q-30.5 31.5 -94.5 31.5h-60v-268h60q64 0 94.5 32q30.5 32 30.5 104zt0 0zM277 895h108l-106 -150l-74 0z" />
<glyph unicode="&#341;" horiz-adv-x="310" d="M60 510h94v-70h1q14 32 40 55q26 23 75 23q12 0 20 -2l0 -88q-12 4 -30 4q-21 0 -40 -9q-19 -9 -34 -25q-15 -16 -23.5 -38.5q-8.5 -22.5 -8.5 -49.5v-310h-94zM200 725h108l-96 -150l-74 0z" />
<glyph unicode="&#342;" horiz-adv-x="530" d="M80 700h160q113 0 171.5 -57q58.5 -57 58.5 -163q0 -142 -103 -194l133 -286h-108l-114 262q-9 -2 -18.5 -2q-9.5 0 -19.5 0h-60v-260h-100zM365 482q0 69 -30.5 100.5q-30.5 31.5 -94.5 31.5h-60v-268h60q64 0 94.5 32q30.5 32 30.5 104zt0 0zM236 -50h100l-78 -160l-72 0z" />
<glyph unicode="&#343;" horiz-adv-x="310" d="M60 510h94v-70h1q14 32 40 55q26 23 75 23q12 0 20 -2l0 -88q-12 4 -30 4q-21 0 -40 -9q-19 -9 -34 -25q-15 -16 -23.5 -38.5q-8.5 -22.5 -8.5 -49.5v-310h-94zM60 -50h94l-78 -160l-72 0z" />
<glyph unicode="&#344;" horiz-adv-x="530" d="M80 700h160q113 0 171.5 -57q58.5 -57 58.5 -163q0 -142 -103 -194l133 -286h-108l-114 262q-9 -2 -18.5 -2q-9.5 0 -19.5 0h-60v-260h-100zM365 482q0 69 -30.5 100.5q-30.5 31.5 -94.5 31.5h-60v-268h60q64 0 94.5 32q30.5 32 30.5 104zt0 0zM97 895h84l63 -93l61 93h82l-103 -150l-84 0z" />
<glyph unicode="&#345;" horiz-adv-x="310" d="M60 510h94v-70h1q14 32 40 55q26 23 75 23q12 0 20 -2l0 -88q-12 4 -30 4q-21 0 -40 -9q-19 -9 -34 -25q-15 -16 -23.5 -38.5q-8.5 -22.5 -8.5 -49.5v-310h-94zM35 725h82l60 -95l58 95h80l-100 -150l-80 0z" />
<glyph unicode="&#346;" horiz-adv-x="470" d="M220 -8q-46 0 -93 12q-47 12 -82 29l0 98q33 -17 74.5 -34q41.5 -17 100.5 -17q45 0 72 29q27 29 27 81q0 29 -16 57q-16 28 -61 54l-64 37q-73 42 -103 90.5q-30 48.5 -30 106.5q0 85 52.5 129q52.5 44 152.5 44q36 0 65 -6.5q29 -6.5 70 -22.5l0 -98q-45 23 -77 31q-32 8 -58 8q-50 0 -74.5 -22q-24.5 -22 -24.5 -63q0 -30 12.5 -54q12.5 -24 50.5 -47l89 -53q69 -42 95.5 -87.5q26.5 -45.5 26.5 -103.5q0 -98 -51 -148q-51 -50 -154 -50zt0 0zM270 895h108l-106 -150l-74 0z" />
<glyph unicode="&#347;" horiz-adv-x="390" d="M185 -8q-86 0 -145 28l0 88q35 -20 67.5 -29q32.5 -9 77.5 -9q65 0 65 55q0 9 -2 18q-2 9 -10 20q-8 11 -26 25q-18 14 -49 33q-30 18 -53 35.5q-23 17.5 -38.5 36q-15.5 18.5 -23.5 39.5q-8 21 -8 48q0 29 11 54.5q11 25.5 32 44q21 18.5 52 29q31 10.5 70 10.5q46 0 74.5 -6.5q28.5 -6.5 40.5 -11.5l0 -88q-32 17 -56.5 22.5q-24.5 5.5 -58.5 5.5q-30 0 -47.5 -17q-17.5 -17 -17.5 -43q0 -26 20 -48.5q20 -22.5 64 -45.5q40 -21 64.5 -39.5q24.5 -18.5 38 -37q13.5 -18.5 18.5 -39q5 -20.5 5 -45.5q0 -66 -42 -99.5q-42 -33.5 -123 -33.5zt0 0zM220 725h108l-96 -150l-74 0z" />
<glyph unicode="&#348;" horiz-adv-x="470" d="M220 -8q-46 0 -93 12q-47 12 -82 29l0 98q33 -17 74.5 -34q41.5 -17 100.5 -17q45 0 72 29q27 29 27 81q0 29 -16 57q-16 28 -61 54l-64 37q-73 42 -103 90.5q-30 48.5 -30 106.5q0 85 52.5 129q52.5 44 152.5 44q36 0 65 -6.5q29 -6.5 70 -22.5l0 -98q-45 23 -77 31q-32 8 -58 8q-50 0 -74.5 -22q-24.5 -22 -24.5 -63q0 -30 12.5 -54q12.5 -24 50.5 -47l89 -53q69 -42 95.5 -87.5q26.5 -45.5 26.5 -103.5q0 -98 -51 -148q-51 -50 -154 -50zt0 0zM193 895h84l103 -150h-84l-63 93l-61 -93l-82 0z" />
<glyph unicode="&#349;" horiz-adv-x="390" d="M185 -8q-86 0 -145 28l0 88q35 -20 67.5 -29q32.5 -9 77.5 -9q65 0 65 55q0 9 -2 18q-2 9 -10 20q-8 11 -26 25q-18 14 -49 33q-30 18 -53 35.5q-23 17.5 -38.5 36q-15.5 18.5 -23.5 39.5q-8 21 -8 48q0 29 11 54.5q11 25.5 32 44q21 18.5 52 29q31 10.5 70 10.5q46 0 74.5 -6.5q28.5 -6.5 40.5 -11.5l0 -88q-32 17 -56.5 22.5q-24.5 5.5 -58.5 5.5q-30 0 -47.5 -17q-17.5 -17 -17.5 -43q0 -26 20 -48.5q20 -22.5 64 -45.5q40 -21 64.5 -39.5q24.5 -18.5 38 -37q13.5 -18.5 18.5 -39q5 -20.5 5 -45.5q0 -66 -42 -99.5q-42 -33.5 -123 -33.5zt0 0zM155 725h80l100 -150h-82l-60 95l-58 -95l-80 0z" />
<glyph unicode="&#350;" horiz-adv-x="470" d="M220 -8q-46 0 -93 12q-47 12 -82 29l0 98q33 -17 74.5 -34q41.5 -17 100.5 -17q45 0 72 29q27 29 27 81q0 29 -16 57q-16 28 -61 54l-64 37q-73 42 -103 90.5q-30 48.5 -30 106.5q0 85 52.5 129q52.5 44 152.5 44q36 0 65 -6.5q29 -6.5 70 -22.5l0 -98q-45 23 -77 31q-32 8 -58 8q-50 0 -74.5 -22q-24.5 -22 -24.5 -63q0 -30 12.5 -54q12.5 -24 50.5 -47l89 -53q69 -42 95.5 -87.5q26.5 -45.5 26.5 -103.5q0 -98 -51 -148q-51 -50 -154 -50zt0 0zM220 -218q-34 0 -57 8.5q-23 8.5 -38 20.5l25 57q25 -20 55 -20q36 0 36 32q0 14 -9.5 22q-9.5 8 -31.5 8q-9 0 -16 -1.5q-7 -1.5 -14 -3.5l25 95h60l-11 -42q14 -1 28.5 -6q14.5 -5 26 -15q11.5 -10 19 -24q7.5 -14 7.5 -33q0 -47 -26.5 -72.5t-78.5 -25.5z" />
<glyph unicode="&#351;" horiz-adv-x="390" d="M185 -8q-86 0 -145 28l0 88q35 -20 67.5 -29q32.5 -9 77.5 -9q65 0 65 55q0 9 -2 18q-2 9 -10 20q-8 11 -26 25q-18 14 -49 33q-30 18 -53 35.5q-23 17.5 -38.5 36q-15.5 18.5 -23.5 39.5q-8 21 -8 48q0 29 11 54.5q11 25.5 32 44q21 18.5 52 29q31 10.5 70 10.5q46 0 74.5 -6.5q28.5 -6.5 40.5 -11.5l0 -88q-32 17 -56.5 22.5q-24.5 5.5 -58.5 5.5q-30 0 -47.5 -17q-17.5 -17 -17.5 -43q0 -26 20 -48.5q20 -22.5 64 -45.5q40 -21 64.5 -39.5q24.5 -18.5 38 -37q13.5 -18.5 18.5 -39q5 -20.5 5 -45.5q0 -66 -42 -99.5q-42 -33.5 -123 -33.5zt0 0zM180 -218q-34 0 -57 8.5q-23 8.5 -38 20.5l25 57q25 -20 55 -20q36 0 36 32q0 14 -9.5 22q-9.5 8 -31.5 8q-9 0 -16 -1.5q-7 -1.5 -14 -3.5l25 95h60l-11 -42q14 -1 28.5 -6q14.5 -5 26 -15q11.5 -10 19 -24q7.5 -14 7.5 -33q0 -47 -26.5 -72.5t-78.5 -25.5z" />
<glyph unicode="&#352;" horiz-adv-x="470" d="M220 -8q-46 0 -93 12q-47 12 -82 29l0 98q33 -17 74.5 -34q41.5 -17 100.5 -17q45 0 72 29q27 29 27 81q0 29 -16 57q-16 28 -61 54l-64 37q-73 42 -103 90.5q-30 48.5 -30 106.5q0 85 52.5 129q52.5 44 152.5 44q36 0 65 -6.5q29 -6.5 70 -22.5l0 -98q-45 23 -77 31q-32 8 -58 8q-50 0 -74.5 -22q-24.5 -22 -24.5 -63q0 -30 12.5 -54q12.5 -24 50.5 -47l89 -53q69 -42 95.5 -87.5q26.5 -45.5 26.5 -103.5q0 -98 -51 -148q-51 -50 -154 -50zt0 0zM90 895h84l63 -93l61 93h82l-103 -150l-84 0z" />
<glyph unicode="&#353;" horiz-adv-x="390" d="M185 -8q-86 0 -145 28l0 88q35 -20 67.5 -29q32.5 -9 77.5 -9q65 0 65 55q0 9 -2 18q-2 9 -10 20q-8 11 -26 25q-18 14 -49 33q-30 18 -53 35.5q-23 17.5 -38.5 36q-15.5 18.5 -23.5 39.5q-8 21 -8 48q0 29 11 54.5q11 25.5 32 44q21 18.5 52 29q31 10.5 70 10.5q46 0 74.5 -6.5q28.5 -6.5 40.5 -11.5l0 -88q-32 17 -56.5 22.5q-24.5 5.5 -58.5 5.5q-30 0 -47.5 -17q-17.5 -17 -17.5 -43q0 -26 20 -48.5q20 -22.5 64 -45.5q40 -21 64.5 -39.5q24.5 -18.5 38 -37q13.5 -18.5 18.5 -39q5 -20.5 5 -45.5q0 -66 -42 -99.5q-42 -33.5 -123 -33.5zt0 0zM55 725h82l60 -95l58 95h80l-100 -150l-80 0z" />
<glyph unicode="&#354;" horiz-adv-x="460" d="M180 614h-165v86h430v-86h-165v-614h-100zM225 -218q-34 0 -57 8.5q-23 8.5 -38 20.5l25 57q25 -20 55 -20q36 0 36 32q0 14 -9.5 22q-9.5 8 -31.5 8q-9 0 -16 -1.5q-7 -1.5 -14 -3.5l25 95h60l-11 -42q14 -1 28.5 -6q14.5 -5 26 -15q11.5 -10 19 -24q7.5 -14 7.5 -33q0 -47 -26.5 -72.5t-78.5 -25.5z" />
<glyph unicode="&#355;" horiz-adv-x="320" d="M230 -8q-33 0 -56.5 8q-23.5 8 -38.5 26q-15 18 -22.5 48.5q-7.5 30.5 -7.5 75.5v284h-85v76h85v110l94 30v-140h100v-76h-100v-284q0 -46 13 -63q13 -17 38 -17q12 0 27 3.5q15 3.5 23 7.5l0 -80q-17 -5 -33.5 -7q-16.5 -2 -36.5 -2zt0 0zM205 -218q-34 0 -57 8.5q-23 8.5 -38 20.5l25 57q25 -20 55 -20q36 0 36 32q0 14 -9.5 22q-9.5 8 -31.5 8q-9 0 -16 -1.5q-7 -1.5 -14 -3.5l25 95h60l-11 -42q14 -1 28.5 -6q14.5 -5 26 -15q11.5 -10 19 -24q7.5 -14 7.5 -33q0 -47 -26.5 -72.5t-78.5 -25.5z" />
<glyph unicode="&#356;" horiz-adv-x="460" d="M180 614h-165v86h430v-86h-165v-614h-100zM85 895h84l63 -93l61 93h82l-103 -150l-84 0z" />
<glyph unicode="&#357;" horiz-adv-x="370" d="M230 -8q-33 0 -56.5 8q-23.5 8 -38.5 26q-15 18 -22.5 48.5q-7.5 30.5 -7.5 75.5v284h-85v76h85v110l94 30v-140h100v-76h-100v-284q0 -46 13 -63q13 -17 38 -17q12 0 27 3.5q15 3.5 23 7.5l0 -80q-17 -5 -33.5 -7q-16.5 -2 -36.5 -2zt0 0zM310 820h100l-74 -250l-76 0z" />
<glyph unicode="&#362;" horiz-adv-x="590" d="M296 -8q-106 0 -163.5 60.5q-57.5 60.5 -57.5 187.5v460h100v-460q0 -90 30 -125q30 -35 91 -35q59 0 89 35q30 35 30 125v460h100v-460q0 -127 -57 -187.5q-57 -60.5 -162 -60.5zt0 0zM160 856h270v-72l-270 0z" />
<glyph unicode="&#363;" horiz-adv-x="485" d="M200 -8q-64 0 -104.5 46q-40.5 46 -40.5 142v330h94v-310q0 -69 21.5 -95.5q21.5 -26.5 59.5 -26.5q19 0 37 9q18 9 32.5 25q14.5 16 23 38.5q8.5 22.5 8.5 49.5v310h94v-510h-90v70h-1q-21 -32 -54 -55q-33 -23 -80 -23zt0 0zM110 687h260v-74l-260 0z" />
<glyph unicode="&#364;" horiz-adv-x="590" d="M296 -8q-106 0 -163.5 60.5q-57.5 60.5 -57.5 187.5v460h100v-460q0 -90 30 -125q30 -35 91 -35q59 0 89 35q30 35 30 125v460h100v-460q0 -127 -57 -187.5q-57 -60.5 -162 -60.5zt0 0zM295 753q-25 0 -47.5 6.5q-22.5 6.5 -40.5 21.5q-18 15 -29 41q-11 26 -13 65l62 0q4 -37 21.5 -52q17.5 -15 46.5 -15q29 0 46.5 15q17.5 15 21.5 52l62 0q-2 -39 -13 -65q-11 -26 -29 -41q-18 -15 -40.5 -21.5t-47.5 -6.5z" />
<glyph unicode="&#365;" horiz-adv-x="485" d="M200 -8q-64 0 -104.5 46q-40.5 46 -40.5 142v330h94v-310q0 -69 21.5 -95.5q21.5 -26.5 59.5 -26.5q19 0 37 9q18 9 32.5 25q14.5 16 23 38.5q8.5 22.5 8.5 49.5v310h94v-510h-90v70h-1q-21 -32 -54 -55q-33 -23 -80 -23zt0 0zM240 588q-23 0 -45 5.5q-22 5.5 -39 19.5q-17 14 -28 38q-11 24 -13 61l60 0q4 -33 21.5 -45q17.5 -12 43.5 -12q26 0 43.5 12q17.5 12 21.5 45l60 0q-2 -37 -12.5 -61q-10.5 -24 -28 -38q-17.5 -14 -39 -19.5t-45.5 -5.5z" />
<glyph unicode="&#366;" horiz-adv-x="590" d="M296 -8q-106 0 -163.5 60.5q-57.5 60.5 -57.5 187.5v460h100v-460q0 -90 30 -125q30 -35 91 -35q59 0 89 35q30 35 30 125v460h100v-460q0 -127 -57 -187.5q-57 -60.5 -162 -60.5zt0 0zM295 725q-24 0 -44.5 9q-20.5 9 -36.5 25q-16 16 -25 36.5q-9 20.5 -9 44.5q0 24 9 44.5q9 20.5 25 36.5q16 16 36.5 25q20.5 9 44.5 9q24 0 44.5 -9q20.5 -9 36.5 -25q16 -16 25 -36.5q9 -20.5 9 -44.5q0 -24 -9 -44.5q-9 -20.5 -25 -36.5q-16 -16 -36.5 -25q-20.5 -9 -44.5 -9zt0 0zM295 788q22 0 37 15q15 15 15 37q0 22 -15 37q-15 15 -37 15q-22 0 -37 -15q-15 -15 -15 -37q0 -22 15 -37t37 -15z" />
<glyph unicode="&#367;" horiz-adv-x="485" d="M200 -8q-64 0 -104.5 46q-40.5 46 -40.5 142v330h94v-310q0 -69 21.5 -95.5q21.5 -26.5 59.5 -26.5q19 0 37 9q18 9 32.5 25q14.5 16 23 38.5q8.5 22.5 8.5 49.5v310h94v-510h-90v70h-1q-21 -32 -54 -55q-33 -23 -80 -23zt0 0zM240 560q-23 0 -43 8.5q-20 8.5 -35 23.5q-15 15 -23.5 35q-8.5 20 -8.5 43q0 23 8.5 43q8.5 20 23.5 35q15 15 35 23.5q20 8.5 43 8.5q23 0 43 -8.5q20 -8.5 35 -23.5q15 -15 23.5 -35q8.5 -20 8.5 -43q0 -23 -8.5 -43q-8.5 -20 -23.5 -35q-15 -15 -35 -23.5q-20 -8.5 -43 -8.5zt0 0zM240 616q23 0 38.5 15.5q15.5 15.5 15.5 38.5q0 23 -15.5 38.5q-15.5 15.5 -38.5 15.5q-23 0 -38.5 -15.5q-15.5 -15.5 -15.5 -38.5q0 -23 15.5 -38.5t38.5 -15.5z" />
<glyph unicode="&#368;" horiz-adv-x="590" d="M296 -8q-106 0 -163.5 60.5q-57.5 60.5 -57.5 187.5v460h100v-460q0 -90 30 -125q30 -35 91 -35q59 0 89 35q30 35 30 125v460h100v-460q0 -127 -57 -187.5q-57 -60.5 -162 -60.5zt0 0zM247 895h106l-86 -150h-72zM405 895h110l-120 -150l-76 0z" />
</font>
</defs>
</svg>
