<svg width="13" height="14" viewBox="0 0 13 14" fill="none" xmlns="http://www.w3.org/2000/svg">
<path fill-rule="evenodd" clip-rule="evenodd" d="M13 7C13 10.59 10.09 13.5 6.5 13.5C2.91 13.5 2.544e-07 10.59 5.68248e-07 7C8.82096e-07 3.41 2.91 0.499999 6.5 0.499999C10.09 0.5 13 3.41 13 7ZM11.897 7C11.897 4.02 9.48 1.603 6.5 1.603C3.52 1.603 1.103 4.02 1.103 7C1.103 9.98 3.52 12.397 6.5 12.397C9.48 12.397 11.897 9.98 11.897 7ZM6.99301 3.95401C7.12301 4.08501 7.19699 4.26201 7.19699 4.44601C7.19699 4.63101 7.12301 4.808 6.99301 4.93899C6.86201 5.06899 6.685 5.143 6.5 5.143C6.316 5.143 6.138 5.06899 6.008 4.93899C5.877 4.808 5.80399 4.63101 5.80399 4.44601C5.80399 4.26201 5.877 4.08501 6.008 3.95401C6.138 3.82301 6.316 3.75 6.5 3.75C6.685 3.75 6.86201 3.82301 6.99301 3.95401ZM6.15201 6.07101L6.84799 6.07101C6.91199 6.07101 6.965 6.12399 6.965 6.18799L6.965 10.134C6.965 10.198 6.91199 10.25 6.84799 10.25L6.15201 10.25C6.08801 10.25 6.03601 10.198 6.03601 10.134L6.03601 6.18799C6.03601 6.12399 6.08801 6.07101 6.15201 6.07101Z" fill="#00AAFF"/>
</svg>
