<svg width="16" height="16" viewBox="0 0 16 16" fill="none" xmlns="http://www.w3.org/2000/svg">
<path d="M14.2861 10.0205C14.0605 9.626 13.7997 8.6875 13.6201 8.041C13.1122 6.21388 12.3261 3.3935 9.96187 2.38088C9.98538 2.25688 10 2.12987 10 2C10 0.8955 9.1045 0 8 0C6.8955 0 6 0.8955 6 2C6 2.12987 6.01463 2.25688 6.03813 2.38088C3.67388 3.39363 2.88775 6.21388 2.37987 8.041C2.20012 8.6875 1.9395 9.626 1.71388 10.0205C0.745125 10.1591 0 10.9923 0 12C0 13.1045 0.8955 14 2 14H6C6 15.1045 6.8955 16 8 16C9.1045 16 10 15.1045 10 14H14C15.1045 14 16 13.1045 16 12C16 10.9923 15.2549 10.1591 14.2861 10.0205ZM14 13H8H2C1.44825 13 1 12.5518 1 12C1 11.5059 1.36812 11.0801 1.8555 11.0107C2.16112 10.9668 2.42875 10.7841 2.58212 10.5166C2.84775 10.0518 3.08413 9.24225 3.34387 8.30863C3.80662 6.64263 4.50587 4.125 6.43162 3.29975C6.86325 3.11513 7.10738 2.65625 7.0205 2.19525C7.00688 2.12112 7 2.05763 7 2C7 1.44825 7.44825 1 8 1C8.55175 1 9 1.44825 9 2C9 2.05763 8.99312 2.12112 8.9795 2.19537C8.89262 2.65637 9.13675 3.11525 9.56837 3.29988C11.4931 4.1247 12.1927 6.64004 12.6565 8.30806L12.6573 8.31063C12.916 9.24225 13.1524 10.0519 13.418 10.5166C13.5714 10.7843 13.8389 10.9669 14.1446 11.0107C14.6319 11.0801 15 11.5059 15 12C15 12.5518 14.5518 13 14 13Z" fill="#FFA000"/>
<path d="M14 13H8H2C1.44825 13 1 12.5518 1 12C1 11.5059 1.36812 11.0801 1.8555 11.0107C2.16112 10.9668 2.42875 10.7841 2.58212 10.5166C2.84775 10.0518 3.08413 9.24225 3.34387 8.30863C3.80662 6.64263 4.50587 4.125 6.43162 3.29975C6.86325 3.11513 7.10738 2.65625 7.0205 2.19525C7.00688 2.12112 7 2.05763 7 2C7 1.44825 7.44825 1 8 1C8.55175 1 9 1.44825 9 2C9 2.05763 8.99312 2.12112 8.9795 2.19537C8.89262 2.65637 9.13675 3.11525 9.56837 3.29988C11.4931 4.1247 12.1927 6.64004 12.6565 8.30806L12.6573 8.31063C12.916 9.24225 13.1524 10.0519 13.418 10.5166C13.5714 10.7843 13.8389 10.9669 14.1446 11.0107C14.6319 11.0801 15 11.5059 15 12C15 12.5518 14.5518 13 14 13Z" fill="#FFA000"/>
</svg>
