<svg width="14" height="12" viewBox="0 0 14 12" fill="none" xmlns="http://www.w3.org/2000/svg">
<path d="M6.55421 2.3565L7.00027 3.23571L7.44607 2.35637C7.97493 1.31319 9.05355 0.599609 10.2992 0.599609C12.0668 0.599609 13.5 2.03274 13.5 3.8005C13.5 4.64174 13.1618 5.53998 12.5948 6.43802C12.0303 7.33205 11.2613 8.19049 10.4559 8.94149C9.65165 9.69132 8.82369 10.3223 8.15304 10.7633C7.81724 10.9841 7.52728 11.153 7.30437 11.2645C7.1925 11.3205 7.10456 11.3585 7.04072 11.3813C7.02379 11.3874 7.01042 11.3917 7.00031 11.3947C6.99024 11.3917 6.97695 11.3874 6.96014 11.3813C6.89635 11.3584 6.80843 11.3203 6.69656 11.2641C6.47364 11.1521 6.18366 10.9826 5.8478 10.7611C5.17705 10.3187 4.34893 9.68587 3.54454 8.93478C2.7389 8.18252 1.96975 7.32337 1.40515 6.43C0.837919 5.53246 0.5 4.63668 0.5 3.8005C0.5 2.03275 1.93303 0.599735 3.70075 0.599832H3.70078C4.94655 0.599832 6.02491 1.31319 6.55421 2.3565Z" stroke="#00AAFF"/>
</svg>
