<svg width="34" height="34" viewBox="0 0 34 34" fill="none" xmlns="http://www.w3.org/2000/svg">
<path d="M9.51919 28.345L11.2699 27.8759C12.6917 28.6968 14.38 28.919 15.9652 28.4942L24.8694 26.1083L26.151 23.8885L25.2128 20.3871L23.3049 11.5162L14.989 13.7445C14.989 13.7445 15.0984 10.651 14.9262 10.0085C14.3982 8.03808 13.7534 5.63172 11.1274 6.33538C10.252 6.56993 10.252 6.56993 10.252 6.56993L10.6323 9.74331L9.59303 14.1527C9.28712 15.4515 8.29252 16.477 7.00312 16.8225L6.47002 16.9654L9.51919 28.345Z" fill="white"/>
<path d="M24.4776 15.893C25.6862 15.5692 26.4035 14.3269 26.0796 13.1183C25.7558 11.9097 24.5135 11.1924 23.3048 11.5163C22.0962 11.8401 21.379 13.0824 21.7028 14.291C22.0267 15.4996 23.269 16.2169 24.4776 15.893Z" fill="white"/>
<path d="M25.4788 23.1304C26.6874 22.8066 27.4047 21.5643 27.0808 20.3557C26.757 19.1471 25.5147 18.4298 24.3061 18.7537C23.0975 19.0775 22.3802 20.3198 22.7041 21.5284C23.0279 22.7371 24.2702 23.4543 25.4788 23.1304Z" fill="white"/>
<path d="M25.4158 19.3944C26.6244 19.0706 27.3417 17.8283 27.0178 16.6197C26.694 15.4111 25.4517 14.6938 24.2431 15.0177C23.0345 15.3415 22.3172 16.5838 22.6411 17.7924C22.9649 19.001 24.2072 19.7183 25.4158 19.3944Z" fill="white"/>
<path d="M24.8693 26.1084C25.8362 25.8493 26.41 24.8554 26.151 23.8885C25.8919 22.9217 24.898 22.3479 23.9311 22.6069C22.9642 22.866 22.3904 23.8599 22.6495 24.8268C22.9086 25.7936 23.9024 26.3674 24.8693 26.1084Z" fill="white"/>
<path d="M24.8693 26.1084C25.8362 25.8493 26.41 24.8554 26.151 23.8885C25.8919 22.9217 24.898 22.3479 23.9311 22.6069C22.9642 22.866 22.3904 23.8599 22.6495 24.8268C22.9086 25.7936 23.9024 26.3674 24.8693 26.1084Z" fill="white"/>
</svg>
