<svg width="17" height="17" viewBox="0 0 17 17" fill="none" xmlns="http://www.w3.org/2000/svg">
<path d="M8.125 0C3.63797 0 0 3.63797 0 8.125C0 12.612 3.63797 16.25 8.125 16.25C12.612 16.25 16.25 12.612 16.25 8.125C16.25 3.63797 12.612 0 8.125 0ZM8.94563 3.38542L8.81021 9.47917H7.43979L7.30438 3.38542H8.94563ZM8.12703 12.9926C7.56641 12.9926 7.23125 12.694 7.23125 12.1922C7.23125 11.681 7.56573 11.3825 8.12703 11.3825C8.6836 11.3825 9.01807 11.681 9.01807 12.1922C9.01807 12.694 8.6836 12.9926 8.12703 12.9926Z" fill="#EB5757"/>
</svg>
