<svg width="26" height="26" viewBox="0 0 26 26" fill="none" xmlns="http://www.w3.org/2000/svg">
<path d="M20.8 1.3V0H5.2V1.3C3.82087 1.3 2.49823 1.84786 1.52304 2.82304C0.547856 3.79823 0 5.12087 0 6.5C0 7.87913 0.547856 9.20177 1.52304 10.177C2.49823 11.1521 3.82087 11.7 5.2 11.7H6.253C6.82719 12.6921 7.61297 13.5454 8.55443 14.1992C9.49589 14.8531 10.5699 15.2914 11.7 15.483V18.2H6.786L4.836 26H21.164L19.214 18.2H14.3V15.483C15.4301 15.2914 16.5041 14.8531 17.4456 14.1992C18.387 13.5454 19.1728 12.6921 19.747 11.7H20.8C22.1791 11.7 23.5018 11.1521 24.477 10.177C25.4521 9.20177 26 7.87913 26 6.5C26 5.12087 25.4521 3.79823 24.477 2.82304C23.5018 1.84786 22.1791 1.3 20.8 1.3ZM5.2 9.1C4.51044 9.1 3.84912 8.82607 3.36152 8.33848C2.87393 7.85088 2.6 7.18956 2.6 6.5C2.6 5.81044 2.87393 5.14912 3.36152 4.66152C3.84912 4.17393 4.51044 3.9 5.2 3.9V7.8C5.19906 8.236 5.23823 8.67117 5.317 9.1H5.2ZM22.633 8.333C22.1476 8.82126 21.4884 9.0971 20.8 9.1H20.683C20.7618 8.67117 20.8009 8.236 20.8 7.8V3.9C21.4896 3.9 22.1509 4.17393 22.6385 4.66152C23.1261 5.14912 23.4 5.81044 23.4 6.5C23.3971 7.18845 23.1213 7.84764 22.633 8.333Z" fill="white"/>
</svg>
