<svg width="10" height="15" viewBox="0 0 10 15" fill="none" xmlns="http://www.w3.org/2000/svg">
<path fill-rule="evenodd" clip-rule="evenodd" d="M1.43941 1.97009C0.685384 2.73851 0.849082 3.75196 0.866045 3.8453C0.40054 4.19413 0.0944048 4.70977 0.0144785 5.27963C-0.127167 6.44727 0.816005 7.20235 0.862654 7.23735C0.849932 7.3232 0.720158 8.27164 1.46401 8.97505C2.20786 9.67846 3.16121 9.48094 3.24009 9.46344C3.30964 9.55928 3.88215 10.3344 4.9076 10.3802C6.04924 10.4319 6.71761 9.53178 6.7668 9.46344C7.13344 9.5272 7.511 9.48654 7.85487 9.34624C8.19875 9.20594 8.49458 8.97187 8.70743 8.67168C9.15527 8.01577 9.01023 7.28903 8.98054 7.15484C9.03397 7.12151 9.89742 6.54228 9.88215 5.47215C9.86773 4.43704 9.04331 3.88531 8.98054 3.8453C8.99326 3.73779 9.0925 2.77435 8.35204 2.0526C7.63279 1.35169 6.71591 1.45836 6.60226 1.47337C6.54967 1.38252 6.04755 0.598268 5.07554 0.508258C3.95425 0.40408 3.27486 1.31918 3.24348 1.36335C3.14255 1.34835 2.17224 1.22001 1.43941 1.97009ZM4.94119 7.08825C5.85084 7.08825 6.58825 6.35084 6.58825 5.44119C6.58825 4.53155 5.85084 3.79413 4.94119 3.79413C4.03155 3.79413 3.29413 4.53155 3.29413 5.44119C3.29413 6.35084 4.03155 7.08825 4.94119 7.08825Z" fill="#E6EDFB"/>
<path d="M1.64697 10.3824H2.38931C2.57489 10.5197 3.58818 11.2692 5.1109 11.196C5.96505 11.149 6.77343 10.8617 7.40008 10.3824H8.23521V14.5L4.94109 12.7714L1.64697 14.5V10.3824Z" fill="#E6EDFB"/>
</svg>
